<svg width="105" height="50" viewBox="0 0 105 50" fill="none" xmlns="http://www.w3.org/2000/svg">
<path d="M48.8433 28.2645H55.4549L32.8103 0L10.083 28.2645H15.7028H16.7772H23.4714H29.0086H32.8103H42.0665L32.8103 16.9421L29.8351 20.4959L32.8929 24.1322H29.0086H26.8599H20.083L32.8103 8.59504L48.8433 28.2645Z" fill="white"/>
<path d="M48.5947 0L42.1484 8.01653L45.6195 12.2314L48.5947 8.59504L64.6278 28.2645H71.2393L48.5947 0Z" fill="white"/>
<path d="M64.7113 0L58.3477 8.01653L61.8187 12.2314L64.7113 8.59504L80.7444 28.2645H87.4386L64.7113 0Z" fill="white"/>
<path d="M99.4215 43.1403L98.0992 41.5701H0V43.1403H99.4215Z" fill="white"/>
<path d="M11.2394 39.4214H7.6857C7.35512 38.0164 6.61132 36.6941 5.28901 35.3718C4.87578 34.9586 4.46256 34.5453 4.13198 34.2974C3.88405 34.38 3.71876 34.4627 3.55347 34.4627V39.3387H0.165039V30.0825H3.63611V31.9833C3.96669 31.9007 4.29727 31.7354 4.79314 31.5701C5.70223 31.1569 6.36339 30.661 6.85925 30.0825H10.9915C10.4956 30.8263 9.66917 31.6528 8.59479 32.3966C8.09892 32.7271 7.60306 33.0577 7.10719 33.223C9.25595 34.9586 10.5783 37.0247 11.2394 39.4214Z" fill="white"/>
<path d="M20.8263 39.4213H15.537C12.975 39.4213 11.7354 38.6775 11.7354 37.1899C11.7354 36.5287 12.0659 35.9502 12.7271 35.4543C13.3056 35.0411 14.2147 34.7932 15.537 34.7932H16.7767C16.942 35.0411 17.1073 35.4543 17.1073 35.9502V36.3634H16.1982C15.2891 36.3634 14.8758 36.6114 14.8758 37.0246C14.8758 37.4378 15.2064 37.6031 15.8676 37.6031H17.6858V35.9502C17.6858 35.6196 17.6858 35.3717 17.6031 35.2064C17.4378 34.2973 16.5287 33.8841 15.0411 33.8841C14.2973 33.8841 13.5535 33.9667 12.8097 34.132V32.2312C13.8841 32.1486 14.7932 32.0659 15.4544 32.0659H15.7023C17.4378 32.0659 18.8428 32.4791 19.8345 33.2229C20.413 33.7188 20.7436 34.4626 20.7436 35.537V39.4213H20.8263Z" fill="white"/>
<path d="M31.9005 35.537C31.9005 36.5287 31.5699 37.3552 30.8261 37.9337C30.0823 38.5948 29.0906 38.9254 27.8509 38.9254H27.603C27.1071 38.9254 26.6939 38.8428 26.3633 38.8428V37.0246C26.6112 37.1072 26.8592 37.1072 27.0244 37.1072C27.603 37.1072 28.0162 36.942 28.4294 36.5287C28.5947 36.2808 28.76 36.0329 28.76 35.537C28.76 34.7105 28.3468 34.2147 27.4377 33.9667C27.1897 33.8841 26.8592 33.8841 26.5286 33.8841H25.8674V39.7519H22.8096V32.0659H27.2724C28.1815 32.0659 28.9253 32.1486 29.5864 32.3965C31.074 32.975 31.9005 33.9667 31.9005 35.537Z" fill="white"/>
<path d="M42.0665 39.4213H36.7772C34.2153 39.4213 32.9756 38.6775 32.9756 37.1899C32.9756 36.5287 33.3062 35.9502 33.9673 35.4543C34.5458 35.0411 35.4549 34.7932 36.7772 34.7932H38.0169C38.1822 35.0411 38.3475 35.4543 38.3475 35.9502V36.3634H37.4384C36.5293 36.3634 36.1161 36.6114 36.1161 37.0246C36.1161 37.4378 36.4467 37.6031 37.1078 37.6031H38.926V35.9502C38.926 35.6196 38.926 35.3717 38.8434 35.2064C38.6781 34.2973 37.769 33.8841 36.2814 33.8841C35.5376 33.8841 34.7938 33.9667 34.05 34.132V32.2312C35.1243 32.1486 36.0334 32.0659 36.6946 32.0659H36.9425C38.6781 32.0659 40.083 32.4791 41.0748 33.2229C41.6533 33.7188 41.9838 34.4626 41.9838 35.537V39.4213H42.0665Z" fill="white"/>
<path d="M57.1073 39.4214H54.0495C53.7189 37.9338 53.223 36.6941 52.4792 35.785C52.3139 35.8677 52.066 36.033 51.7354 36.1983V39.4214H48.6776V36.1983C48.5123 36.1156 48.2643 35.9503 47.9338 35.785C47.19 36.6941 46.6114 37.9338 46.3635 39.4214H43.3057C43.6362 37.5206 44.4627 35.9503 45.785 34.5454C44.5453 33.8016 43.7189 32.9751 43.3057 32.1487H46.7767C47.3552 32.9751 48.0164 33.5536 48.8429 33.8842V32.1487H51.9007V33.8842C52.7271 33.5536 53.3883 32.9751 53.9668 32.1487H57.4379C57.19 32.6445 56.6941 33.2231 55.9503 33.8016C55.6197 34.0495 55.2891 34.2974 54.8759 34.5454C55.785 35.5371 56.5288 36.6941 56.942 37.9338C56.942 38.4297 57.0247 38.9255 57.1073 39.4214Z" fill="white"/>
<path d="M67.4376 36.6941C67.4376 37.6032 67.0244 38.2644 66.2806 38.7603C65.5368 39.1735 64.6277 39.4214 63.4707 39.4214H58.3467V32.1487H61.4045V37.6032H62.8095C63.8012 37.6032 64.2971 37.2726 64.2971 36.6941C64.2971 36.3636 64.1318 36.1156 63.8839 35.9503C63.6359 35.785 63.3054 35.7024 62.8921 35.7024C62.5616 35.7024 62.3136 35.7024 61.983 35.785V33.9669C62.4789 33.8842 62.8921 33.8842 63.388 33.8842C64.6277 33.8842 65.5368 34.1322 66.2806 34.5454C67.0244 35.0412 67.4376 35.7024 67.4376 36.6941ZM71.2392 39.4214H68.1814V32.1487H71.2392V39.4214Z" fill="white"/>
<path d="M82.3966 35.537C82.3966 36.5287 82.066 37.3552 81.3222 37.9337C80.5784 38.5948 79.5867 38.9254 78.347 38.9254H78.0991C77.6032 38.9254 77.19 38.8428 76.8594 38.8428V37.0246C77.1073 37.1072 77.3553 37.1072 77.5205 37.1072C78.0991 37.1072 78.5123 36.942 78.9255 36.5287C79.0908 36.2808 79.2561 36.0329 79.2561 35.537C79.2561 34.7105 78.8429 34.2147 77.9338 33.9667C77.6858 33.8841 77.3553 33.8841 77.0247 33.8841H76.3635V39.7519H73.3057V32.0659H77.6858C78.5949 32.0659 79.3387 32.1486 79.9999 32.3965C81.5701 32.975 82.3966 33.9667 82.3966 35.537Z" fill="white"/>
<path d="M94.6274 39.4212H91.1563C91.1563 39.3386 91.1563 39.256 91.0737 39.1733C90.991 39.008 90.991 38.6774 90.9084 38.3469C90.9084 38.3469 90.8257 38.1816 90.7431 37.851H87.3547C87.4373 37.5204 87.52 37.1898 87.6852 36.8593L88.0158 35.8675H90.0819C89.834 35.0411 89.5034 34.2973 89.0076 33.5535C88.9249 33.3882 88.8423 33.2229 88.677 33.0576C87.52 34.9584 86.6935 37.0245 86.1976 39.3386H82.7266C83.3051 37.0245 84.1315 34.7931 85.2059 32.6444C85.7844 31.57 86.2803 30.7436 86.9414 29.9998H90.2472C91.7348 31.8179 92.8919 34.0493 93.7183 36.6113C94.2142 37.6857 94.4621 38.5948 94.6274 39.4212Z" fill="white"/>
<path d="M100.909 45.0413H0V49.9999H104.711L100.909 45.0413Z" fill="white"/>
</svg>
