<svg width="55" height="50" viewBox="0 0 55 50" fill="none" xmlns="http://www.w3.org/2000/svg">
<path d="M3.82509 34.2439H2.09467V35.5796H4.12868V36.3082H1.18392V31.6634H4.15903V32.392H2.09467V33.5456H3.82509V34.2439ZM4.79656 36.2779V31.6331H6.31447C6.86092 31.6331 7.28594 31.7545 7.58952 31.967C7.8931 32.1795 8.04489 32.5135 8.04489 32.9081C8.04489 33.1206 7.98418 33.3028 7.8931 33.4849C7.80203 33.6671 7.61988 33.7885 7.40737 33.8796C7.71095 33.9403 7.92346 34.0617 8.07525 34.2439C8.22704 34.4564 8.28776 34.6689 8.28776 34.9421C8.28776 35.3975 8.13597 35.7314 7.83239 35.9439C7.5288 36.1868 7.13415 36.2779 6.5877 36.2779H4.79656ZM5.73766 33.576H6.34483C6.5877 33.576 6.8002 33.5153 6.92164 33.4242C7.04307 33.3331 7.13415 33.1813 7.13415 32.9688C7.13415 32.7563 7.07343 32.6045 6.92164 32.4831C6.76985 32.3617 6.5877 32.3313 6.31447 32.3313H5.73766V33.576ZM5.73766 34.2439V35.5796H6.5877C6.83056 35.5796 7.01271 35.5189 7.1645 35.4278C7.28594 35.3064 7.34665 35.1546 7.34665 34.9421C7.34665 34.7296 7.28594 34.5475 7.1645 34.426C7.04307 34.3046 6.83056 34.2439 6.5877 34.2439H5.73766ZM9.89675 34.6082V36.3082H8.95564V31.6634H10.7468C11.2932 31.6634 11.6879 31.7849 12.0218 32.0581C12.3254 32.3313 12.4772 32.6956 12.4772 33.1206C12.4772 33.5456 12.3254 33.9099 12.0218 34.1832C11.7182 34.4564 11.2932 34.5778 10.7468 34.5778H9.89675V34.6082ZM9.89675 33.8796H10.7468C11.02 33.8796 11.2022 33.8189 11.3236 33.6671C11.445 33.5153 11.5361 33.3331 11.5361 33.1206C11.5361 32.9081 11.4754 32.726 11.3236 32.5742C11.2022 32.4224 10.9896 32.3617 10.7468 32.3617H9.89675V33.8796ZM16.9095 34.3957C16.9095 34.9725 16.7274 35.4279 16.3631 35.8225C15.9988 36.1868 15.5434 36.369 14.9666 36.369C14.3898 36.369 13.9344 36.1868 13.5701 35.8225C13.2058 35.4582 13.0237 34.9725 13.0237 34.3957V33.5456C13.0237 32.9688 13.2058 32.5135 13.5701 32.1188C13.9344 31.7241 14.3898 31.5723 14.9666 31.5723C15.5434 31.5723 15.9988 31.7545 16.3631 32.1188C16.7274 32.4831 16.9095 32.9688 16.9095 33.5456V34.3957ZM15.9684 33.5456C15.9684 33.1813 15.8773 32.8778 15.6952 32.6652C15.513 32.4224 15.2702 32.3313 14.9362 32.3313C14.6326 32.3313 14.3898 32.4527 14.2076 32.6652C14.0255 32.9081 13.9344 33.1813 13.9344 33.5456V34.3957C13.9344 34.76 14.0255 35.0636 14.2076 35.3064C14.3898 35.5493 14.6326 35.6404 14.9362 35.6404C15.2702 35.6404 15.513 35.5189 15.6952 35.3064C15.8773 35.0636 15.9684 34.76 15.9684 34.3957V33.5456ZM19.9757 35.2761H18.4578L18.1542 36.2779H17.1827L18.7614 31.6331H19.7025L21.2507 36.2779H20.2793L19.9757 35.2761ZM18.7006 34.5475H19.7632L19.2471 32.9081H19.2167L18.7006 34.5475ZM23.4365 33.576C23.7401 33.576 23.9526 33.5153 24.0741 33.3938C24.2259 33.2724 24.2866 33.1206 24.2866 32.9081C24.2866 32.726 24.1955 32.5742 24.0437 32.4527C23.8919 32.3313 23.649 32.2706 23.3758 32.2706C23.133 32.2706 22.9508 32.3313 22.799 32.4527C22.6472 32.5742 22.5561 32.6956 22.5561 32.8778H21.6454V32.8474C21.6454 32.4527 21.7972 32.1492 22.1311 31.9063C22.4651 31.6634 22.8901 31.542 23.3758 31.542C23.9526 31.542 24.3776 31.6634 24.7116 31.8759C25.0455 32.1188 25.1973 32.4224 25.1973 32.8474C25.1973 33.0599 25.1366 33.2421 24.9848 33.4242C24.833 33.6064 24.6509 33.7278 24.408 33.8492C24.6812 33.9403 24.8937 34.0921 25.0455 34.2742C25.1973 34.4564 25.258 34.6689 25.258 34.9421C25.258 35.3671 25.0759 35.7011 24.7419 35.9439C24.3776 36.1868 23.9223 36.3082 23.3455 36.3082C22.8597 36.3082 22.4347 36.1868 22.0704 35.9743C21.7061 35.7618 21.5543 35.4278 21.5543 34.9725V34.9421H22.4651C22.4651 35.1243 22.5561 35.2761 22.7079 35.3975C22.8597 35.5189 23.0722 35.5796 23.3455 35.5796C23.649 35.5796 23.8919 35.5189 24.0741 35.3975C24.2562 35.2761 24.3473 35.1243 24.3473 34.9118C24.3473 34.6689 24.2562 34.4867 24.1044 34.3653C23.9526 34.2439 23.7098 34.1832 23.4062 34.1832H22.7687V33.4849H23.4365V33.576ZM28.8099 31.6331H29.7511V36.2779H28.8099V33.1813H28.7796L26.8974 36.2779H25.9563V31.6331H26.8974V34.7296H26.9277L28.8099 31.6331ZM33.0601 35.2761H31.5422L31.2386 36.2779H30.2671L31.8458 31.6331H32.7869L34.3352 36.2779H33.394L33.0601 35.2761ZM31.7851 34.5475H32.8476L32.3315 32.9081H32.3012L31.7851 34.5475ZM37.7656 32.3617H36.4299V36.2779H35.4888V32.3617H34.1834V31.6331H37.7656V32.3617ZM41.6515 34.76C41.6515 35.2761 41.5301 35.6707 41.1961 35.9439C40.8925 36.2172 40.4675 36.369 39.9211 36.369C39.3746 36.369 38.9193 36.1868 38.5853 35.8225C38.2514 35.4582 38.0692 35.0028 38.0692 34.426V33.5153C38.0692 32.9385 38.221 32.4831 38.5853 32.1188C38.9193 31.7545 39.3443 31.5723 39.8907 31.5723C40.4675 31.5723 40.8925 31.7241 41.2265 31.9974C41.5604 32.2706 41.7122 32.6652 41.6819 33.151V33.1813H40.7711C40.7711 32.8778 40.7104 32.6652 40.5586 32.5135C40.4068 32.3617 40.1943 32.3009 39.8907 32.3009C39.6175 32.3009 39.405 32.4224 39.2532 32.6349C39.1014 32.8474 39.0103 33.151 39.0103 33.5153V34.4564C39.0103 34.8207 39.1014 35.0939 39.2532 35.3368C39.405 35.5493 39.6479 35.6707 39.9514 35.6707C40.2247 35.6707 40.4372 35.61 40.589 35.4582C40.7407 35.3064 40.8015 35.0939 40.8015 34.7903H41.6515V34.76ZM43.5944 34.335H43.2605V36.2779H42.3194V31.6331H43.2605V33.5456H43.5337L44.8088 31.6331H45.9624L44.3534 33.7885L46.0838 36.2779H44.8998L43.5944 34.335ZM48.9071 35.2761H47.3892L47.0856 36.2779H46.1142L47.6928 31.6331H48.6339L50.1822 36.2779H49.2107L48.9071 35.2761ZM47.6321 34.5475H48.6946L48.1785 32.9081H48.1482L47.6321 34.5475ZM51.1233 36.2779H50.1215L51.1233 34.2135C50.8804 34.0921 50.6983 33.9403 50.5768 33.7278C50.4554 33.5153 50.3947 33.3028 50.3947 33.0295C50.3947 32.6045 50.5465 32.2402 50.8501 31.9974C51.1536 31.7545 51.5787 31.6331 52.0947 31.6331H53.7037V36.2779H52.7626V34.4867H51.9733L51.1233 36.2779ZM52.793 32.3617H52.1251C51.8822 32.3617 51.6697 32.4224 51.5483 32.5438C51.4269 32.6652 51.3358 32.8474 51.3358 33.0599C51.3358 33.2724 51.3965 33.4546 51.5483 33.6064C51.7001 33.7581 51.8822 33.8189 52.1251 33.8189H52.793V32.3617ZM1.03213 39.5566C1.00177 39.0405 1.15357 38.6458 1.45715 38.3726C1.76073 38.0994 2.18575 37.9476 2.7322 37.9476C3.27864 37.9476 3.70366 38.1297 4.0376 38.494C4.37154 38.8583 4.52333 39.3137 4.52333 39.8905V40.8013C4.52333 41.3781 4.37154 41.8334 4.0376 42.1977C3.70366 42.562 3.27864 42.7442 2.7322 42.7442C2.18575 42.7442 1.76073 42.5924 1.45715 42.3192C1.15357 42.046 1.00177 41.6513 1.03213 41.1352V41.1048H1.94288C1.94288 41.4084 2.0036 41.6209 2.12503 41.7727C2.24646 41.9245 2.45897 41.9852 2.7322 41.9852C3.00542 41.9852 3.21793 41.8638 3.36972 41.6513C3.52151 41.4388 3.58223 41.1352 3.58223 40.7709V40.6798H2.18575V39.9512H3.61259V39.8905C3.61259 39.5262 3.55187 39.253 3.40008 39.0101C3.24829 38.7976 3.03578 38.6762 2.76255 38.6762C2.48933 38.6762 2.27682 38.7369 2.15539 38.8887C2.03396 39.0405 1.97324 39.253 1.97324 39.5566H1.03213ZM8.80385 42.6531H7.86274V40.7102H5.98053V42.6531H5.03942V38.0083H5.98053V40.012H7.86274V38.0083H8.80385V42.6531ZM12.0825 40.6191H10.3521V41.9549H12.3861V42.6835H9.41102V38.0387H12.3861V38.7673H10.3521V39.9209H12.0825V40.6191ZM13.7826 40.9834V42.6835H12.8415V38.0387H14.6326C15.1791 38.0387 15.5737 38.1601 15.9077 38.4333C16.2113 38.7065 16.3631 39.0708 16.3631 39.4959C16.3631 39.9209 16.2113 40.2852 15.9077 40.5584C15.6041 40.8316 15.1791 40.9531 14.6326 40.9531H13.7826V40.9834ZM13.7826 40.2548H14.6326C14.9059 40.2548 15.088 40.1941 15.2094 40.0423C15.3309 39.8905 15.422 39.7084 15.422 39.4959C15.422 39.2834 15.3612 39.1012 15.2094 38.9494C15.088 38.7976 14.8755 38.7369 14.6326 38.7369H13.7826V40.2548ZM19.7935 38.7369H17.6988V42.6531H16.7577V38.0083H19.7935V38.7369ZM22.8294 40.6191H21.0989V41.9549H23.133V42.6835H20.1578V38.0387H23.133V38.7673H21.0989V39.9209H22.8294V40.6191ZM26.8367 38.7369H25.5009V42.6531H24.5598V38.7369H23.2544V38.0083H26.8367V38.7369ZM29.9028 38.0083H30.844V42.6531H29.9028V39.5566H29.8725L27.9903 42.6531H27.0492V38.0083H27.9903V41.1048H28.0206L29.9028 38.0083ZM35.0334 38.0083V42.6531H34.0923V40.862C33.9405 40.8923 33.7887 40.9227 33.6066 40.9531C33.4244 40.9834 33.2726 40.9834 33.1512 40.9834C32.5744 40.9834 32.1494 40.862 31.8154 40.6191C31.5118 40.3763 31.36 39.9816 31.36 39.4655V38.0083H32.3012V39.4655C32.3012 39.7691 32.3619 39.9816 32.5137 40.103C32.6351 40.2245 32.878 40.2852 33.1815 40.2852C33.303 40.2852 33.4548 40.2852 33.6369 40.2548C33.8191 40.2245 33.9709 40.2245 34.1226 40.1637V38.0387H35.0334V38.0083ZM38.3121 40.6191H36.5817V41.9549H38.6157V42.6835H35.6406V38.0387H38.6157V38.7673H36.5817V39.9209H38.3121V40.6191ZM42.5622 41.1352C42.5622 41.6513 42.4408 42.046 42.1069 42.3192C41.8033 42.5924 41.3783 42.7442 40.8318 42.7442C40.2854 42.7442 39.83 42.562 39.4961 42.1977C39.1621 41.8334 38.98 41.3781 38.98 40.8013V39.8905C38.98 39.3137 39.1318 38.8583 39.4961 38.494C39.83 38.1297 40.255 37.9476 40.8015 37.9476C41.3783 37.9476 41.8033 38.0994 42.1372 38.3726C42.4712 38.6458 42.623 39.0405 42.5926 39.5262V39.5566H41.6819C41.6819 39.253 41.6211 39.0405 41.4694 38.8887C41.3176 38.7369 41.105 38.6762 40.8015 38.6762C40.5282 38.6762 40.3157 38.7976 40.1639 39.0101C40.0122 39.2226 39.9211 39.5262 39.9211 39.8905V40.8316C39.9211 41.1959 40.0122 41.4691 40.1639 41.712C40.3157 41.9245 40.5586 42.046 40.8622 42.046C41.1354 42.046 41.3479 41.9852 41.4997 41.8334C41.6515 41.6817 41.7122 41.4691 41.7122 41.1656H42.5622V41.1352ZM44.2623 40.7102H43.9284V42.6531H42.9873V38.0083H43.9284V39.9209H44.2016L45.4766 38.0083H46.6303L45.0213 40.1637L46.7517 42.6531H45.5374L44.2623 40.7102ZM49.3625 41.6513H47.8446L47.541 42.6531H46.5695L48.1482 38.0083H49.0893L50.6375 42.6531H49.6661L49.3625 41.6513ZM48.0875 40.9227H49.15L48.6339 39.2833H48.6035L48.0875 40.9227ZM51.3358 42.6531H50.334L51.3358 40.5888C51.0929 40.4673 50.9108 40.3155 50.7893 40.103C50.6679 39.8905 50.6072 39.678 50.6072 39.4048C50.6072 38.9798 50.759 38.6155 51.0626 38.3726C51.3661 38.1297 51.7912 38.0083 52.3073 38.0083H53.9162V42.6531H52.9751V40.862H52.1858L51.3358 42.6531ZM52.9751 38.7369H52.3073C52.0644 38.7369 51.8519 38.7976 51.7304 38.9191C51.609 39.0405 51.5179 39.2226 51.5179 39.4351C51.5179 39.6476 51.5787 39.8298 51.7304 39.9816C51.8822 40.1334 52.0644 40.1941 52.3073 40.1941H52.9751V38.7369ZM2.45897 46.9336H2.09467V48.8766H1.18392V44.2317H2.12503V46.1443H2.39825L3.6733 44.2317H4.82692L3.21793 46.3872L4.94835 48.8766H3.76438L2.45897 46.9336ZM10.17 46.964C10.17 47.5408 9.98782 47.9962 9.62352 48.3908C9.25922 48.7551 8.80385 48.9373 8.22704 48.9373C7.65024 48.9373 7.19486 48.7551 6.83056 48.3908C6.46626 48.0265 6.28411 47.5408 6.28411 46.964V46.1443C6.28411 45.5675 6.46626 45.1121 6.83056 44.7175C7.19486 44.3532 7.65024 44.171 8.22704 44.171C8.80385 44.171 9.25922 44.3532 9.62352 44.7175C9.98782 45.0818 10.17 45.5675 10.17 46.1443V46.964ZM9.25922 46.114C9.25922 45.7497 9.16815 45.4461 8.986 45.2336C8.80385 45.0211 8.56098 44.8996 8.22704 44.8996C7.92346 44.8996 7.68059 45.0211 7.49844 45.2336C7.31629 45.4461 7.22522 45.7497 7.22522 46.114V46.964C7.22522 47.3283 7.31629 47.6319 7.49844 47.8747C7.68059 48.1176 7.92346 48.2087 8.22704 48.2087C8.56098 48.2087 8.80385 48.0872 8.986 47.8747C9.16815 47.6319 9.25922 47.3283 9.25922 46.964V46.114ZM13.0237 47.1765V48.8766H12.0825V44.2317H13.8737C14.4201 44.2317 14.8148 44.3532 15.1487 44.6264C15.4523 44.8996 15.6041 45.2639 15.6041 45.6889C15.6041 46.114 15.4523 46.4783 15.1487 46.7515C14.8451 47.0247 14.4201 47.1461 13.8737 47.1461H13.0237V47.1765ZM13.0237 46.4783H13.8737C14.1469 46.4783 14.3291 46.4175 14.4505 46.2658C14.5719 46.114 14.663 45.9318 14.663 45.7193C14.663 45.5068 14.6023 45.3246 14.4505 45.1729C14.3291 45.0211 14.1165 44.9604 13.8737 44.9604H13.0237V46.4783ZM21.19 48.8766H20.2489V44.93H18.3667V48.8766H17.4256V44.2317H21.19V48.8766ZM26.9581 46.964C26.9581 47.5408 26.7759 47.9962 26.4116 48.3908C26.0473 48.7551 25.592 48.9373 25.0152 48.9373C24.4384 48.9373 23.983 48.7551 23.6187 48.3908C23.2544 48.0265 23.0722 47.5408 23.0722 46.964V46.1443C23.0722 45.5675 23.2544 45.1121 23.6187 44.7175C23.983 44.3532 24.4384 44.171 25.0152 44.171C25.592 44.171 26.0473 44.3532 26.4116 44.7175C26.7759 45.0818 26.9581 45.5675 26.9581 46.1443V46.964ZM26.0473 46.114C26.0473 45.7497 25.9563 45.4461 25.7741 45.2336C25.592 45.0211 25.3491 44.8996 25.0152 44.8996C24.7116 44.8996 24.4687 45.0211 24.2866 45.2336C24.1044 45.4461 24.0133 45.7497 24.0133 46.114V46.964C24.0133 47.3283 24.1044 47.6319 24.2866 47.8747C24.4687 48.1176 24.7116 48.2087 25.0152 48.2087C25.3491 48.2087 25.592 48.0872 25.7741 47.8747C25.9563 47.6319 26.0473 47.3283 26.0473 46.964V46.114ZM29.8118 47.1765V48.8766H28.8707V44.2317H30.6618C31.2083 44.2317 31.6029 44.3532 31.9368 44.6264C32.2404 44.8996 32.3922 45.2639 32.3922 45.6889C32.3922 46.114 32.2404 46.4783 31.9368 46.7515C31.6333 47.0247 31.2083 47.1461 30.6618 47.1461H29.8118V47.1765ZM29.8118 46.4783H30.6618C30.935 46.4783 31.1172 46.4175 31.2386 46.2658C31.36 46.114 31.4511 45.9318 31.4511 45.7193C31.4511 45.5068 31.3904 45.3246 31.2386 45.1729C31.1172 45.0211 30.9047 44.9604 30.6618 44.9604H29.8118V46.4783ZM36.0959 47.8747H34.578L34.2744 48.8766H33.303L34.8816 44.2317H35.8227L37.371 48.8766H36.3995L36.0959 47.8747ZM34.7905 47.1461H35.8531L35.337 45.5068H35.3066L34.7905 47.1461ZM38.9496 44.2317H39.8907V48.148H41.7729V44.2317H42.714V48.148H43.3212V49.9998H42.3801V48.8766H38.9193V44.2317H38.9496ZM47.9357 44.2317H48.8768V48.8766H47.9357V45.78H47.9053L46.0231 48.8766H45.082V44.2317H46.0231V47.3283H46.0534L47.9357 44.2317ZM51.3661 48.8766H50.3643L51.3661 46.8122C51.1233 46.6908 50.9411 46.539 50.8197 46.3265C50.6983 46.114 50.6375 45.9015 50.6375 45.6282C50.6375 45.2032 50.7893 44.8389 51.0929 44.596C51.3965 44.3532 51.8215 44.2317 52.3376 44.2317H53.9466V48.8766H53.0055V47.0854H52.2162L51.3661 48.8766ZM53.0055 44.93H52.3376C52.0947 44.93 51.8822 44.9907 51.7608 45.1121C51.6394 45.2336 51.5483 45.4157 51.5483 45.6282C51.5483 45.8407 51.609 46.0229 51.7608 46.1747C51.9126 46.3265 52.0947 46.3872 52.3376 46.3872H53.0055V44.93Z" fill="white"/>
<path d="M46.9946 24.8027L38.8586 14.5113V9.47178L46.5999 0.121433L54.1288 0L44.991 11.9004L54.6145 24.8331H46.9946V24.8027ZM38.8586 19.49L31.6637 27.7475H0V29.1136H30.4493H32.4834L38.8586 21.7972L45.1731 29.1136H47.0857H54.5842V27.7475H45.9017L38.8586 19.49ZM17.1524 9.77536H5.76807V5.76807H17.1524V0.121433H0V14.9363H17.1524V9.77536ZM24.742 24.8027C31.3601 24.5598 36.6121 19.1257 36.6121 12.4773C36.6121 9.25927 35.8531 6.2538 33.8495 4.06801C31.694 1.70006 28.1725 0.273224 24.742 0.151791H21.4633V5.76807H26.4117C28.6279 5.76807 30.419 7.55921 30.419 9.77536H21.4633V14.9363H30.419C30.419 17.1524 27.4742 18.9436 25.2884 18.9436H0V24.8331L24.742 24.8027Z" fill="white"/>
</svg>
