<svg width="204" height="50" viewBox="0 0 204 50" fill="none" xmlns="http://www.w3.org/2000/svg">
<path d="M49.8251 0H16.7549V33.0702H49.8251V0Z" fill="white"/>
<path d="M15.2634 35.6141V19.0352H7.10547V42.8071H30.8774V35.6141H15.2634Z" fill="white"/>
<path d="M4.47368 46.3157V35.9648H0V49.9999H14.0351V46.3157H4.47368Z" fill="white"/>
<path d="M79.9998 25.4384V18.4209L76.5787 24.2103H75.3507L71.9296 18.5963V25.4384H69.3857V13.7717H71.5787L75.9647 21.0524L80.2629 13.7717H82.4559V25.4384H79.9998Z" fill="white"/>
<path d="M91.842 17.3683C92.5438 18.07 92.9824 19.035 92.9824 20.3508V25.4385H90.5263V24.2981C89.9999 25.0876 89.1228 25.5262 87.807 25.5262C87.1052 25.5262 86.4912 25.4385 86.0526 25.1753C85.5263 24.9122 85.1754 24.649 84.9122 24.2104C84.6491 23.7718 84.4736 23.3332 84.4736 22.8069C84.4736 22.0174 84.8245 21.3157 85.4385 20.8771C86.0526 20.4385 87.0175 20.1753 88.3333 20.1753H90.4385C90.4385 19.649 90.2631 19.2104 89.9122 18.8595C89.5613 18.5964 89.035 18.4209 88.3333 18.4209C87.8947 18.4209 87.3684 18.5086 86.9298 18.6841C86.4912 18.8595 86.0526 19.035 85.7894 19.2981L84.8245 17.456C85.3508 17.1051 85.8771 16.842 86.5789 16.6665C87.2806 16.4911 87.9824 16.4034 88.6842 16.4034C90.0877 16.3157 91.1403 16.6665 91.842 17.3683ZM89.6491 23.5086C89.9999 23.3332 90.2631 22.9823 90.3508 22.6315V21.7543H88.5964C87.5438 21.7543 87.0175 22.1051 87.0175 22.8069C87.0175 23.1578 87.1052 23.4209 87.3684 23.5964C87.6315 23.7718 87.9824 23.8595 88.421 23.8595C88.9473 23.8595 89.2982 23.6841 89.6491 23.5086Z" fill="white"/>
<path d="M95.2627 16.491H97.8066V21.8419L102.193 16.491H104.561V25.4384H102.017V20.0875L97.6311 25.4384H95.2627V16.491ZM96.8416 12.8945H98.5083C98.5083 13.2454 98.596 13.5963 98.8592 13.7717C99.0346 13.9472 99.3855 14.1226 99.7364 14.1226C100.175 14.1226 100.438 14.0349 100.701 13.7717C100.877 13.5963 101.052 13.2454 101.052 12.8945H102.807C102.807 14.6489 101.842 15.4384 99.8241 15.4384C97.8066 15.5261 96.8416 14.6489 96.8416 12.8945Z" fill="white"/>
<path d="M111.053 22.0175H109.649V25.4386H107.018V16.4912H109.649V20H111.053L113.509 16.4912H116.316L113.158 20.7895L116.491 25.4386H113.421L111.053 22.0175Z" fill="white"/>
<path d="M126.228 16.4912L122.193 25.9649C121.754 27.0175 121.316 27.7193 120.702 28.1579C120.088 28.5965 119.386 28.7719 118.509 28.7719C118.07 28.7719 117.544 28.6842 117.105 28.5965C116.667 28.421 116.316 28.2456 115.965 27.9824L116.93 26.1403C117.105 26.3158 117.368 26.4912 117.632 26.5789C117.895 26.6666 118.158 26.7544 118.421 26.7544C118.772 26.7544 119.035 26.6667 119.298 26.4912C119.561 26.3158 119.737 26.0526 119.912 25.614V25.5263L116.053 16.4912H118.772L121.316 22.5438L123.86 16.4912H126.228Z" fill="white"/>
<path d="M134.824 17.6315C135.438 17.9824 135.965 18.5087 136.316 19.1227C136.667 19.7368 136.842 20.5262 136.842 21.3157C136.842 22.1929 136.667 22.8947 136.228 23.5964C135.789 24.2982 135.263 24.7368 134.474 25.0876C133.772 25.4385 132.895 25.614 131.93 25.614C130.351 25.614 129.123 25.0876 128.245 24.1227C127.368 23.1578 126.93 21.6666 126.93 19.7368C126.93 17.8947 127.281 16.4911 128.07 15.4385C128.86 14.3859 130.088 13.6841 131.667 13.3332L135.965 12.4561L136.316 14.649L132.544 15.4385C131.491 15.614 130.789 15.9648 130.263 16.4034C129.737 16.842 129.474 17.5438 129.386 18.421C129.737 17.9824 130.263 17.6315 130.789 17.4561C131.316 17.1929 131.93 17.1052 132.544 17.1052C133.509 17.1052 134.21 17.2806 134.824 17.6315ZM133.596 22.9824C134.035 22.5438 134.21 22.0175 134.21 21.3157C134.21 20.6139 134.035 20.0876 133.596 19.7368C133.158 19.3859 132.631 19.1227 132.017 19.1227C131.316 19.1227 130.789 19.2982 130.351 19.7368C129.912 20.1754 129.737 20.7017 129.737 21.3157C129.737 22.0175 129.912 22.5438 130.351 22.9824C130.789 23.421 131.316 23.5964 131.93 23.5964C132.631 23.5964 133.158 23.421 133.596 22.9824Z" fill="white"/>
<path d="M147.28 21.6666H140.526C140.614 22.1929 140.965 22.6315 141.403 22.9823C141.842 23.3332 142.456 23.5087 143.07 23.5087C143.509 23.5087 143.947 23.4209 144.298 23.3332C144.649 23.1578 145 22.9823 145.263 22.6315L146.666 24.1227C145.789 25.0876 144.561 25.6139 142.982 25.6139C141.93 25.6139 141.052 25.4385 140.263 24.9999C139.473 24.649 138.859 24.035 138.509 23.3332C138.07 22.6315 137.895 21.842 137.895 20.9648C137.895 20.0876 138.07 19.2981 138.509 18.5964C138.947 17.8946 139.473 17.3683 140.263 16.9297C141.052 16.4911 141.842 16.3157 142.719 16.3157C143.596 16.3157 144.386 16.4911 145.088 16.842C145.789 17.1929 146.316 17.7192 146.754 18.5087C147.193 19.2981 147.368 19.9999 147.368 20.9648C147.368 21.0525 147.368 21.228 147.28 21.6666ZM141.228 18.7718C140.789 19.1227 140.614 19.5613 140.526 20.1753H144.912C144.824 19.649 144.561 19.1227 144.21 18.8595C143.772 18.5087 143.333 18.3332 142.719 18.3332C142.105 18.3332 141.666 18.5087 141.228 18.7718Z" fill="white"/>
<path d="M149.386 16.4912H151.93V20H155.789V16.4912H158.421V25.4386H155.789V22.1052H151.93V25.4386H149.386V16.4912Z" fill="white"/>
<path d="M162.631 24.9999C161.842 24.649 161.315 24.035 160.877 23.3332C160.438 22.6315 160.263 21.842 160.263 20.9648C160.263 20.0876 160.438 19.2981 160.877 18.5964C161.315 17.8946 161.929 17.3683 162.631 16.9297C163.421 16.5788 164.21 16.3157 165.175 16.3157C166.14 16.3157 166.929 16.4911 167.631 16.9297C168.333 17.3683 168.859 17.8946 169.21 18.5964L167.193 19.649C166.754 18.8595 166.052 18.4209 165.175 18.4209C164.473 18.4209 163.947 18.6841 163.508 19.1227C163.07 19.5613 162.807 20.1753 162.807 20.9648C162.807 21.7543 163.07 22.3683 163.508 22.8069C163.947 23.2455 164.473 23.5087 165.175 23.5087C166.052 23.5087 166.754 23.0701 167.193 22.2806L169.21 23.4209C168.859 24.1227 168.333 24.649 167.631 25.0876C166.929 25.5262 166.14 25.7016 165.175 25.7016C164.21 25.6139 163.333 25.3508 162.631 24.9999Z" fill="white"/>
<path d="M174.736 22.0175H173.421V25.4386H170.789V16.4912H173.421V20H174.824L177.28 16.4912H180.087L176.929 20.7895L180.263 25.4386H177.193L174.736 22.0175Z" fill="white"/>
<path d="M181.491 16.4912H184.035V21.8421L188.421 16.4912H190.789V25.4386H188.246V20.0877L183.86 25.4386H181.491V16.4912Z" fill="white"/>
<path d="M193.245 16.491H195.789V21.8419L200.175 16.491H202.543V25.4384H200V20.0875L195.614 25.4384H193.245V16.491ZM194.824 12.8945H196.491C196.491 13.2454 196.578 13.5963 196.842 13.7717C197.017 13.9472 197.368 14.1226 197.719 14.1226C198.157 14.1226 198.421 14.0349 198.684 13.7717C198.859 13.5963 199.035 13.2454 199.035 12.8945H200.789C200.789 14.6489 199.824 15.4384 197.807 15.4384C195.789 15.5261 194.824 14.6489 194.824 12.8945Z" fill="white"/>
<path d="M75.8775 34.3857L72.281 42.6314C71.9301 43.4208 71.5792 43.9471 71.1406 44.2103C70.702 44.5612 70.1757 44.7366 69.5617 44.7366C69.2108 44.7366 68.8599 44.6489 68.509 44.5612C68.1582 44.4735 67.895 44.298 67.6318 44.0349L68.2459 42.9822C68.5968 43.3331 69.1231 43.5085 69.5617 43.5085C69.9125 43.5085 70.1757 43.4208 70.3511 43.2454C70.6143 43.07 70.7897 42.8068 70.9652 42.3682L71.2283 41.8419L67.895 34.3857H69.2985L71.9301 40.3507L74.5617 34.3857H75.8775Z" fill="white"/>
<path d="M82.8077 35.5261H78.6849V41.8419H77.3691V34.3857H82.8955V35.5261H82.8077Z" fill="white"/>
<path d="M90.0876 34.3856V41.8417H88.7718V35.5259H85.5262L85.4385 37.1926C85.3508 38.1575 85.2631 39.0347 85.1754 39.7364C84.9999 40.4382 84.8245 40.9645 84.5613 41.3154C84.2982 41.754 83.8596 41.9294 83.3332 41.9294C83.0701 41.9294 82.8069 41.9294 82.4561 41.8417L82.5438 40.7014C82.6315 40.7014 82.8069 40.7014 82.8947 40.7014C83.2455 40.7014 83.5964 40.5259 83.7718 40.175C83.9473 39.8242 84.1227 39.4733 84.1227 39.0347C84.2104 38.5961 84.2104 37.8943 84.2982 37.1049L84.3859 34.2979H90.0876V34.3856Z" fill="white"/>
<path d="M93.9474 41.491C93.3334 41.1401 92.8948 40.7015 92.5439 40.0875C92.193 39.4735 92.0176 38.8594 92.0176 38.1577C92.0176 37.4559 92.193 36.7542 92.5439 36.2278C92.8948 35.6138 93.3334 35.1752 93.9474 34.9121C94.5614 34.5612 95.1755 34.3857 95.9649 34.3857C96.7544 34.3857 97.3685 34.5612 97.9825 34.9121C98.5965 35.2629 99.0351 35.7015 99.386 36.2278C99.7369 36.8419 99.9123 37.4559 99.9123 38.1577C99.9123 38.8594 99.7369 39.5612 99.386 40.0875C99.0351 40.7015 98.5965 41.1401 97.9825 41.491C97.3685 41.8419 96.7544 42.0173 95.9649 42.0173C95.1755 42.0173 94.5614 41.7542 93.9474 41.491ZM97.2807 40.4384C97.6316 40.1752 97.9825 39.9121 98.1579 39.4735C98.3334 39.0349 98.5088 38.5963 98.5088 38.07C98.5088 37.5436 98.4211 37.105 98.1579 36.6664C97.9825 36.2278 97.6316 35.9647 97.2807 35.7015C96.9299 35.5261 96.4913 35.3507 95.9649 35.3507C95.4386 35.3507 95.0878 35.4384 94.6492 35.7015C94.2983 35.877 93.9474 36.2278 93.772 36.6664C93.5088 37.105 93.4211 37.5436 93.4211 38.07C93.4211 38.5963 93.5088 39.0349 93.772 39.4735C94.0351 39.9121 94.2983 40.1752 94.6492 40.4384C95 40.7015 95.4386 40.7893 95.9649 40.7893C96.4913 40.7893 96.8421 40.6138 97.2807 40.4384Z" fill="white"/>
<path d="M108.158 34.3856V41.8417H106.842V35.5259H103.597L103.509 37.1926C103.421 38.1575 103.333 39.0347 103.246 39.7364C103.07 40.4382 102.895 40.9645 102.632 41.3154C102.368 41.754 101.93 41.9294 101.404 41.9294C101.14 41.9294 100.877 41.9294 100.526 41.8417L100.614 40.7014C100.702 40.7014 100.877 40.7014 100.965 40.7014C101.316 40.7014 101.667 40.5259 101.842 40.175C102.018 39.8242 102.193 39.4733 102.193 39.0347C102.281 38.5961 102.281 37.8943 102.368 37.1049L102.456 34.2979H108.158V34.3856Z" fill="white"/>
<path d="M116.491 37.5435C117.017 37.9821 117.28 38.5961 117.28 39.2979C117.28 40.0873 117.017 40.7014 116.491 41.14C115.965 41.5786 115.175 41.754 114.123 41.754H110.877V34.2979H112.193V36.8417H114.298C115.263 36.9294 115.965 37.1049 116.491 37.5435ZM115.351 40.4382C115.702 40.175 115.789 39.8242 115.789 39.2979C115.789 38.7715 115.614 38.4207 115.351 38.2452C115.087 37.9821 114.561 37.8943 113.947 37.8943H112.193V40.8768H113.947C114.561 40.8768 115 40.7014 115.351 40.4382Z" fill="white"/>
<path d="M118.947 34.3857H120.263V37.5436H124.561V34.3857H125.877V41.8419H124.561V38.684H120.263V41.8419H118.947V34.3857Z" fill="white"/>
<path d="M134.123 37.5435C134.649 37.9821 134.912 38.5961 134.912 39.2979C134.912 40.0873 134.649 40.7014 134.123 41.14C133.597 41.5786 132.807 41.754 131.755 41.754H128.597V34.2979H129.912V36.8417H131.93C132.895 36.9294 133.597 37.1049 134.123 37.5435ZM132.983 40.4382C133.334 40.175 133.421 39.8242 133.421 39.2979C133.421 38.7715 133.246 38.4207 132.983 38.2452C132.632 37.9821 132.193 37.8943 131.579 37.8943H129.912V40.8768H131.579C132.281 40.8768 132.719 40.7014 132.983 40.4382ZM135.965 34.3856H137.281V41.8417H135.965V34.3856Z" fill="white"/>
<path d="M140 34.3858H141.316V39.8244L145.877 34.3858H147.105V41.8419H145.789V36.4033L141.228 41.8419H140V34.3858ZM141.842 32.8945C141.491 32.5437 141.228 32.1051 141.228 31.4033H142.105C142.105 31.7542 142.193 32.0174 142.456 32.2805C142.719 32.456 142.982 32.6314 143.421 32.6314C143.86 32.6314 144.123 32.5437 144.386 32.2805C144.649 32.0174 144.737 31.7542 144.737 31.4033H145.702C145.702 32.0174 145.526 32.5437 145.088 32.8945C144.649 33.2454 144.123 33.4209 143.421 33.4209C142.807 33.4209 142.281 33.2454 141.842 32.8945Z" fill="white"/>
<path d="M159.562 34.8242C160.176 35.175 160.614 35.6136 160.878 36.14C161.228 36.754 161.404 37.368 161.404 38.1575C161.404 38.947 161.228 39.561 160.878 40.175C160.527 40.7891 160.088 41.2277 159.562 41.4908C159.035 41.754 158.334 41.9294 157.632 41.9294C157.106 41.9294 156.579 41.8417 156.141 41.5786C155.702 41.4031 155.351 41.0522 155 40.7014V44.561H153.685V34.3856H155V35.6136C155.264 35.175 155.702 34.9119 156.141 34.6487C156.579 34.4733 157.106 34.2979 157.632 34.2979C158.334 34.2979 158.948 34.4733 159.562 34.8242ZM158.772 40.4382C159.123 40.175 159.474 39.9119 159.649 39.4733C159.913 39.0347 160 38.5961 160 38.0698C160 37.5435 159.913 37.1049 159.649 36.6663C159.386 36.2277 159.123 35.9645 158.772 35.7014C158.421 35.5259 157.983 35.3505 157.457 35.3505C157.018 35.3505 156.579 35.4382 156.141 35.7014C155.79 35.9645 155.439 36.2277 155.264 36.6663C155 37.1049 154.913 37.5435 154.913 38.0698C154.913 38.5961 155 39.0347 155.264 39.4733C155.439 39.9119 155.79 40.175 156.141 40.4382C156.492 40.7014 156.93 40.7891 157.457 40.7891C157.983 40.7891 158.421 40.6136 158.772 40.4382Z" fill="white"/>
<path d="M168.333 35.0873C168.86 35.6136 169.123 36.3153 169.123 37.368V41.9294H167.807V40.9645C167.544 41.3153 167.281 41.5785 166.842 41.7539C166.404 41.9294 165.965 42.0171 165.351 42.0171C164.474 42.0171 163.86 41.8417 163.333 41.4031C162.807 40.9645 162.544 40.4382 162.544 39.8241C162.544 39.1224 162.807 38.596 163.246 38.2452C163.684 37.8066 164.474 37.6311 165.526 37.6311H167.719V37.368C167.719 36.7539 167.544 36.3153 167.193 36.0522C166.842 35.789 166.316 35.6136 165.702 35.6136C165.263 35.6136 164.825 35.7013 164.386 35.789C163.947 35.9645 163.597 36.1399 163.333 36.4031L162.807 35.3504C163.158 34.9996 163.684 34.8241 164.211 34.6487C164.737 34.4732 165.351 34.3855 165.965 34.3855C166.93 34.2978 167.807 34.561 168.333 35.0873ZM166.93 40.5259C167.281 40.2627 167.544 39.9996 167.719 39.561V38.5083H165.614C164.474 38.5083 163.86 38.8592 163.86 39.6487C163.86 39.9996 164.035 40.3504 164.298 40.5259C164.561 40.7013 165 40.8767 165.526 40.8767C166.14 40.8767 166.579 40.789 166.93 40.5259Z" fill="white"/>
<path d="M176.667 38.5961C176.93 38.8593 177.105 39.2101 177.105 39.6487C177.105 40.0873 176.93 40.5259 176.667 40.7891C176.404 41.0522 175.965 41.4031 175.439 41.5786C174.913 41.754 174.298 41.8417 173.684 41.8417C173.158 41.8417 172.544 41.754 172.018 41.6663C171.491 41.4908 171.053 41.3154 170.614 41.0522L171.053 39.9996C171.404 40.2628 171.842 40.4382 172.281 40.5259C172.72 40.6136 173.246 40.7014 173.684 40.7014C174.298 40.7014 174.825 40.6136 175.176 40.3505C175.527 40.0873 175.79 39.8242 175.79 39.4733C175.79 39.1224 175.614 38.8593 175.351 38.6838C175.088 38.5084 174.649 38.4207 174.035 38.4207H172.632V37.4557H173.948C174.474 37.4557 174.825 37.368 175.176 37.1926C175.527 37.0172 175.614 36.754 175.614 36.4908C175.614 36.14 175.439 35.8768 175.088 35.7014C174.737 35.5259 174.298 35.4382 173.684 35.4382C172.983 35.4382 172.193 35.6136 171.316 36.0522L170.965 34.9996C171.842 34.561 172.807 34.2979 173.86 34.2979C174.474 34.2979 175 34.3856 175.527 34.561C176.053 34.7365 176.404 34.9996 176.667 35.2628C176.93 35.6136 177.105 35.9645 177.105 36.3154C177.105 36.6663 177.018 37.0172 176.755 37.2803C176.491 37.5435 176.141 37.8066 175.79 37.9821C176.053 38.0698 176.404 38.3329 176.667 38.5961Z" fill="white"/>
<path d="M185.088 34.8242C185.702 35.175 186.141 35.6136 186.404 36.14C186.755 36.754 186.93 37.368 186.93 38.1575C186.93 38.947 186.755 39.561 186.404 40.175C186.053 40.7891 185.614 41.2277 185.088 41.4908C184.562 41.754 183.86 41.9294 183.158 41.9294C182.632 41.9294 182.106 41.8417 181.667 41.5786C181.228 41.4031 180.878 41.0522 180.527 40.7014V44.561H179.211V34.3856H180.527V35.6136C180.79 35.175 181.228 34.9119 181.667 34.6487C182.106 34.4733 182.632 34.2979 183.158 34.2979C183.86 34.2979 184.474 34.4733 185.088 34.8242ZM184.299 40.4382C184.65 40.175 185 39.9119 185.176 39.4733C185.439 39.0347 185.527 38.5961 185.527 38.0698C185.527 37.5435 185.439 37.1049 185.176 36.6663C184.913 36.2277 184.65 35.9645 184.299 35.7014C183.948 35.5259 183.509 35.3505 182.983 35.3505C182.544 35.3505 182.106 35.4382 181.667 35.7014C181.316 35.9645 180.965 36.2277 180.79 36.6663C180.527 37.1049 180.439 37.5435 180.439 38.0698C180.439 38.5961 180.527 39.0347 180.79 39.4733C180.965 39.9119 181.316 40.175 181.667 40.4382C182.018 40.7014 182.457 40.7891 182.983 40.7891C183.509 40.7891 183.948 40.6136 184.299 40.4382Z" fill="white"/>
<path d="M195.615 38.5964H189.562C189.65 39.2982 189.913 39.8245 190.439 40.1754C190.966 40.614 191.58 40.7894 192.281 40.7894C193.159 40.7894 193.86 40.5262 194.474 39.9122L195.264 40.7894C194.913 41.228 194.474 41.4912 194.036 41.6666C193.597 41.842 192.983 42.0175 192.369 42.0175C191.58 42.0175 190.878 41.842 190.264 41.4912C189.65 41.1403 189.211 40.7017 188.86 40.0876C188.509 39.4736 188.334 38.8596 188.334 38.0701C188.334 37.3683 188.509 36.6666 188.86 36.1403C189.211 35.5262 189.65 35.0876 190.176 34.7368C190.702 34.3859 191.404 34.2104 192.106 34.2104C192.808 34.2104 193.422 34.3859 194.036 34.7368C194.562 35.0876 195.001 35.5262 195.352 36.1403C195.702 36.7543 195.79 37.3683 195.79 38.1578C195.615 38.2455 195.615 38.421 195.615 38.5964ZM190.352 36.0526C189.913 36.4911 189.65 36.9297 189.562 37.6315H194.387C194.299 37.0175 194.036 36.4911 193.597 36.0526C193.159 35.614 192.632 35.4385 191.93 35.4385C191.229 35.4385 190.79 35.614 190.352 36.0526Z" fill="white"/>
<path d="M202.808 38.5961C203.071 38.8593 203.246 39.2101 203.246 39.6487C203.246 40.0873 203.071 40.5259 202.808 40.7891C202.544 41.0522 202.106 41.4031 201.579 41.5786C201.053 41.754 200.439 41.8417 199.825 41.8417C199.299 41.8417 198.685 41.754 198.158 41.6663C197.632 41.4908 197.193 41.3154 196.755 41.0522L197.193 39.9996C197.544 40.2628 197.983 40.4382 198.422 40.5259C198.86 40.6136 199.386 40.7014 199.825 40.7014C200.439 40.7014 200.965 40.6136 201.316 40.3505C201.667 40.0873 201.93 39.8242 201.93 39.4733C201.93 39.1224 201.755 38.8593 201.492 38.6838C201.229 38.5084 200.79 38.4207 200.176 38.4207H198.772V37.4557H200.088C200.615 37.4557 200.965 37.368 201.316 37.1926C201.667 37.0172 201.755 36.754 201.755 36.4908C201.755 36.14 201.579 35.8768 201.229 35.7014C200.878 35.5259 200.439 35.4382 199.825 35.4382C199.123 35.4382 198.334 35.6136 197.457 36.0522L197.106 34.9996C197.983 34.561 198.948 34.2979 200 34.2979C200.615 34.2979 201.141 34.3856 201.667 34.561C202.193 34.7365 202.544 34.9996 202.808 35.2628C203.071 35.6136 203.246 35.9645 203.246 36.3154C203.246 36.6663 203.158 37.0172 202.895 37.2803C202.632 37.5435 202.281 37.8066 201.93 37.9821C202.193 38.0698 202.544 38.3329 202.808 38.5961Z" fill="white"/>
</svg>
