<svg width="203" height="50" viewBox="0 0 203 50" fill="none" xmlns="http://www.w3.org/2000/svg">
<path d="M77.2797 33.9448L73.6235 42.2387C73.3011 43.007 72.9217 43.5476 72.4854 43.8605C72.0586 44.1735 71.5418 44.33 70.9348 44.33C70.5649 44.33 70.2045 44.2684 69.8536 44.1451C69.5121 44.0312 69.2276 43.8605 69 43.6329L69.5833 42.6086C69.9721 42.9785 70.4226 43.1634 70.9348 43.1634C71.2667 43.1634 71.5418 43.0733 71.7599 42.8931C71.9875 42.7224 72.1914 42.4237 72.3716 41.9969L72.6135 41.4705L69.2845 33.9448H70.7072L73.339 39.9768L75.9424 33.9448H77.2797Z" fill="white"/>
<path d="M84.2262 35.1398H80.0437V41.4847H78.678V33.9448H84.2262V35.1398Z" fill="white"/>
<path d="M88.5203 41.5701C87.7711 41.5701 87.0977 41.4041 86.5002 41.0722C85.9027 40.7402 85.4332 40.285 85.0918 39.7065C84.7598 39.1184 84.5939 38.4546 84.5939 37.7148C84.5939 36.975 84.7598 36.3159 85.0918 35.7373C85.4332 35.1493 85.9027 34.6941 86.5002 34.3716C87.0977 34.0397 87.7711 33.8737 88.5203 33.8737C89.2696 33.8737 89.9382 34.0397 90.5262 34.3716C91.1237 34.6941 91.5884 35.1493 91.9204 35.7373C92.2618 36.3159 92.4325 36.975 92.4325 37.7148C92.4325 38.4546 92.2618 39.1184 91.9204 39.7065C91.5884 40.285 91.1237 40.7402 90.5262 41.0722C89.9382 41.4041 89.2696 41.5701 88.5203 41.5701ZM88.5203 40.3751C89.004 40.3751 89.4355 40.266 89.8149 40.0479C90.2037 39.8203 90.5072 39.5073 90.7254 39.109C90.9435 38.7011 91.0526 38.2364 91.0526 37.7148C91.0526 37.1932 90.9435 36.7332 90.7254 36.3348C90.5072 35.927 90.2037 35.614 89.8149 35.3959C89.4355 35.1778 89.004 35.0687 88.5203 35.0687C88.0366 35.0687 87.6003 35.1778 87.2115 35.3959C86.8321 35.614 86.5286 35.927 86.301 36.3348C86.0829 36.7332 85.9738 37.1932 85.9738 37.7148C85.9738 38.2364 86.0829 38.7011 86.301 39.109C86.5286 39.5073 86.8321 39.8203 87.2115 40.0479C87.6003 40.266 88.0366 40.3751 88.5203 40.3751Z" fill="white"/>
<path d="M100.822 33.9448V41.4847H99.4563V35.1398H96.2127L96.1274 36.8185C96.0799 37.8333 95.9898 38.6822 95.8571 39.365C95.7243 40.0384 95.5061 40.579 95.2026 40.9868C94.8992 41.3946 94.4771 41.5986 93.9365 41.5986C93.6899 41.5986 93.4101 41.5559 93.0972 41.4705L93.1825 40.3182C93.3058 40.3466 93.4196 40.3609 93.5239 40.3609C93.9033 40.3609 94.1878 40.1949 94.3775 39.863C94.5672 39.531 94.6905 39.1374 94.7474 38.6822C94.8043 38.2269 94.8565 37.5773 94.9039 36.7332L95.0319 33.9448H100.822Z" fill="white"/>
<path d="M106.948 36.5056C107.906 36.515 108.636 36.7332 109.139 37.16C109.642 37.5868 109.893 38.189 109.893 38.9667C109.893 39.7823 109.618 40.413 109.068 40.8588C108.527 41.2951 107.75 41.5085 106.735 41.499L103.463 41.4847V33.9448H104.828V36.4913L106.948 36.5056ZM106.621 40.4605C107.237 40.4699 107.702 40.3466 108.015 40.0906C108.338 39.8345 108.499 39.4551 108.499 38.9525C108.499 38.4593 108.342 38.0989 108.029 37.8713C107.726 37.6437 107.256 37.5251 106.621 37.5156L104.828 37.4872V40.4462L106.621 40.4605Z" fill="white"/>
<path d="M111.646 33.9448H113.011V37.1457H117.308V33.9448H118.673V41.4847H117.308V38.3265H113.011V41.4847H111.646V33.9448Z" fill="white"/>
<path d="M124.729 36.5056C125.677 36.515 126.403 36.7332 126.906 37.16C127.408 37.5868 127.66 38.189 127.66 38.9667C127.66 39.7823 127.385 40.413 126.834 40.8588C126.294 41.2951 125.516 41.5085 124.501 41.499L121.329 41.4847V33.9448H122.695V36.4913L124.729 36.5056ZM128.783 33.9448H130.149V41.4847H128.783V33.9448ZM124.402 40.4605C125.018 40.4699 125.483 40.3466 125.796 40.0906C126.118 39.8345 126.28 39.4551 126.28 38.9525C126.28 38.4593 126.123 38.0989 125.81 37.8713C125.497 37.6437 125.028 37.5251 124.402 37.5156L122.695 37.4872V40.4462L124.402 40.4605Z" fill="white"/>
<path d="M132.804 33.9448H134.17V39.4362L138.794 33.9448H140.031V41.4847H138.666V35.9934L134.056 41.4847H132.804V33.9448ZM136.333 32.9632C135.631 32.9632 135.085 32.7973 134.697 32.4653C134.308 32.1239 134.108 31.6354 134.099 31H135.024C135.033 31.3509 135.152 31.6354 135.379 31.8536C135.616 32.0622 135.929 32.1666 136.318 32.1666C136.707 32.1666 137.02 32.0622 137.257 31.8536C137.494 31.6354 137.618 31.3509 137.627 31H138.58C138.571 31.6354 138.367 32.1239 137.969 32.4653C137.57 32.7973 137.025 32.9632 136.333 32.9632Z" fill="white"/>
<path d="M150.5 33.8737C151.231 33.8737 151.885 34.0349 152.464 34.3574C153.042 34.6799 153.493 35.1304 153.815 35.7089C154.147 36.2874 154.313 36.9561 154.313 37.7148C154.313 38.4735 154.147 39.1469 153.815 39.7349C153.493 40.3135 153.042 40.764 152.464 41.0864C151.885 41.4089 151.231 41.5701 150.5 41.5701C149.96 41.5701 149.462 41.4658 149.007 41.2571C148.561 41.0485 148.181 40.745 147.868 40.3466V44.2446H146.503V33.9448H147.812V35.1398C148.115 34.7225 148.499 34.4096 148.964 34.2009C149.429 33.9828 149.941 33.8737 150.5 33.8737ZM150.387 40.3751C150.87 40.3751 151.302 40.266 151.681 40.0479C152.07 39.8203 152.373 39.5073 152.592 39.109C152.819 38.7011 152.933 38.2364 152.933 37.7148C152.933 37.1932 152.819 36.7332 152.592 36.3348C152.373 35.927 152.07 35.614 151.681 35.3959C151.302 35.1778 150.87 35.0687 150.387 35.0687C149.912 35.0687 149.481 35.1825 149.092 35.4101C148.713 35.6283 148.409 35.9365 148.181 36.3348C147.963 36.7332 147.854 37.1932 147.854 37.7148C147.854 38.2364 147.963 38.7011 148.181 39.109C148.4 39.5073 148.703 39.8203 149.092 40.0479C149.481 40.266 149.912 40.3751 150.387 40.3751Z" fill="white"/>
<path d="M158.916 33.8737C159.96 33.8737 160.756 34.1298 161.306 34.6419C161.866 35.1541 162.146 35.9175 162.146 36.9323V41.4847H160.851V40.4889C160.624 40.8398 160.296 41.1101 159.87 41.2998C159.452 41.48 158.954 41.5701 158.376 41.5701C157.532 41.5701 156.854 41.3662 156.342 40.9584C155.839 40.5506 155.588 40.0147 155.588 39.3508C155.588 38.6869 155.829 38.1558 156.313 37.7575C156.797 37.3497 157.565 37.1457 158.618 37.1457H160.78V36.8754C160.78 36.2874 160.609 35.8369 160.268 35.5239C159.927 35.211 159.424 35.0545 158.76 35.0545C158.314 35.0545 157.878 35.1304 157.451 35.2821C157.024 35.4244 156.664 35.6188 156.37 35.8654L155.801 34.8411C156.19 34.5281 156.655 34.291 157.195 34.1298C157.736 33.9591 158.309 33.8737 158.916 33.8737ZM158.603 40.5174C159.125 40.5174 159.576 40.4036 159.955 40.1759C160.334 39.9388 160.609 39.6069 160.78 39.1801V38.1274H158.675C157.518 38.1274 156.939 38.5162 156.939 39.2939C156.939 39.6733 157.086 39.972 157.38 40.1902C157.674 40.4083 158.082 40.5174 158.603 40.5174Z" fill="white"/>
<path d="M168.563 37.5583C169.066 37.6911 169.454 37.9045 169.73 38.1985C170.005 38.4925 170.142 38.8576 170.142 39.2939C170.142 39.7397 169.99 40.138 169.687 40.4889C169.383 40.8303 168.961 41.1006 168.421 41.2998C167.89 41.4895 167.292 41.5843 166.628 41.5843C166.069 41.5843 165.519 41.5132 164.978 41.3709C164.447 41.2192 163.973 41.0058 163.555 40.7308L163.968 39.6922C164.328 39.9199 164.741 40.1001 165.206 40.2328C165.67 40.3561 166.14 40.4178 166.614 40.4178C167.259 40.4178 167.771 40.3087 168.15 40.0906C168.539 39.863 168.734 39.5595 168.734 39.1801C168.734 38.8292 168.577 38.5589 168.264 38.3692C167.961 38.1795 167.529 38.0847 166.97 38.0847H165.59V37.1031H166.87C167.382 37.1031 167.785 37.013 168.079 36.8328C168.373 36.6526 168.52 36.406 168.52 36.093C168.52 35.7516 168.345 35.486 167.994 35.2963C167.652 35.1066 167.188 35.0118 166.6 35.0118C165.851 35.0118 165.059 35.2062 164.224 35.5951L163.854 34.5423C164.774 34.0776 165.737 33.8453 166.742 33.8453C167.349 33.8453 167.894 33.9306 168.378 34.1013C168.862 34.272 169.241 34.5139 169.516 34.8269C169.791 35.1398 169.929 35.4955 169.929 35.8938C169.929 36.2637 169.805 36.5957 169.559 36.8897C169.312 37.1837 168.98 37.4066 168.563 37.5583Z" fill="white"/>
<path d="M176.216 33.8737C176.946 33.8737 177.601 34.0349 178.179 34.3574C178.758 34.6799 179.208 35.1304 179.531 35.7089C179.863 36.2874 180.029 36.9561 180.029 37.7148C180.029 38.4735 179.863 39.1469 179.531 39.7349C179.208 40.3135 178.758 40.764 178.179 41.0864C177.601 41.4089 176.946 41.5701 176.216 41.5701C175.675 41.5701 175.177 41.4658 174.722 41.2571C174.276 41.0485 173.897 40.745 173.584 40.3466V44.2446H172.218V33.9448H173.527V35.1398C173.831 34.7225 174.215 34.4096 174.679 34.2009C175.144 33.9828 175.656 33.8737 176.216 33.8737ZM176.102 40.3751C176.586 40.3751 177.017 40.266 177.397 40.0479C177.786 39.8203 178.089 39.5073 178.307 39.109C178.535 38.7011 178.649 38.2364 178.649 37.7148C178.649 37.1932 178.535 36.7332 178.307 36.3348C178.089 35.927 177.786 35.614 177.397 35.3959C177.017 35.1778 176.586 35.0687 176.102 35.0687C175.628 35.0687 175.196 35.1825 174.808 35.4101C174.428 35.6283 174.125 35.9365 173.897 36.3348C173.679 36.7332 173.57 37.1932 173.57 37.7148C173.57 38.2364 173.679 38.7011 173.897 39.109C174.115 39.5073 174.419 39.8203 174.808 40.0479C175.196 40.266 175.628 40.3751 176.102 40.3751Z" fill="white"/>
<path d="M188.827 37.7575C188.827 37.8618 188.818 37.9993 188.799 38.17H182.681C182.767 38.8339 183.056 39.3698 183.549 39.7776C184.052 40.1759 184.673 40.3751 185.413 40.3751C186.314 40.3751 187.039 40.0716 187.589 39.4646L188.343 40.3466C188.002 40.745 187.575 41.0485 187.063 41.2571C186.56 41.4658 185.996 41.5701 185.37 41.5701C184.574 41.5701 183.867 41.4089 183.25 41.0864C182.634 40.7545 182.155 40.2945 181.814 39.7065C181.482 39.1184 181.316 38.4546 181.316 37.7148C181.316 36.9845 181.477 36.3254 181.799 35.7373C182.131 35.1493 182.582 34.6941 183.151 34.3716C183.729 34.0397 184.379 33.8737 185.1 33.8737C185.821 33.8737 186.461 34.0397 187.02 34.3716C187.589 34.6941 188.031 35.1493 188.343 35.7373C188.666 36.3254 188.827 36.9987 188.827 37.7575ZM185.1 35.026C184.445 35.026 183.895 35.2252 183.45 35.6235C183.013 36.0219 182.757 36.5435 182.681 37.1884H187.518C187.442 36.553 187.182 36.0361 186.736 35.6378C186.3 35.2299 185.754 35.026 185.1 35.026Z" fill="white"/>
<path d="M194.862 37.5583C195.365 37.6911 195.754 37.9045 196.029 38.1985C196.304 38.4925 196.441 38.8576 196.441 39.2939C196.441 39.7397 196.289 40.138 195.986 40.4889C195.682 40.8303 195.26 41.1006 194.72 41.2998C194.189 41.4895 193.591 41.5843 192.927 41.5843C192.368 41.5843 191.818 41.5132 191.277 41.3709C190.746 41.2192 190.272 41.0058 189.854 40.7308L190.267 39.6922C190.627 39.9199 191.04 40.1001 191.505 40.2328C191.969 40.3561 192.439 40.4178 192.913 40.4178C193.558 40.4178 194.07 40.3087 194.45 40.0906C194.838 39.863 195.033 39.5595 195.033 39.1801C195.033 38.8292 194.876 38.5589 194.563 38.3692C194.26 38.1795 193.828 38.0847 193.269 38.0847H191.889V37.1031H193.169C193.681 37.1031 194.084 37.013 194.378 36.8328C194.672 36.6526 194.819 36.406 194.819 36.093C194.819 35.7516 194.644 35.486 194.293 35.2963C193.952 35.1066 193.487 35.0118 192.899 35.0118C192.15 35.0118 191.358 35.2062 190.523 35.5951L190.153 34.5423C191.073 34.0776 192.036 33.8453 193.041 33.8453C193.648 33.8453 194.193 33.9306 194.677 34.1013C195.161 34.272 195.54 34.5139 195.815 34.8269C196.09 35.1398 196.228 35.4955 196.228 35.8938C196.228 36.2637 196.105 36.5957 195.858 36.8897C195.611 37.1837 195.279 37.4066 194.862 37.5583Z" fill="white"/>
<path d="M49.8251 0H16.7549V33.0702H49.8251V0Z" fill="white"/>
<path d="M15.2634 35.6141V19.0352H7.10547V42.8071H30.8774V35.6141H15.2634Z" fill="white"/>
<path d="M4.47368 46.3157V35.9648H0V49.9999H14.0351V46.3157H4.47368Z" fill="white"/>
<path d="M79.9998 25.4384V18.4209L76.5787 24.2103H75.3507L71.9296 18.5963V25.4384H69.3857V13.7717H71.5787L75.9647 21.0524L80.2629 13.7717H82.4559V25.4384H79.9998Z" fill="white"/>
<path d="M91.842 17.3683C92.5438 18.07 92.9824 19.035 92.9824 20.3508V25.4385H90.5263V24.2981C89.9999 25.0876 89.1228 25.5262 87.807 25.5262C87.1052 25.5262 86.4912 25.4385 86.0526 25.1753C85.5263 24.9122 85.1754 24.649 84.9122 24.2104C84.6491 23.7718 84.4736 23.3332 84.4736 22.8069C84.4736 22.0174 84.8245 21.3157 85.4385 20.8771C86.0526 20.4385 87.0175 20.1753 88.3333 20.1753H90.4385C90.4385 19.649 90.2631 19.2104 89.9122 18.8595C89.5613 18.5964 89.035 18.4209 88.3333 18.4209C87.8947 18.4209 87.3684 18.5086 86.9298 18.6841C86.4912 18.8595 86.0526 19.035 85.7894 19.2981L84.8245 17.456C85.3508 17.1051 85.8771 16.842 86.5789 16.6665C87.2806 16.4911 87.9824 16.4034 88.6842 16.4034C90.0877 16.3157 91.1403 16.6665 91.842 17.3683ZM89.6491 23.5086C89.9999 23.3332 90.2631 22.9823 90.3508 22.6315V21.7543H88.5964C87.5438 21.7543 87.0175 22.1051 87.0175 22.8069C87.0175 23.1578 87.1052 23.4209 87.3684 23.5964C87.6315 23.7718 87.9824 23.8595 88.421 23.8595C88.9473 23.8595 89.2982 23.6841 89.6491 23.5086Z" fill="white"/>
<path d="M95.2627 16.491H97.8066V21.8419L102.193 16.491H104.561V25.4384H102.017V20.0875L97.6311 25.4384H95.2627V16.491ZM96.8416 12.8945H98.5083C98.5083 13.2454 98.596 13.5963 98.8592 13.7717C99.0346 13.9472 99.3855 14.1226 99.7364 14.1226C100.175 14.1226 100.438 14.0349 100.701 13.7717C100.877 13.5963 101.052 13.2454 101.052 12.8945H102.807C102.807 14.6489 101.842 15.4384 99.8241 15.4384C97.8066 15.5261 96.8416 14.6489 96.8416 12.8945Z" fill="white"/>
<path d="M111.053 22.0175H109.649V25.4386H107.018V16.4912H109.649V20H111.053L113.509 16.4912H116.316L113.158 20.7895L116.491 25.4386H113.421L111.053 22.0175Z" fill="white"/>
<path d="M126.228 16.4912L122.193 25.9649C121.754 27.0175 121.316 27.7193 120.702 28.1579C120.088 28.5965 119.386 28.7719 118.509 28.7719C118.07 28.7719 117.544 28.6842 117.105 28.5965C116.667 28.421 116.316 28.2456 115.965 27.9824L116.93 26.1403C117.105 26.3158 117.368 26.4912 117.632 26.5789C117.895 26.6666 118.158 26.7544 118.421 26.7544C118.772 26.7544 119.035 26.6667 119.298 26.4912C119.561 26.3158 119.737 26.0526 119.912 25.614V25.5263L116.053 16.4912H118.772L121.316 22.5438L123.86 16.4912H126.228Z" fill="white"/>
<path d="M134.824 17.6315C135.438 17.9824 135.965 18.5087 136.316 19.1227C136.667 19.7368 136.842 20.5262 136.842 21.3157C136.842 22.1929 136.667 22.8947 136.228 23.5964C135.789 24.2982 135.263 24.7368 134.474 25.0876C133.772 25.4385 132.895 25.614 131.93 25.614C130.351 25.614 129.123 25.0876 128.245 24.1227C127.368 23.1578 126.93 21.6666 126.93 19.7368C126.93 17.8947 127.281 16.4911 128.07 15.4385C128.86 14.3859 130.088 13.6841 131.667 13.3332L135.965 12.4561L136.316 14.649L132.544 15.4385C131.491 15.614 130.789 15.9648 130.263 16.4034C129.737 16.842 129.474 17.5438 129.386 18.421C129.737 17.9824 130.263 17.6315 130.789 17.4561C131.316 17.1929 131.93 17.1052 132.544 17.1052C133.509 17.1052 134.21 17.2806 134.824 17.6315ZM133.596 22.9824C134.035 22.5438 134.21 22.0175 134.21 21.3157C134.21 20.6139 134.035 20.0876 133.596 19.7368C133.158 19.3859 132.631 19.1227 132.017 19.1227C131.316 19.1227 130.789 19.2982 130.351 19.7368C129.912 20.1754 129.737 20.7017 129.737 21.3157C129.737 22.0175 129.912 22.5438 130.351 22.9824C130.789 23.421 131.316 23.5964 131.93 23.5964C132.631 23.5964 133.158 23.421 133.596 22.9824Z" fill="white"/>
<path d="M147.28 21.6666H140.526C140.614 22.1929 140.965 22.6315 141.403 22.9823C141.842 23.3332 142.456 23.5087 143.07 23.5087C143.509 23.5087 143.947 23.4209 144.298 23.3332C144.649 23.1578 145 22.9823 145.263 22.6315L146.666 24.1227C145.789 25.0876 144.561 25.6139 142.982 25.6139C141.93 25.6139 141.052 25.4385 140.263 24.9999C139.473 24.649 138.859 24.035 138.509 23.3332C138.07 22.6315 137.895 21.842 137.895 20.9648C137.895 20.0876 138.07 19.2981 138.509 18.5964C138.947 17.8946 139.473 17.3683 140.263 16.9297C141.052 16.4911 141.842 16.3157 142.719 16.3157C143.596 16.3157 144.386 16.4911 145.088 16.842C145.789 17.1929 146.316 17.7192 146.754 18.5087C147.193 19.2981 147.368 19.9999 147.368 20.9648C147.368 21.0525 147.368 21.228 147.28 21.6666ZM141.228 18.7718C140.789 19.1227 140.614 19.5613 140.526 20.1753H144.912C144.824 19.649 144.561 19.1227 144.21 18.8595C143.772 18.5087 143.333 18.3332 142.719 18.3332C142.105 18.3332 141.666 18.5087 141.228 18.7718Z" fill="white"/>
<path d="M149.386 16.4912H151.93V20H155.789V16.4912H158.421V25.4386H155.789V22.1052H151.93V25.4386H149.386V16.4912Z" fill="white"/>
<path d="M162.631 24.9999C161.842 24.649 161.315 24.035 160.877 23.3332C160.438 22.6315 160.263 21.842 160.263 20.9648C160.263 20.0876 160.438 19.2981 160.877 18.5964C161.315 17.8946 161.929 17.3683 162.631 16.9297C163.421 16.5788 164.21 16.3157 165.175 16.3157C166.14 16.3157 166.929 16.4911 167.631 16.9297C168.333 17.3683 168.859 17.8946 169.21 18.5964L167.193 19.649C166.754 18.8595 166.052 18.4209 165.175 18.4209C164.473 18.4209 163.947 18.6841 163.508 19.1227C163.07 19.5613 162.807 20.1753 162.807 20.9648C162.807 21.7543 163.07 22.3683 163.508 22.8069C163.947 23.2455 164.473 23.5087 165.175 23.5087C166.052 23.5087 166.754 23.0701 167.193 22.2806L169.21 23.4209C168.859 24.1227 168.333 24.649 167.631 25.0876C166.929 25.5262 166.14 25.7016 165.175 25.7016C164.21 25.6139 163.333 25.3508 162.631 24.9999Z" fill="white"/>
<path d="M174.736 22.0175H173.421V25.4386H170.789V16.4912H173.421V20H174.824L177.28 16.4912H180.087L176.929 20.7895L180.263 25.4386H177.193L174.736 22.0175Z" fill="white"/>
<path d="M181.491 16.4912H184.035V21.8421L188.421 16.4912H190.789V25.4386H188.246V20.0877L183.86 25.4386H181.491V16.4912Z" fill="white"/>
<path d="M193.245 16.491H195.789V21.8419L200.175 16.491H202.543V25.4384H200V20.0875L195.614 25.4384H193.245V16.491ZM194.824 12.8945H196.491C196.491 13.2454 196.578 13.5963 196.842 13.7717C197.017 13.9472 197.368 14.1226 197.719 14.1226C198.157 14.1226 198.421 14.0349 198.684 13.7717C198.859 13.5963 199.035 13.2454 199.035 12.8945H200.789C200.789 14.6489 199.824 15.4384 197.807 15.4384C195.789 15.5261 194.824 14.6489 194.824 12.8945Z" fill="white"/>
</svg>
