<svg width="121" height="50" viewBox="0 0 121 50" fill="none" xmlns="http://www.w3.org/2000/svg">
<path d="M1.70296 49.2787C1.57197 49.6722 1.30997 49.9345 0.851481 49.9345C0.392991 49.9345 0 49.6722 0 49.2131C0 48.9508 0.196496 48.5573 0.261994 48.3606L4.6504 36.8186C4.84689 36.2283 5.23988 35.7693 5.89487 35.7693C6.54986 35.7693 6.94285 36.2283 7.13934 36.8186L11.4622 48.3606C11.5277 48.5573 11.7242 49.0164 11.7242 49.2131C11.7242 49.6722 11.3313 49.9345 10.8728 49.9345C10.4143 49.9345 10.1523 49.6722 10.0213 49.2787L9.1043 46.7867H2.61994L1.70296 49.2787ZM5.89487 37.7367L3.14393 45.2783H8.58031L5.89487 37.7367Z" fill="white"/>
<path d="M12.9688 40.163C12.9688 39.5728 13.2962 39.2449 13.8202 39.2449C14.3442 39.2449 14.6717 39.5728 14.6717 40.163V41.0155H14.7372C15.1302 40.2286 16.1127 39.2449 17.0952 39.2449C17.6846 39.2449 18.0776 39.6384 18.0776 40.0974C18.0776 40.5565 17.7501 40.8844 17.0297 41.0155C15.9817 41.2123 14.7372 41.9336 14.7372 43.9666V48.8851C14.7372 49.4753 14.4097 49.8032 13.8857 49.8032C13.3617 49.8032 13.0342 49.4753 13.0342 48.8851V40.163H12.9688Z" fill="white"/>
<path d="M23.3829 39.2449C25.1514 39.2449 26.1993 39.8351 26.1993 40.5565C26.1993 40.8844 25.9373 41.2778 25.4788 41.2778C24.8239 41.2778 24.5619 40.7532 23.3829 40.7532C21.2214 40.7532 20.4355 42.8518 20.4355 44.5568C20.4355 46.3275 21.2869 48.3605 23.3829 48.3605C24.6274 48.3605 24.8894 47.7702 25.4788 47.7702C25.8718 47.7702 26.1338 48.0326 26.1338 48.4916C26.1338 49.1474 25.1514 49.8688 23.3829 49.8688C20.239 49.8688 18.667 47.3112 18.667 44.5568C18.667 41.8025 20.1735 39.2449 23.3829 39.2449Z" fill="white"/>
<path d="M28.8846 45.2783C28.8846 47.0489 29.9981 48.4261 31.963 48.4261C34.2555 48.4261 34.845 47.0489 35.5 47.0489C35.8274 47.0489 36.1549 47.3112 36.1549 47.8359C36.1549 48.6884 33.9935 50 31.963 50C28.6226 50 27.1816 47.4424 27.1816 44.6881C27.1816 41.8681 28.9501 39.3761 31.832 39.3761C34.6485 39.3761 36.2859 41.9337 36.2859 44.4257C36.2859 45.016 36.0894 45.3439 35.3035 45.3439H28.8846V45.2783ZM34.583 43.9667C34.583 42.4583 33.7315 40.7533 31.832 40.7533C29.6706 40.6877 28.9501 42.3928 28.8846 43.9667H34.583Z" fill="white"/>
<path d="M39.6922 49.0162C39.6922 49.6065 39.3647 49.9344 38.8407 49.9344C38.3168 49.9344 37.9893 49.6065 37.9893 49.0162V35.5724C37.9893 34.9822 38.3168 34.6543 38.8407 34.6543C39.3647 34.6543 39.6922 34.9822 39.6922 35.5724V49.0162Z" fill="white"/>
<path d="M46.0458 39.2449C48.9933 39.2449 50.6307 41.8025 50.6307 44.5568C50.6307 47.3112 48.9933 49.8688 46.0458 49.8688C43.0984 49.8688 41.4609 47.3112 41.4609 44.5568C41.4609 41.8025 43.1639 39.2449 46.0458 39.2449ZM46.0458 48.426C48.1418 48.426 48.9278 46.3275 48.9278 44.6224C48.9278 42.8518 48.2073 40.8188 46.0458 40.8188C43.9499 40.8188 43.1639 42.9173 43.1639 44.6224C43.2294 46.3275 43.9499 48.426 46.0458 48.426Z" fill="white"/>
<path d="M52.4639 40.163C52.4639 39.5728 52.7914 39.2449 53.3154 39.2449C53.8393 39.2449 54.1668 39.5728 54.1668 40.163V41.0155H54.2323C54.6253 40.2286 55.6078 39.2449 56.5903 39.2449C57.1798 39.2449 57.5728 39.6384 57.5728 40.0974C57.5728 40.5565 57.2453 40.8844 56.5248 41.0155C55.4768 41.2123 54.2323 41.9336 54.2323 43.9666V48.8851C54.2323 49.4753 53.9048 49.8032 53.3808 49.8032C52.8569 49.8032 52.5294 49.4753 52.5294 48.8851V40.163H52.4639Z" fill="white"/>
<path d="M60.783 49.1476C60.7175 49.7378 60.3246 49.8689 59.8661 49.8689C59.3421 49.8689 59.0801 49.5411 59.0801 49.0164C59.0801 48.8197 59.1456 48.5574 59.1456 48.2295L61.045 37.0153C61.2415 36.0316 61.7655 35.7037 62.4205 35.7037C63.0755 35.7037 63.4685 35.9661 63.665 36.6219L66.6124 46.7867H66.6779L69.6253 36.6219C69.8218 35.9661 70.2148 35.7037 70.8698 35.7037C71.5248 35.7037 72.0488 36.0316 72.2453 37.0153L74.1447 48.2295C74.2102 48.5574 74.2102 48.8197 74.2102 49.0164C74.2102 49.5411 73.9483 49.8689 73.4243 49.8689C72.9658 49.8689 72.5728 49.7378 72.5073 49.1476L70.8698 37.999H70.8043L67.5294 49.2132C67.3329 49.8034 67.0709 49.9345 66.6779 49.9345C66.2849 49.9345 65.9574 49.8034 65.8264 49.2132L62.4205 37.999H62.355L60.783 49.1476Z" fill="white"/>
<path d="M76.9611 35.7693C77.5505 35.7693 78.009 36.2283 78.009 36.8186C78.009 37.4088 77.5505 37.8678 76.9611 37.8678C76.3716 37.8678 75.9131 37.4088 75.9131 36.8186C75.9131 36.2283 76.3716 35.7693 76.9611 35.7693ZM77.8125 49.0164C77.8125 49.6066 77.4851 49.9345 76.9611 49.9345C76.4371 49.9345 76.1096 49.6066 76.1096 49.0164V40.1631C76.1096 39.5729 76.4371 39.245 76.9611 39.245C77.4851 39.245 77.8125 39.5729 77.8125 40.1631V49.0164Z" fill="white"/>
<path d="M80.8249 37.1464C80.8249 36.5562 81.1524 36.2283 81.6764 36.2283C82.2004 36.2283 82.5279 36.5562 82.5279 37.1464V39.3761H83.2483C83.8378 39.3761 84.0998 39.6384 84.0998 40.0975C84.0998 40.5565 83.8378 40.8188 83.2483 40.8188H82.5279V48.9507C82.5279 49.5409 82.2004 49.8688 81.6764 49.8688C81.1524 49.8688 80.8249 49.5409 80.8249 48.9507V40.8844H80.1044C79.5149 40.8844 79.2529 40.6221 79.2529 40.1631C79.2529 39.704 79.5149 39.4417 80.1044 39.4417H80.8249V37.1464Z" fill="white"/>
<path d="M86.3923 37.1464C86.3923 36.5562 86.7198 36.2283 87.2438 36.2283C87.7678 36.2283 88.0952 36.5562 88.0952 37.1464V39.3761H88.8157C89.4052 39.3761 89.6672 39.6384 89.6672 40.0975C89.6672 40.5565 89.4052 40.8188 88.8157 40.8188H88.0952V48.9507C88.0952 49.5409 87.7678 49.8688 87.2438 49.8688C86.7198 49.8688 86.3923 49.5409 86.3923 48.9507V40.8844H85.6718C85.0823 40.8844 84.8203 40.6221 84.8203 40.1631C84.8203 39.704 85.0823 39.4417 85.6718 39.4417H86.3923V37.1464Z" fill="white"/>
<path d="M99.6238 49.0818C99.6238 49.672 99.1653 49.9343 98.8378 49.9343C98.5103 49.9343 98.0518 49.672 98.0518 49.0818V48.3604H97.9863C97.2658 49.4097 96.2833 49.9343 95.1699 49.9343C92.2224 49.9343 90.585 47.3767 90.585 44.6224C90.585 41.868 92.2224 39.3104 95.1699 39.3104C96.3488 39.3104 97.2003 39.8351 97.9863 40.6876H98.0518V40.163C98.0518 39.5727 98.5103 39.3104 98.8378 39.3104C99.1653 39.3104 99.6238 39.5727 99.6238 40.163V49.0818ZM95.1699 48.426C97.2658 48.426 98.0518 46.3275 98.0518 44.6224C98.0518 42.8517 97.3313 40.8188 95.1699 40.8188C93.0739 40.8188 92.2879 42.9173 92.2879 44.6224C92.2879 46.3275 93.0739 48.426 95.1699 48.426Z" fill="white"/>
<path d="M103.684 49.0162C103.684 49.6065 103.357 49.9344 102.833 49.9344C102.309 49.9344 101.981 49.6065 101.981 49.0162V35.5724C101.981 34.9822 102.309 34.6543 102.833 34.6543C103.357 34.6543 103.684 34.9822 103.684 35.5724V49.0162Z" fill="white"/>
<path d="M119.272 16.6855C117.111 14.7181 114.688 12.9475 113.181 11.8982C111.675 10.7833 105.78 7.11088 102.505 5.34023C100.409 4.22537 95.4965 1.8645 91.3701 0.749649C88.4881 -0.0373076 85.2787 -0.102887 83.0518 0.0938518C80.8903 0.290591 78.4014 1.47103 77.8119 4.22537C77.3534 6.19276 78.6633 9.47175 78.6633 9.47175C78.6633 9.47175 79.5148 9.27501 81.0868 9.01269C82.7243 8.75037 82.5933 9.01269 83.5102 8.81595L82.8553 5.73371C83.0518 4.42211 85.2787 3.76632 91.3701 5.53697C96.348 6.97972 107.941 12.554 107.941 12.554C107.941 12.554 98.9679 8.61921 88.9466 9.07827C82.2658 9.34059 79.1218 9.60291 71.262 12.554C64.2537 15.1772 56.6558 20.8826 55.3459 22.1942C53.5774 23.9649 54.1669 24.7518 54.8874 25.6699C55.7388 26.7848 57.5728 26.3913 59.2758 25.2109C62.0922 23.2435 67.5941 19.112 71.917 17.3413C76.3054 15.5707 78.2049 15.2428 81.7418 14.5214C82.7898 16.1609 88.5536 24.4239 89.6016 25.4732C90.2566 26.129 91.5666 27.2439 92.8765 26.3257C94.1865 25.4732 94.383 24.5551 92.8765 22.1942C91.8941 20.6859 88.8811 16.0953 87.4402 13.8656C87.5056 13.8656 87.3747 13.8656 87.4402 13.8656C90.0601 13.8656 94.4485 13.7344 97.9199 14.3246C103.356 15.1772 107.548 16.7511 109.906 17.8004C112.33 18.9152 114.426 19.8989 116.456 20.8826C118.879 21.9319 121.696 18.8496 119.272 16.6855Z" fill="white"/>
</svg>
