<svg width="2538" height="81" viewBox="0 0 2538 81" fill="none" xmlns="http://www.w3.org/2000/svg">
<path d="M65.5946 1.51934V67.9906H43.1594V43.4912H22.4353V67.9906H0V1.51934H22.4353V25.0692H43.1594V1.51934H65.5946Z" fill="#E8E8E8"/>
<path d="M77.4257 1.51934H99.4807V36.0844L122.391 1.51934H143.496V67.9906H121.441V33.5205L98.6251 67.9906H77.4257V1.51934Z" fill="#E8E8E8"/>
<path d="M229.276 50.6131V81H208.742V67.9906H155.316V1.51934H177.371V50.6131H198.475V1.51934H220.53V50.6131H229.276Z" fill="#E8E8E8"/>
<path d="M331.872 1.51934L305.159 51.5627C301.99 57.5135 298.093 62.0399 293.466 65.1419C288.903 68.2438 283.865 69.7948 278.351 69.7948C274.105 69.7948 269.795 68.9086 265.422 67.136L270.651 50.993C273.439 51.7526 275.721 52.1325 277.495 52.1325C279.143 52.1325 280.537 51.8476 281.678 51.2778C282.882 50.7081 284.023 49.7585 285.1 48.4291L259.623 1.51934H283.294L296.508 29.5322L310.197 1.51934H331.872Z" fill="#E8E8E8"/>
<path d="M387.202 18.8968H358.588V67.9906H336.533V1.51934H387.202V18.8968Z" fill="#E8E8E8"/>
<path d="M423.757 69.51C416.595 69.51 410.162 68.0223 404.458 65.0469C398.755 62.0715 394.287 57.9566 391.054 52.7022C387.822 47.3845 386.206 41.4021 386.206 34.755C386.206 28.1079 387.822 22.1571 391.054 16.9027C394.287 11.585 398.755 7.43845 404.458 4.46307C410.162 1.48769 416.595 0 423.757 0C430.918 0 437.351 1.48769 443.055 4.46307C448.759 7.43845 453.227 11.585 456.459 16.9027C459.691 22.1571 461.307 28.1079 461.307 34.755C461.307 41.4021 459.691 47.3845 456.459 52.7022C453.227 57.9566 448.759 62.0715 443.055 65.0469C437.351 68.0223 430.918 69.51 423.757 69.51ZM423.757 51.3728C426.545 51.3728 429.049 50.7081 431.267 49.3787C433.548 47.9859 435.354 46.0551 436.685 43.5862C438.016 41.0539 438.682 38.1102 438.682 34.755C438.682 31.3998 438.016 28.4877 436.685 26.0188C435.354 23.4865 433.548 21.5557 431.267 20.2263C429.049 18.8335 426.545 18.1372 423.757 18.1372C420.968 18.1372 418.433 18.8335 416.151 20.2263C413.933 21.5557 412.159 23.4865 410.828 26.0188C409.497 28.4877 408.831 31.3998 408.831 34.755C408.831 38.1102 409.497 41.0539 410.828 43.5862C412.159 46.0551 413.933 47.9859 416.151 49.3787C418.433 50.7081 420.968 51.3728 423.757 51.3728Z" fill="#E8E8E8"/>
<path d="M532.454 1.51934V67.9906H510.399V18.8968H495.189L494.999 26.5885C494.745 36.0844 493.985 43.871 492.717 49.9484C491.45 56.0258 489.231 60.7737 486.063 64.1923C482.894 67.5475 478.362 69.2251 472.468 69.2251C469.49 69.2251 466.321 68.8136 462.962 67.9906L464.103 50.0434C464.927 50.2333 465.75 50.3283 466.574 50.3283C468.919 50.3283 470.694 49.3787 471.898 47.4795C473.165 45.5803 474.021 43.0481 474.465 39.8828C474.908 36.7175 475.225 32.5709 475.415 27.4431L476.271 1.51934H532.454Z" fill="#E8E8E8"/>
<path d="M580.047 21.9355C588.35 21.9355 594.751 23.803 599.25 27.5381C603.75 31.2098 606 36.6542 606 43.871C606 51.6577 603.433 57.6401 598.3 61.8183C593.166 65.9332 586.132 67.9906 577.195 67.9906H544.208V1.51934H566.263V21.9355H580.047ZM575.674 52.3224C577.956 52.3224 579.826 51.626 581.283 50.2333C582.741 48.7773 583.47 46.7831 583.47 44.2509C583.47 39.8195 580.871 37.6038 575.674 37.6038H566.263V52.3224H575.674Z" fill="#E8E8E8"/>
<path d="M709.595 1.51934V67.9906H687.159V43.4912H666.435V67.9906H644V1.51934H666.435V25.0692H687.159V1.51934H709.595Z" fill="#E8E8E8"/>
<path d="M721.426 1.51934H743.481V36.0844L766.391 1.51934H787.496V67.9906H765.441V33.5205L742.625 67.9906H721.426V1.51934Z" fill="#E8E8E8"/>
<path d="M873.276 50.6131V81H852.742V67.9906H799.316V1.51934H821.371V50.6131H842.475V1.51934H864.53V50.6131H873.276Z" fill="#E8E8E8"/>
<path d="M975.872 1.51934L949.159 51.5627C945.99 57.5135 942.093 62.0399 937.466 65.1419C932.903 68.2438 927.865 69.7948 922.351 69.7948C918.105 69.7948 913.795 68.9086 909.422 67.136L914.651 50.993C917.439 51.7526 919.721 52.1325 921.495 52.1325C923.143 52.1325 924.537 51.8476 925.678 51.2778C926.882 50.7081 928.023 49.7585 929.1 48.4291L903.623 1.51934H927.294L940.508 29.5322L954.197 1.51934H975.872Z" fill="#E8E8E8"/>
<path d="M1031.2 18.8968H1002.59V67.9906H980.533V1.51934H1031.2V18.8968Z" fill="#E8E8E8"/>
<path d="M1067.76 69.51C1060.6 69.51 1054.16 68.0223 1048.46 65.0469C1042.75 62.0715 1038.29 57.9566 1035.05 52.7022C1031.82 47.3845 1030.21 41.4021 1030.21 34.755C1030.21 28.1079 1031.82 22.1571 1035.05 16.9027C1038.29 11.585 1042.75 7.43845 1048.46 4.46307C1054.16 1.48769 1060.6 0 1067.76 0C1074.92 0 1081.35 1.48769 1087.05 4.46307C1092.76 7.43845 1097.23 11.585 1100.46 16.9027C1103.69 22.1571 1105.31 28.1079 1105.31 34.755C1105.31 41.4021 1103.69 47.3845 1100.46 52.7022C1097.23 57.9566 1092.76 62.0715 1087.05 65.0469C1081.35 68.0223 1074.92 69.51 1067.76 69.51ZM1067.76 51.3728C1070.55 51.3728 1073.05 50.7081 1075.27 49.3787C1077.55 47.9859 1079.35 46.0551 1080.69 43.5862C1082.02 41.0539 1082.68 38.1102 1082.68 34.755C1082.68 31.3998 1082.02 28.4877 1080.69 26.0188C1079.35 23.4865 1077.55 21.5557 1075.27 20.2263C1073.05 18.8335 1070.55 18.1372 1067.76 18.1372C1064.97 18.1372 1062.43 18.8335 1060.15 20.2263C1057.93 21.5557 1056.16 23.4865 1054.83 26.0188C1053.5 28.4877 1052.83 31.3998 1052.83 34.755C1052.83 38.1102 1053.5 41.0539 1054.83 43.5862C1056.16 46.0551 1057.93 47.9859 1060.15 49.3787C1062.43 50.7081 1064.97 51.3728 1067.76 51.3728Z" fill="#E8E8E8"/>
<path d="M1176.45 1.51934V67.9906H1154.4V18.8968H1139.19L1139 26.5885C1138.75 36.0844 1137.98 43.871 1136.72 49.9484C1135.45 56.0258 1133.23 60.7737 1130.06 64.1923C1126.89 67.5475 1122.36 69.2251 1116.47 69.2251C1113.49 69.2251 1110.32 68.8136 1106.96 67.9906L1108.1 50.0434C1108.93 50.2333 1109.75 50.3283 1110.57 50.3283C1112.92 50.3283 1114.69 49.3787 1115.9 47.4795C1117.17 45.5803 1118.02 43.0481 1118.46 39.8828C1118.91 36.7175 1119.23 32.5709 1119.42 27.4431L1120.27 1.51934H1176.45Z" fill="#E8E8E8"/>
<path d="M1224.05 21.9355C1232.35 21.9355 1238.75 23.803 1243.25 27.5381C1247.75 31.2098 1250 36.6542 1250 43.871C1250 51.6577 1247.43 57.6401 1242.3 61.8183C1237.17 65.9332 1230.13 67.9906 1221.2 67.9906H1188.21V1.51934H1210.26V21.9355H1224.05ZM1219.67 52.3224C1221.96 52.3224 1223.83 51.626 1225.28 50.2333C1226.74 48.7773 1227.47 46.7831 1227.47 44.2509C1227.47 39.8195 1224.87 37.6038 1219.67 37.6038H1210.26V52.3224H1219.67Z" fill="#E8E8E8"/>
<path d="M1353.59 1.51934V67.9906H1331.16V43.4912H1310.44V67.9906H1288V1.51934H1310.44V25.0692H1331.16V1.51934H1353.59Z" fill="#E8E8E8"/>
<path d="M1365.43 1.51934H1387.48V36.0844L1410.39 1.51934H1431.5V67.9906H1409.44V33.5205L1386.63 67.9906H1365.43V1.51934Z" fill="#E8E8E8"/>
<path d="M1517.28 50.6131V81H1496.74V67.9906H1443.32V1.51934H1465.37V50.6131H1486.47V1.51934H1508.53V50.6131H1517.28Z" fill="#E8E8E8"/>
<path d="M1619.87 1.51934L1593.16 51.5627C1589.99 57.5135 1586.09 62.0399 1581.47 65.1419C1576.9 68.2438 1571.86 69.7948 1566.35 69.7948C1562.1 69.7948 1557.79 68.9086 1553.42 67.136L1558.65 50.993C1561.44 51.7526 1563.72 52.1325 1565.5 52.1325C1567.14 52.1325 1568.54 51.8476 1569.68 51.2778C1570.88 50.7081 1572.02 49.7585 1573.1 48.4291L1547.62 1.51934H1571.29L1584.51 29.5322L1598.2 1.51934H1619.87Z" fill="#E8E8E8"/>
<path d="M1675.2 18.8968H1646.59V67.9906H1624.53V1.51934H1675.2V18.8968Z" fill="#E8E8E8"/>
<path d="M1711.76 69.51C1704.6 69.51 1698.16 68.0223 1692.46 65.0469C1686.75 62.0715 1682.29 57.9566 1679.05 52.7022C1675.82 47.3845 1674.21 41.4021 1674.21 34.755C1674.21 28.1079 1675.82 22.1571 1679.05 16.9027C1682.29 11.585 1686.75 7.43845 1692.46 4.46307C1698.16 1.48769 1704.6 0 1711.76 0C1718.92 0 1725.35 1.48769 1731.05 4.46307C1736.76 7.43845 1741.23 11.585 1744.46 16.9027C1747.69 22.1571 1749.31 28.1079 1749.31 34.755C1749.31 41.4021 1747.69 47.3845 1744.46 52.7022C1741.23 57.9566 1736.76 62.0715 1731.05 65.0469C1725.35 68.0223 1718.92 69.51 1711.76 69.51ZM1711.76 51.3728C1714.55 51.3728 1717.05 50.7081 1719.27 49.3787C1721.55 47.9859 1723.35 46.0551 1724.69 43.5862C1726.02 41.0539 1726.68 38.1102 1726.68 34.755C1726.68 31.3998 1726.02 28.4877 1724.69 26.0188C1723.35 23.4865 1721.55 21.5557 1719.27 20.2263C1717.05 18.8335 1714.55 18.1372 1711.76 18.1372C1708.97 18.1372 1706.43 18.8335 1704.15 20.2263C1701.93 21.5557 1700.16 23.4865 1698.83 26.0188C1697.5 28.4877 1696.83 31.3998 1696.83 34.755C1696.83 38.1102 1697.5 41.0539 1698.83 43.5862C1700.16 46.0551 1701.93 47.9859 1704.15 49.3787C1706.43 50.7081 1708.97 51.3728 1711.76 51.3728Z" fill="#E8E8E8"/>
<path d="M1820.45 1.51934V67.9906H1798.4V18.8968H1783.19L1783 26.5885C1782.75 36.0844 1781.98 43.871 1780.72 49.9484C1779.45 56.0258 1777.23 60.7737 1774.06 64.1923C1770.89 67.5475 1766.36 69.2251 1760.47 69.2251C1757.49 69.2251 1754.32 68.8136 1750.96 67.9906L1752.1 50.0434C1752.93 50.2333 1753.75 50.3283 1754.57 50.3283C1756.92 50.3283 1758.69 49.3787 1759.9 47.4795C1761.17 45.5803 1762.02 43.0481 1762.46 39.8828C1762.91 36.7175 1763.23 32.5709 1763.42 27.4431L1764.27 1.51934H1820.45Z" fill="#E8E8E8"/>
<path d="M1868.05 21.9355C1876.35 21.9355 1882.75 23.803 1887.25 27.5381C1891.75 31.2098 1894 36.6542 1894 43.871C1894 51.6577 1891.43 57.6401 1886.3 61.8183C1881.17 65.9332 1874.13 67.9906 1865.2 67.9906H1832.21V1.51934H1854.26V21.9355H1868.05ZM1863.67 52.3224C1865.96 52.3224 1867.83 51.626 1869.28 50.2333C1870.74 48.7773 1871.47 46.7831 1871.47 44.2509C1871.47 39.8195 1868.87 37.6038 1863.67 37.6038H1854.26V52.3224H1863.67Z" fill="#E8E8E8"/>
<path d="M1997.59 1.51934V67.9906H1975.16V43.4912H1954.44V67.9906H1932V1.51934H1954.44V25.0692H1975.16V1.51934H1997.59Z" fill="#E8E8E8"/>
<path d="M2009.43 1.51934H2031.48V36.0844L2054.39 1.51934H2075.5V67.9906H2053.44V33.5205L2030.63 67.9906H2009.43V1.51934Z" fill="#E8E8E8"/>
<path d="M2161.28 50.6131V81H2140.74V67.9906H2087.32V1.51934H2109.37V50.6131H2130.47V1.51934H2152.53V50.6131H2161.28Z" fill="#E8E8E8"/>
<path d="M2263.87 1.51934L2237.16 51.5627C2233.99 57.5135 2230.09 62.0399 2225.47 65.1419C2220.9 68.2438 2215.86 69.7948 2210.35 69.7948C2206.1 69.7948 2201.79 68.9086 2197.42 67.136L2202.65 50.993C2205.44 51.7526 2207.72 52.1325 2209.5 52.1325C2211.14 52.1325 2212.54 51.8476 2213.68 51.2778C2214.88 50.7081 2216.02 49.7585 2217.1 48.4291L2191.62 1.51934H2215.29L2228.51 29.5322L2242.2 1.51934H2263.87Z" fill="#E8E8E8"/>
<path d="M2319.2 18.8968H2290.59V67.9906H2268.53V1.51934H2319.2V18.8968Z" fill="#E8E8E8"/>
<path d="M2355.76 69.51C2348.6 69.51 2342.16 68.0223 2336.46 65.0469C2330.75 62.0715 2326.29 57.9566 2323.05 52.7022C2319.82 47.3845 2318.21 41.4021 2318.21 34.755C2318.21 28.1079 2319.82 22.1571 2323.05 16.9027C2326.29 11.585 2330.75 7.43845 2336.46 4.46307C2342.16 1.48769 2348.6 0 2355.76 0C2362.92 0 2369.35 1.48769 2375.05 4.46307C2380.76 7.43845 2385.23 11.585 2388.46 16.9027C2391.69 22.1571 2393.31 28.1079 2393.31 34.755C2393.31 41.4021 2391.69 47.3845 2388.46 52.7022C2385.23 57.9566 2380.76 62.0715 2375.05 65.0469C2369.35 68.0223 2362.92 69.51 2355.76 69.51ZM2355.76 51.3728C2358.55 51.3728 2361.05 50.7081 2363.27 49.3787C2365.55 47.9859 2367.35 46.0551 2368.69 43.5862C2370.02 41.0539 2370.68 38.1102 2370.68 34.755C2370.68 31.3998 2370.02 28.4877 2368.69 26.0188C2367.35 23.4865 2365.55 21.5557 2363.27 20.2263C2361.05 18.8335 2358.55 18.1372 2355.76 18.1372C2352.97 18.1372 2350.43 18.8335 2348.15 20.2263C2345.93 21.5557 2344.16 23.4865 2342.83 26.0188C2341.5 28.4877 2340.83 31.3998 2340.83 34.755C2340.83 38.1102 2341.5 41.0539 2342.83 43.5862C2344.16 46.0551 2345.93 47.9859 2348.15 49.3787C2350.43 50.7081 2352.97 51.3728 2355.76 51.3728Z" fill="#E8E8E8"/>
<path d="M2464.45 1.51934V67.9906H2442.4V18.8968H2427.19L2427 26.5885C2426.75 36.0844 2425.98 43.871 2424.72 49.9484C2423.45 56.0258 2421.23 60.7737 2418.06 64.1923C2414.89 67.5475 2410.36 69.2251 2404.47 69.2251C2401.49 69.2251 2398.32 68.8136 2394.96 67.9906L2396.1 50.0434C2396.93 50.2333 2397.75 50.3283 2398.57 50.3283C2400.92 50.3283 2402.69 49.3787 2403.9 47.4795C2405.17 45.5803 2406.02 43.0481 2406.46 39.8828C2406.91 36.7175 2407.23 32.5709 2407.42 27.4431L2408.27 1.51934H2464.45Z" fill="#E8E8E8"/>
<path d="M2512.05 21.9355C2520.35 21.9355 2526.75 23.803 2531.25 27.5381C2535.75 31.2098 2538 36.6542 2538 43.871C2538 51.6577 2535.43 57.6401 2530.3 61.8183C2525.17 65.9332 2518.13 67.9906 2509.2 67.9906H2476.21V1.51934H2498.26V21.9355H2512.05ZM2507.67 52.3224C2509.96 52.3224 2511.83 51.626 2513.28 50.2333C2514.74 48.7773 2515.47 46.7831 2515.47 44.2509C2515.47 39.8195 2512.87 37.6038 2507.67 37.6038H2498.26V52.3224H2507.67Z" fill="#E8E8E8"/>
</svg>
