<svg width="467" height="306" viewBox="0 0 467 306" fill="none" xmlns="http://www.w3.org/2000/svg">
<path d="M397.197 154.258V278.428C397.197 291.376 386.573 302 373.625 302H369.309C356.36 302 345.736 291.376 345.736 278.428V153.594" stroke="#B9B551" stroke-width="8" stroke-miterlimit="10" stroke-linejoin="round"/>
<path d="M361.341 189.782H397.197" stroke="#B9B551" stroke-width="8" stroke-miterlimit="10"/>
<path d="M397.196 153.926L408.484 137.657H333.451" stroke="#B9B551" stroke-width="8" stroke-miterlimit="10" stroke-linecap="round" stroke-linejoin="round"/>
<path d="M330.465 201.07L306.892 208.042L319.841 164.882L280 143.633L319.841 122.053L306.892 78.8924L350.053 92.1726L371.633 52L392.882 92.1726L436.042 78.8924L423.094 122.053L462.935 143.633L423.094 164.882L436.042 208.042L412.47 200.738" stroke="#B9B551" stroke-width="8" stroke-miterlimit="10" stroke-linejoin="round"/>
<path d="M377.609 217.671C377.609 218.999 376.613 220.327 374.953 220.327C373.625 220.327 372.297 219.331 372.297 217.671C372.297 216.343 373.293 215.015 374.953 215.015C376.613 215.347 377.609 216.343 377.609 217.671Z" fill="#B9B551" stroke="#B9B551" stroke-width="8" stroke-miterlimit="10"/>
<path d="M369.643 244.231C369.643 245.559 368.647 246.887 366.987 246.887C365.659 246.887 364.331 245.891 364.331 244.231C364.331 242.903 365.327 241.575 366.987 241.575C368.315 241.575 369.643 242.903 369.643 244.231Z" fill="#B9B551" stroke="#B9B551" stroke-width="8" stroke-miterlimit="10"/>
<path d="M59.1291 72.0813V81.7123C59.1291 88.6865 56.1402 92.0075 49.8303 92.0075C44.1845 92.0075 41.5277 88.3544 41.5277 81.0481V71.7492H16.2878C12.9668 71.7492 9.97786 70.7529 7.65314 69.0924C5.32841 67.0998 4 64.7751 4 61.454C4 56.8046 5.99262 51.4909 9.97786 45.5131L29.572 14.2954C33.5572 8.31749 38.2066 4.99646 43.8524 4.99646C49.166 4.99646 53.1513 6.98908 55.8081 11.3064C58.1328 14.6275 59.1291 19.2769 59.1291 24.5906V55.8083C65.4391 55.8083 68.428 58.4651 68.428 64.1109C68.428 69.4245 65.4391 72.0813 59.1291 72.0813Z" stroke="white" stroke-width="8" stroke-miterlimit="10" stroke-linejoin="round"/>
<path d="M98.6494 48.8339C98.6494 36.214 100.974 25.9188 105.624 18.2804C111.269 8.64945 120.236 4 131.86 4C143.815 4 152.45 8.64945 158.428 18.2804C163.077 26.2509 165.402 36.214 165.402 49.1661C165.402 61.786 163.077 72.0812 158.428 79.7196C152.782 89.3506 143.815 94 131.86 94C120.236 94 111.269 89.3506 105.624 79.7196C100.974 71.7491 98.6494 61.4539 98.6494 48.8339Z" stroke="white" stroke-width="8" stroke-miterlimit="10" stroke-linejoin="round"/>
<path d="M248.759 72.0813V81.7123C248.759 88.6865 245.77 92.0075 239.46 92.0075C233.814 92.0075 231.158 88.3544 231.158 81.0481V71.7492H205.918C202.597 71.7492 199.608 70.7529 197.283 69.0924C194.958 67.0998 193.63 64.7751 193.63 61.454C193.63 56.8046 195.623 51.4909 199.608 45.5131L219.202 14.2954C223.187 8.31749 227.837 4.99646 233.482 4.99646C238.796 4.99646 242.781 6.98908 245.438 11.3064C247.763 14.6275 248.759 19.2769 248.759 24.5906V55.8083C255.069 55.8083 258.058 58.4651 258.058 64.1109C258.058 69.4245 254.737 72.0813 248.759 72.0813Z" stroke="white" stroke-width="8" stroke-miterlimit="10" stroke-linejoin="round"/>
</svg>
