<svg width="121" height="50" viewBox="0 0 121 50" fill="none" xmlns="http://www.w3.org/2000/svg">
<path d="M1.70296 49.2787C1.57197 49.6722 1.30997 49.9345 0.851481 49.9345C0.392991 49.9345 0 49.6722 0 49.2131C0 48.9508 0.196496 48.5573 0.261994 48.3606L4.6504 36.8186C4.84689 36.2283 5.23988 35.7693 5.89487 35.7693C6.54986 35.7693 6.94285 36.2283 7.13934 36.8186L11.4622 48.3606C11.5277 48.5573 11.7242 49.0164 11.7242 49.2131C11.7242 49.6722 11.3313 49.9345 10.8728 49.9345C10.4143 49.9345 10.1523 49.6722 10.0213 49.2787L9.1043 46.7867H2.61994L1.70296 49.2787ZM5.89487 37.7367L3.14393 45.2783H8.58031L5.89487 37.7367Z" fill="white"/>
<path d="M12.9688 40.163C12.9688 39.5728 13.2962 39.2449 13.8202 39.2449C14.3442 39.2449 14.6717 39.5728 14.6717 40.163V41.0155H14.7372C15.1302 40.2286 16.1127 39.2449 17.0952 39.2449C17.6846 39.2449 18.0776 39.6384 18.0776 40.0974C18.0776 40.5565 17.7501 40.8844 17.0297 41.0155C15.9817 41.2123 14.7372 41.9336 14.7372 43.9666V48.8851C14.7372 49.4753 14.4097 49.8032 13.8857 49.8032C13.3617 49.8032 13.0342 49.4753 13.0342 48.8851V40.163H12.9688Z" fill="white"/>
<path d="M23.3829 39.2449C25.1514 39.2449 26.1993 39.8351 26.1993 40.5565C26.1993 40.8844 25.9373 41.2778 25.4788 41.2778C24.8239 41.2778 24.5619 40.7532 23.3829 40.7532C21.2214 40.7532 20.4355 42.8518 20.4355 44.5568C20.4355 46.3275 21.2869 48.3605 23.3829 48.3605C24.6274 48.3605 24.8894 47.7702 25.4788 47.7702C25.8718 47.7702 26.1338 48.0326 26.1338 48.4916C26.1338 49.1474 25.1514 49.8688 23.3829 49.8688C20.239 49.8688 18.667 47.3112 18.667 44.5568C18.667 41.8025 20.1735 39.2449 23.3829 39.2449Z" fill="white"/>
<path d="M28.8851 45.2783C28.8851 47.0489 29.9986 48.4261 31.9635 48.4261C34.256 48.4261 34.8455 47.0489 35.5004 47.0489C35.8279 47.0489 36.1554 47.3112 36.1554 47.8359C36.1554 48.6884 33.994 50 31.9635 50C28.6231 50 27.1821 47.4424 27.1821 44.6881C27.1821 41.8681 28.9506 39.3761 31.8325 39.3761C34.649 39.3761 36.2864 41.9337 36.2864 44.4257C36.2864 45.016 36.0899 45.3439 35.3039 45.3439H28.8851V45.2783ZM34.5835 43.9667C34.5835 42.4583 33.732 40.7533 31.8325 40.7533C29.6711 40.6877 28.9506 42.3928 28.8851 43.9667H34.5835Z" fill="white"/>
<path d="M39.6922 49.0162C39.6922 49.6065 39.3647 49.9344 38.8407 49.9344C38.3168 49.9344 37.9893 49.6065 37.9893 49.0162V35.5724C37.9893 34.9822 38.3168 34.6543 38.8407 34.6543C39.3647 34.6543 39.6922 34.9822 39.6922 35.5724V49.0162Z" fill="white"/>
<path d="M46.0453 39.2449C48.9928 39.2449 50.6302 41.8025 50.6302 44.5568C50.6302 47.3112 48.9928 49.8688 46.0453 49.8688C43.0979 49.8688 41.4604 47.3112 41.4604 44.5568C41.4604 41.8025 43.1634 39.2449 46.0453 39.2449ZM46.0453 48.426C48.1413 48.426 48.9273 46.3275 48.9273 44.6224C48.9273 42.8518 48.2068 40.8188 46.0453 40.8188C43.9494 40.8188 43.1634 42.9173 43.1634 44.6224C43.2289 46.3275 43.9494 48.426 46.0453 48.426Z" fill="white"/>
<path d="M52.4644 40.163C52.4644 39.5728 52.7919 39.2449 53.3158 39.2449C53.8398 39.2449 54.1673 39.5728 54.1673 40.163V41.0155H54.2328C54.6258 40.2286 55.6083 39.2449 56.5908 39.2449C57.1803 39.2449 57.5732 39.6384 57.5732 40.0974C57.5732 40.5565 57.2457 40.8844 56.5253 41.0155C55.4773 41.2123 54.2328 41.9336 54.2328 43.9666V48.8851C54.2328 49.4753 53.9053 49.8032 53.3813 49.8032C52.8573 49.8032 52.5299 49.4753 52.5299 48.8851V40.163H52.4644Z" fill="white"/>
<path d="M60.783 49.1476C60.7175 49.7378 60.3246 49.8689 59.8661 49.8689C59.3421 49.8689 59.0801 49.5411 59.0801 49.0164C59.0801 48.8197 59.1456 48.5574 59.1456 48.2295L61.045 37.0153C61.2415 36.0316 61.7655 35.7037 62.4205 35.7037C63.0755 35.7037 63.4685 35.9661 63.665 36.6219L66.6124 46.7867H66.6779L69.6253 36.6219C69.8218 35.9661 70.2148 35.7037 70.8698 35.7037C71.5248 35.7037 72.0488 36.0316 72.2453 37.0153L74.1447 48.2295C74.2102 48.5574 74.2102 48.8197 74.2102 49.0164C74.2102 49.5411 73.9483 49.8689 73.4243 49.8689C72.9658 49.8689 72.5728 49.7378 72.5073 49.1476L70.8698 37.999H70.8043L67.5294 49.2132C67.3329 49.8034 67.0709 49.9345 66.6779 49.9345C66.2849 49.9345 65.9574 49.8034 65.8264 49.2132L62.4205 37.999H62.355L60.783 49.1476Z" fill="white"/>
<path d="M76.9611 35.7693C77.5505 35.7693 78.009 36.2283 78.009 36.8186C78.009 37.4088 77.5505 37.8678 76.9611 37.8678C76.3716 37.8678 75.9131 37.4088 75.9131 36.8186C75.9131 36.2283 76.3716 35.7693 76.9611 35.7693ZM77.8125 49.0164C77.8125 49.6066 77.4851 49.9345 76.9611 49.9345C76.4371 49.9345 76.1096 49.6066 76.1096 49.0164V40.1631C76.1096 39.5729 76.4371 39.245 76.9611 39.245C77.4851 39.245 77.8125 39.5729 77.8125 40.1631V49.0164Z" fill="white"/>
<path d="M80.8254 37.1464C80.8254 36.5562 81.1529 36.2283 81.6769 36.2283C82.2009 36.2283 82.5284 36.5562 82.5284 37.1464V39.3761H83.2488C83.8383 39.3761 84.1003 39.6384 84.1003 40.0975C84.1003 40.5565 83.8383 40.8188 83.2488 40.8188H82.5284V48.9507C82.5284 49.5409 82.2009 49.8688 81.6769 49.8688C81.1529 49.8688 80.8254 49.5409 80.8254 48.9507V40.8844H80.1049C79.5154 40.8844 79.2534 40.6221 79.2534 40.1631C79.2534 39.704 79.5154 39.4417 80.1049 39.4417H80.8254V37.1464Z" fill="white"/>
<path d="M86.3928 37.1464C86.3928 36.5562 86.7203 36.2283 87.2443 36.2283C87.7682 36.2283 88.0957 36.5562 88.0957 37.1464V39.3761H88.8162C89.4057 39.3761 89.6677 39.6384 89.6677 40.0975C89.6677 40.5565 89.4057 40.8188 88.8162 40.8188H88.0957V48.9507C88.0957 49.5409 87.7682 49.8688 87.2443 49.8688C86.7203 49.8688 86.3928 49.5409 86.3928 48.9507V40.8844H85.6723C85.0828 40.8844 84.8208 40.6221 84.8208 40.1631C84.8208 39.704 85.0828 39.4417 85.6723 39.4417H86.3928V37.1464Z" fill="white"/>
<path d="M99.6233 49.0818C99.6233 49.672 99.1648 49.9343 98.8373 49.9343C98.5098 49.9343 98.0513 49.672 98.0513 49.0818V48.3604H97.9858C97.2653 49.4097 96.2829 49.9343 95.1694 49.9343C92.2219 49.9343 90.5845 47.3767 90.5845 44.6224C90.5845 41.868 92.2219 39.3104 95.1694 39.3104C96.3483 39.3104 97.1998 39.8351 97.9858 40.6876H98.0513V40.163C98.0513 39.5727 98.5098 39.3104 98.8373 39.3104C99.1648 39.3104 99.6233 39.5727 99.6233 40.163V49.0818ZM95.1694 48.426C97.2653 48.426 98.0513 46.3275 98.0513 44.6224C98.0513 42.8517 97.3308 40.8188 95.1694 40.8188C93.0734 40.8188 92.2874 42.9173 92.2874 44.6224C92.2874 46.3275 93.0734 48.426 95.1694 48.426Z" fill="white"/>
<path d="M103.684 49.0162C103.684 49.6065 103.357 49.9344 102.833 49.9344C102.309 49.9344 101.981 49.6065 101.981 49.0162V35.5724C101.981 34.9822 102.309 34.6543 102.833 34.6543C103.357 34.6543 103.684 34.9822 103.684 35.5724V49.0162Z" fill="white"/>
<path d="M119.273 16.6855C117.111 14.7181 114.688 12.9475 113.182 11.8982C111.675 10.7833 105.78 7.11088 102.505 5.34023C100.409 4.22537 95.497 1.8645 91.3706 0.749649C88.4886 -0.0373076 85.2792 -0.102887 83.0522 0.0938518C80.8908 0.290591 78.4018 1.47103 77.8124 4.22537C77.3539 6.19276 78.6638 9.47175 78.6638 9.47175C78.6638 9.47175 79.5153 9.27501 81.0873 9.01269C82.7247 8.75037 82.5938 9.01269 83.5107 8.81595L82.8557 5.73371C83.0522 4.42211 85.2792 3.76632 91.3706 5.53697C96.3484 6.97972 107.942 12.554 107.942 12.554C107.942 12.554 98.9684 8.61921 88.9471 9.07827C82.2663 9.34059 79.1223 9.60291 71.2625 12.554C64.2542 15.1772 56.6563 20.8826 55.3463 22.1942C53.5779 23.9649 54.1674 24.7518 54.8879 25.6699C55.7393 26.7848 57.5733 26.3913 59.2763 25.2109C62.0927 23.2435 67.5946 19.112 71.9175 17.3413C76.3059 15.5707 78.2053 15.2428 81.7423 14.5214C82.7902 16.1609 88.5541 24.4239 89.6021 25.4732C90.2571 26.129 91.5671 27.2439 92.877 26.3257C94.187 25.4732 94.3835 24.5551 92.877 22.1942C91.8945 20.6859 88.8816 16.0953 87.4406 13.8656C87.5061 13.8656 87.3751 13.8656 87.4406 13.8656C90.0606 13.8656 94.449 13.7344 97.9204 14.3246C103.357 15.1772 107.549 16.7511 109.907 17.8004C112.33 18.9152 114.426 19.8989 116.457 20.8826C118.88 21.9319 121.696 18.8496 119.273 16.6855Z" fill="white"/>
</svg>
