<svg width="65" height="50" viewBox="0 0 65 50" fill="none" xmlns="http://www.w3.org/2000/svg">
<path fill-rule="evenodd" clip-rule="evenodd" d="M6.55074 21.9261V23.5683H1.92899V25.4765H6.17163V26.9942H1.92899V29.1743H6.6511V30.8165H0V21.9261H6.55074Z" fill="white"/>
<path fill-rule="evenodd" clip-rule="evenodd" d="M13.7314 22.1186C13.4192 21.9883 13.0624 21.926 12.6721 21.926H7.95557V30.8277H9.87899V27.3509H11.8024C12.2874 27.3509 12.6331 27.4585 12.845 27.6737C13.0568 27.8888 13.1961 28.2286 13.263 28.6929C13.3133 29.0496 13.3523 29.4234 13.3745 29.8141C13.3969 30.2048 13.4638 30.5389 13.5697 30.822H15.4931C15.4039 30.6975 15.337 30.5502 15.2924 30.369C15.2478 30.1935 15.2143 30.0009 15.1921 29.8028C15.1697 29.6045 15.1531 29.4121 15.1475 29.2195C15.1441 29.1012 15.1385 28.9936 15.1334 28.8954C15.1303 28.8338 15.1273 28.7757 15.1252 28.7212C15.114 28.4947 15.0806 28.2738 15.0359 28.0473C14.9858 27.8208 14.9189 27.617 14.8185 27.4301C14.7238 27.2433 14.5955 27.079 14.4395 26.9431C14.2833 26.8072 14.0882 26.7053 13.8485 26.6374V26.6147C14.3391 26.4165 14.6903 26.1277 14.9077 25.7427C15.1252 25.3576 15.2311 24.9046 15.2311 24.3836C15.2311 24.0438 15.1697 23.7268 15.0527 23.4323C14.9356 23.1322 14.7628 22.8773 14.5397 22.6508C14.3167 22.4243 14.0435 22.2488 13.7314 22.1186ZM12.9789 25.647C12.7615 25.8452 12.427 25.9471 11.9865 25.9471V25.9415H9.87918V23.4386H11.9865C12.427 23.4386 12.7559 23.5405 12.9789 23.733C13.1963 23.9256 13.3079 24.2426 13.3079 24.673C13.3079 25.126 13.202 25.4488 12.9789 25.647Z" fill="white"/>
<path fill-rule="evenodd" clip-rule="evenodd" d="M21.9941 30.7493C21.576 30.9305 21.1578 31.0155 20.7285 31.0155C20.0595 31.0155 19.4574 30.8965 18.9166 30.6587C18.3814 30.4209 17.9298 30.0981 17.5619 29.6791C17.1939 29.2657 16.9096 28.7787 16.7145 28.2181C16.5193 27.6575 16.4189 27.0516 16.4189 26.4061C16.4189 25.7435 16.5193 25.1263 16.7145 24.5543C16.9096 23.9881 17.1939 23.4898 17.5619 23.0651C17.9298 22.6404 18.3814 22.312 18.9166 22.0685C19.4518 21.825 20.0539 21.7061 20.7285 21.7061C21.1801 21.7061 21.615 21.774 22.0331 21.9099C22.4568 22.0458 22.8359 22.2497 23.176 22.5159C23.5161 22.7819 23.7949 23.1104 24.0179 23.5011C24.2408 23.8918 24.3747 24.3392 24.4248 24.8489H22.585C22.468 24.3505 22.2505 23.9768 21.9216 23.7277C21.5926 23.4785 21.1968 23.3539 20.7341 23.3539C20.2993 23.3539 19.9312 23.4388 19.6302 23.6087C19.3291 23.7786 19.0839 24.005 18.8943 24.2939C18.7048 24.5827 18.571 24.9055 18.4818 25.2735C18.3981 25.6416 18.3535 26.0154 18.3535 26.4061C18.3535 26.7797 18.3981 27.1422 18.4818 27.4933C18.5654 27.8444 18.7048 28.1614 18.8943 28.4446C19.0839 28.7277 19.3291 28.9543 19.6302 29.1242C19.9312 29.294 20.2993 29.3789 20.7341 29.3789C21.3697 29.3789 21.8658 29.2147 22.2115 28.8863C22.5572 28.5578 22.7634 28.0822 22.8192 27.4593H20.879V26.004H24.5586V30.8116H23.3321L23.137 29.8036C22.7913 30.2566 22.4123 30.5738 21.9941 30.7493Z" fill="white"/>
<path d="M19.8565 50C19.8565 50 32.8915 37.6502 30.1996 24.2519C29.8904 22.7558 29.1094 16.5244 14.7905 8.36491C24.2938 11.5702 27.8731 13.4142 37.9901 10.2222C39.5609 9.09106 44.6789 8.4044 46.8386 0.0139875C47.1298 -0.503456 47.5465 13.4479 42.4371 23.2065C42.2897 23.7195 33.3601 40.1798 23.2337 47.8324C22.8749 48.0696 19.8565 50 19.8565 50Z" fill="white"/>
<path d="M63.5392 1.31885C63.5392 1.31885 49.4567 12.5042 50.9431 26.0707C51.1178 27.5863 51.34 33.8558 64.8726 43.1958C55.6941 39.197 51.2461 36.4633 40.71 39.4502C39.7918 40.2023 36.7523 40.3837 32.2118 48.7838C31.8756 49.2741 32.7043 35.3506 38.6627 26.0707C38.8552 25.5725 50.0707 9.5285 60.8377 2.77165C61.2163 2.56609 63.5392 1.31885 63.5392 1.31885Z" fill="white"/>
</svg>
