<svg width="198" height="191" viewBox="0 0 198 191" fill="none" xmlns="http://www.w3.org/2000/svg">
<g filter="url(#filter0_b)">
<path d="M96.7633 1.14534C97.5507 -0.381779 99.746 -0.381779 100.533 1.14534L148.638 94.2279L197.028 187.859C197.768 189.267 196.742 190.961 195.143 190.961H98.6484H2.12977C0.531065 190.961 -0.494967 189.267 0.244731 187.859L48.6353 94.2279L96.7633 1.14534Z" fill="white" fill-opacity="0.1"/>
<path d="M97.2075 1.37498L97.2077 1.37448C97.8089 0.208506 99.4878 0.208506 100.089 1.37448L100.089 1.37489L148.193 94.4575L196.584 188.089L196.586 188.092C197.149 189.164 196.368 190.461 195.143 190.461H98.6484H2.12977C0.904566 190.461 0.123799 189.164 0.687362 188.092L0.688916 188.089L49.0794 94.4576L49.0794 94.4575L97.2075 1.37498Z" stroke="white" stroke-opacity="0.1"/>
</g>
<path d="M98.6487 11.9305L142.959 97.6638L187.508 183.827H98.6487H9.78952L54.3384 97.6638L98.6487 11.9305ZM98.6487 9.32959C98.3385 9.32959 98.0283 9.49662 97.8612 9.80681L52.8351 96.9002L7.7136 184.232C7.4034 184.829 7.8329 185.521 8.50102 185.521H98.6487H188.796C189.464 185.521 189.894 184.829 189.584 184.232L144.462 96.9002L99.4361 9.80681C99.2691 9.49662 98.9589 9.32959 98.6487 9.32959Z" fill="white"/>
<path d="M145.416 136.916C142.577 133.671 138.043 130.879 132.508 128.565C132.317 126.942 132.006 125.368 131.625 123.817C136.85 121.932 143.006 118.853 144.033 114.487C144.367 113.127 143.842 111.552 142.505 109.762C135.299 100.242 104.518 85.5193 67.7005 83.8252L67.6289 85.4955C88.5791 86.4499 105.377 91.4608 115.757 95.4933C127.831 100.17 137.59 106.04 141.169 110.812C142.171 112.148 142.601 113.294 142.41 114.129C141.527 117.804 135.538 120.619 131.171 122.218C126.351 106.064 111.367 94.2525 93.6854 94.2525C76.0997 94.2525 61.2103 105.897 56.2949 121.884C51.0693 122.791 48.3968 123.721 48.1582 123.817L48.707 125.391C48.7547 125.368 51.117 124.556 55.7938 123.697C55.0064 126.799 54.5769 130.021 54.5769 133.361C54.5769 140.567 56.5335 147.32 59.9456 153.118C59.9456 153.142 59.9456 153.166 59.9456 153.166H59.9934C66.6506 164.452 78.796 172.136 92.7309 172.47C93.399 172.517 94.091 172.517 94.783 172.517C104.184 172.517 112.774 168.914 119.217 162.997C121.484 161.04 123.536 158.821 125.301 156.411C140.215 154.979 148.041 151.209 148.542 145.22C148.757 142.357 147.707 139.565 145.416 136.916ZM130.718 127.873C130.408 127.754 130.121 127.634 129.811 127.539C129.573 126.584 129.286 125.654 128.976 124.723C129.31 124.628 129.668 124.509 130.026 124.389C130.312 125.535 130.527 126.704 130.718 127.873ZM131.124 133.385C131.124 134.817 131.028 136.224 130.885 137.632C130.909 137.227 130.909 136.821 130.909 136.391C130.909 134.053 130.694 131.762 130.265 129.543C130.503 129.639 130.742 129.734 130.957 129.83C131.052 130.999 131.124 132.192 131.124 133.385ZM66.0302 117.279C66.0541 118.4 66.1257 119.498 66.2211 120.619C65.4337 120.691 64.694 120.762 63.9543 120.834C64.5747 119.617 65.2667 118.424 66.0302 117.279ZM68.6788 105.515C73.2125 101.459 78.7244 98.476 84.8329 96.9966C87.5769 97.9272 90.1301 99.0248 92.54 100.313C82.7331 100.91 73.976 105.42 67.796 112.292C67.963 110.073 68.2732 107.806 68.6788 105.515ZM94.7353 101.888C94.95 101.888 95.1409 101.888 95.3557 101.888C100.653 105.181 104.996 109.357 108.432 114.463C101.297 114.344 93.2082 115.751 84.809 120.047C78.271 119.903 72.6398 120.094 67.8676 120.452C67.7005 118.663 67.6528 116.849 67.7005 114.988C73.9999 107.042 83.783 101.888 94.7353 101.888ZM127.879 126.847C123.846 125.463 119.432 124.294 114.85 123.339C113.896 120.858 112.75 118.519 111.486 116.3C116.473 116.706 120.935 117.827 124.586 119.116C125.993 121.526 127.091 124.127 127.879 126.847ZM129.239 136.391C129.239 143.55 127.043 150.231 123.273 155.743C123.918 153.762 123.941 151.83 123.345 150.016C122.653 147.94 121.173 146.222 119.026 144.958C118.907 140.782 118.406 135.628 117.022 130.116C116.592 128.446 116.115 126.799 115.566 125.224C120.243 126.25 124.562 127.491 128.427 128.875C128.952 131.285 129.239 133.791 129.239 136.391ZM83.2819 122.791C83.9262 122.433 84.5465 122.075 85.1669 121.765C86.8611 121.812 88.6268 121.86 90.4641 121.955C98.6008 122.361 106.475 123.363 113.633 124.819C114.301 126.632 114.874 128.517 115.375 130.474C116.64 135.437 117.141 140.162 117.308 144.099C116.282 143.669 115.137 143.311 113.92 143.073C109.171 142.094 103.445 142.571 97.8611 144.457C92.54 146.222 87.8871 149.062 84.6897 152.474C83.95 151.83 83.2342 151.162 82.4945 150.446C77.0303 145.101 73.0693 139.183 70.6355 132.741C73.7374 129.257 77.8415 125.893 83.2819 122.791ZM69.9912 130.903C69.0606 128.088 68.4164 125.177 68.0346 122.17C72.0194 121.86 76.6008 121.669 81.8264 121.693C76.8871 124.604 72.9977 127.73 69.9912 130.903ZM88.4598 120.19C95.9761 116.921 103.158 115.942 109.505 116.181C110.794 118.305 111.915 120.548 112.894 122.958C105.497 121.526 97.7656 120.619 90.5118 120.285C89.8437 120.237 89.1518 120.214 88.4598 120.19ZM85.9305 153.524C88.8177 150.47 93.1843 147.749 98.386 146.008C102.037 144.791 105.64 144.218 108.885 144.218C112.178 144.218 115.113 144.814 117.38 145.936C117.451 150.994 116.974 154.335 116.974 154.407L118.62 154.645C118.644 154.407 119.074 151.472 119.074 146.962C120.362 147.916 121.293 149.133 121.77 150.565C123.822 156.697 116.664 164.619 105.807 168.246C100.486 170.036 95.0693 170.489 90.6073 169.559C86.2884 168.676 83.3773 166.576 82.4229 163.689C81.4923 160.897 82.4706 157.723 84.8329 154.765C93.3036 161.851 101.416 164.906 101.798 165.049L102.371 163.474C102.275 163.45 94.2103 160.42 85.9305 153.524ZM110.436 114.558C109.505 113.079 108.479 111.671 107.406 110.335C104.876 107.209 101.941 104.465 98.6485 102.127C108.813 103.272 117.642 108.856 123.178 116.897C119.503 115.751 115.184 114.821 110.436 114.558ZM66.412 122.313C66.8415 125.749 67.6051 129.09 68.7504 132.287C64.9565 136.654 62.6897 141.068 61.4012 145.196C60.6615 142.381 60.2558 139.446 60.2558 136.391C60.2558 131.5 61.2819 126.847 63.1192 122.647C64.1452 122.528 65.2428 122.409 66.412 122.313ZM69.4185 134.077C71.9717 140.496 75.9804 146.389 81.3253 151.591C82.065 152.331 82.8285 153.023 83.5682 153.691C80.7049 157.246 79.7266 160.968 80.8242 164.214C81.6116 166.552 83.4012 168.461 86.0021 169.749C75.0259 166.862 66.1734 158.702 62.3318 148.155C63.3101 143.788 65.4099 138.897 69.4185 134.077ZM128.38 123.148C127.95 122.075 127.473 121.025 126.972 120.023C127.664 120.309 128.332 120.595 128.952 120.882C129.167 121.502 129.382 122.146 129.573 122.767C129.143 122.91 128.761 123.029 128.38 123.148ZM128.117 118.686C127.354 118.376 126.566 118.066 125.707 117.756C119.551 107.543 108.479 100.623 95.7852 100.266C93.3513 98.7862 90.7505 97.4977 87.9587 96.3762C89.8199 96.0899 91.7288 95.9467 93.6615 95.9467C109.1 95.9228 122.39 105.324 128.117 118.686ZM66.6745 107.472C66.3166 109.834 66.1257 112.148 66.0541 114.415C64.4793 116.467 63.1192 118.686 61.9977 121.049C60.5899 121.216 59.3014 121.407 58.1322 121.574C59.8979 116.253 62.8567 111.433 66.6745 107.472ZM56.2233 133.385C56.2233 129.925 56.7005 126.584 57.5834 123.411C58.681 123.22 59.8979 123.053 61.2103 122.886C59.5161 127.062 58.5855 131.619 58.5855 136.415C58.5855 140.567 59.3014 144.576 60.5899 148.274C60.4467 148.942 60.3274 149.587 60.232 150.231C57.655 145.148 56.2233 139.446 56.2233 133.385ZM61.6159 152.736C61.6636 152.259 61.7114 151.758 61.7591 151.233C63.2385 154.478 65.1712 157.485 67.4858 160.133C65.2428 157.938 63.2623 155.433 61.6159 152.736ZM146.848 145.101C146.323 151.09 135.944 153.595 126.518 154.621C130.503 148.489 132.818 141.188 132.818 133.361C132.818 132.407 132.77 131.452 132.722 130.522C137.852 132.741 141.813 135.294 144.2 137.99C146.156 140.305 147.039 142.691 146.848 145.101Z" fill="white"/>
<defs>
<filter id="filter0_b" x="-10" y="-10" width="217.273" height="210.961" filterUnits="userSpaceOnUse" color-interpolation-filters="sRGB">
<feFlood flood-opacity="0" result="BackgroundImageFix"/>
<feGaussianBlur in="BackgroundImage" stdDeviation="5"/>
<feComposite in2="SourceAlpha" operator="in" result="effect1_backgroundBlur"/>
<feBlend mode="normal" in="SourceGraphic" in2="effect1_backgroundBlur" result="shape"/>
</filter>
</defs>
</svg>
