<svg width="26" height="34" viewBox="0 0 26 34" fill="none" xmlns="http://www.w3.org/2000/svg">
<path d="M26 13C26 5.79902 20.201 0 13 0C5.79902 0 0 5.79902 0 13C0 20.201 13 33.6471 13 33.6471C13 33.6471 26 20.201 26 13ZM6.94608 12.7451C6.94608 9.43137 9.68627 6.69118 13 6.69118C16.3137 6.69118 19.0539 9.36765 19.0539 12.7451C19.0539 16.0588 16.3774 18.799 13 18.799C9.68627 18.799 6.94608 16.0588 6.94608 12.7451Z" fill="#B9B551"/>
<path d="M6.94629 12.7451C6.94629 9.43136 9.68648 6.69116 13.0002 6.69116C16.3139 6.69116 19.0541 9.36763 19.0541 12.7451C19.0541 16.0588 16.3777 18.799 13.0002 18.799C9.68648 18.799 6.94629 16.0588 6.94629 12.7451Z" fill="white"/>
</svg>
