<svg width="289" height="302" viewBox="0 0 289 302" fill="none" xmlns="http://www.w3.org/2000/svg">
<path d="M158.793 112.289V184.097C158.793 184.097 110.685 258.028 100.781 272.885C91.5838 286.68 99.7197 298 119.175 298H237.676C257.132 298 265.268 286.68 256.07 272.885C246.52 258.028 198.058 184.097 198.058 184.097V112.997" stroke="#B9B551" stroke-width="8" stroke-miterlimit="10" stroke-linejoin="round"/>
<path d="M198.414 112.996L210.087 95.6635H146.769" stroke="#B9B551" stroke-width="8" stroke-miterlimit="10" stroke-linecap="round" stroke-linejoin="round"/>
<path d="M222.466 64.8886C215.745 57.1065 206.194 49.3243 194.521 48.2631C175.773 45.787 151.719 60.9976 157.025 85.0515L160.563 95.3098" stroke="#B9B551" stroke-width="8" stroke-miterlimit="10" stroke-linecap="round" stroke-linejoin="round"/>
<path d="M215.039 74.0859C219.638 66.6575 228.127 61.3514 237.678 61.3514C252.535 61.3514 264.208 73.3784 264.208 87.8815C264.208 93.895 262.086 99.5548 258.548 104.153V104.507C273.759 109.459 284.725 123.962 284.725 140.588C284.725 159.69 268.807 176.669 250.413 179.145" stroke="#B9B551" stroke-width="8" stroke-miterlimit="10" stroke-linecap="round" stroke-linejoin="round"/>
<path d="M224.942 116.18C230.248 114.412 236.616 115.119 241.214 119.01C248.643 125.024 249.35 135.636 243.337 143.064" stroke="#B9B551" stroke-width="8" stroke-miterlimit="10" stroke-linecap="round" stroke-linejoin="round"/>
<path d="M230.6 162.519C243.334 165.349 251.47 178.084 248.994 190.818C247.225 198.247 242.273 204.26 235.906 207.444" stroke="#B9B551" stroke-width="8" stroke-miterlimit="10" stroke-linecap="round" stroke-linejoin="round"/>
<path d="M190.63 213.104C190.63 214.518 189.569 215.933 187.801 215.933C186.386 215.933 184.971 214.872 184.971 213.104C184.971 211.689 186.032 210.274 187.801 210.274C189.569 210.627 190.63 211.689 190.63 213.104Z" fill="#B9B551" stroke="#B9B551" stroke-width="8" stroke-miterlimit="10"/>
<path d="M212.916 270.408C212.916 271.823 211.854 273.238 210.086 273.238C208.671 273.238 207.256 272.177 207.256 270.408C207.256 268.993 208.317 267.578 210.086 267.578C211.501 267.932 212.916 268.993 212.916 270.408Z" fill="#B9B551" stroke="#B9B551" stroke-width="8" stroke-miterlimit="10"/>
<path d="M165.87 261.565C165.87 262.98 164.809 264.395 163.04 264.395C161.625 264.395 160.21 263.334 160.21 261.565C160.21 260.15 161.271 258.735 163.04 258.735C164.809 259.089 165.87 260.15 165.87 261.565Z" fill="#B9B551" stroke="#B9B551" stroke-width="8" stroke-miterlimit="10"/>
<path d="M142.168 273.592C142.168 275.007 141.106 276.422 139.338 276.422C137.923 276.422 136.508 275.361 136.508 273.592C136.508 271.823 137.569 270.762 139.338 270.762C140.753 270.762 142.168 272.177 142.168 273.592Z" fill="#B9B551" stroke="#B9B551" stroke-width="8" stroke-miterlimit="10"/>
<path d="M152.073 230.083C160.563 229.022 170.467 229.729 177.896 234.681C198.766 248.123 229.187 234.681 229.187 234.681" stroke="#B9B551" stroke-width="8" stroke-miterlimit="10" stroke-linecap="round" stroke-linejoin="round"/>
<path d="M25.9883 34.6818L49.7667 67.6647L99.8803 9.36926" stroke="white" stroke-width="8" stroke-miterlimit="10" stroke-linecap="round" stroke-linejoin="round"/>
<path d="M93.4886 41.5852C94 43.8864 94 46.4432 94 49C94 73.8011 73.8011 94 49 94C24.1989 94 4 73.8011 4 49C4 24.1989 24.1989 4 49 4C58.7159 4 67.9205 7.06818 75.0795 12.4375" stroke="white" stroke-width="8" stroke-miterlimit="10" stroke-linecap="round" stroke-linejoin="round"/>
</svg>
