<svg width="668" height="591" viewBox="0 0 668 591" fill="none" xmlns="http://www.w3.org/2000/svg">
<path d="M647.023 353.773C628.133 332.149 597.972 313.546 561.145 298.123C559.875 287.312 557.811 276.818 555.271 266.483C590.035 253.922 630.99 233.411 637.816 204.314C640.038 195.251 636.546 184.757 627.657 172.832C579.717 109.391 374.943 11.2889 130.008 0L129.532 11.1299C268.905 17.4899 380.658 50.8798 449.71 77.7506C530.032 108.914 594.956 148.028 618.767 179.828C625.434 188.732 628.292 196.364 627.022 201.929C621.148 226.415 581.305 245.177 552.255 255.83C520.19 148.187 420.501 69.4827 302.875 69.4827C185.884 69.4827 86.8306 147.074 54.1302 253.604C19.3662 259.646 1.5874 265.847 0 266.483L3.65102 276.977C3.9685 276.818 19.6837 271.412 50.7967 265.688C45.5583 286.358 42.701 307.822 42.701 330.082C42.701 378.1 55.7176 423.097 78.4174 461.734C78.4174 461.893 78.4174 462.052 78.4174 462.052H78.7349C123.023 537.258 203.822 588.456 296.526 590.682C300.97 591 305.574 591 310.177 591C372.721 591 429.867 566.991 472.727 527.559C487.807 514.521 501.459 499.734 513.205 483.676C612.418 474.136 664.484 449.014 667.818 409.105C669.247 390.025 662.262 371.422 647.023 353.773ZM549.239 293.513C547.176 292.718 545.271 291.923 543.207 291.287C541.62 284.927 539.715 278.726 537.651 272.525C539.874 271.889 542.255 271.094 544.636 270.299C546.541 277.931 547.969 285.722 549.239 293.513ZM551.938 330.241C551.938 339.781 551.303 349.162 550.351 358.543C550.509 355.84 550.509 353.137 550.509 350.275C550.509 334.693 549.081 319.429 546.223 304.643C547.811 305.279 549.398 305.914 550.827 306.55C551.462 314.341 551.938 322.291 551.938 330.241ZM118.896 222.917C119.055 230.39 119.531 237.704 120.166 245.177C114.928 245.654 110.007 246.131 105.086 246.608C109.213 238.499 113.816 230.549 118.896 222.917ZM136.516 144.53C166.677 117.5 203.346 97.6255 243.983 87.7676C262.238 93.9685 279.223 101.282 295.256 109.868C230.014 113.843 171.756 143.894 130.643 189.686C131.754 174.899 133.818 159.794 136.516 144.53ZM309.86 120.362C311.289 120.362 312.558 120.362 313.987 120.362C349.227 142.304 378.118 170.129 400.976 204.155C353.513 203.36 299.701 212.741 243.824 241.361C200.329 240.407 162.867 241.679 131.119 244.064C130.008 232.139 129.69 220.055 130.008 207.653C171.915 154.706 236.998 120.362 309.86 120.362ZM530.349 286.676C503.522 277.454 474.156 269.663 443.677 263.303C437.328 246.767 429.708 231.185 421.295 216.398C454.472 219.101 484.156 226.574 508.443 235.16C517.809 251.219 525.111 268.55 530.349 286.676ZM539.398 350.275C539.398 397.975 524.793 442.495 499.713 479.224C503.999 466.027 504.157 453.148 500.189 441.064C495.585 427.231 485.744 415.783 471.457 407.356C470.663 379.531 467.33 345.187 458.123 308.458C455.265 297.328 452.091 286.358 448.44 275.864C479.553 282.701 508.285 290.969 534 300.19C537.493 316.249 539.398 332.944 539.398 350.275ZM233.665 259.646C237.951 257.261 242.078 254.876 246.205 252.809C257.476 253.127 269.223 253.445 281.446 254.081C335.576 256.784 387.96 263.462 435.582 273.161C440.027 285.245 443.836 297.805 447.17 310.843C455.583 343.915 458.916 375.397 460.028 401.632C453.202 398.77 445.582 396.385 437.487 394.795C405.897 388.276 367.8 391.456 330.655 404.017C295.256 415.783 264.302 434.704 243.03 457.441C238.11 453.148 233.347 448.696 228.426 443.926C192.075 408.31 165.724 368.878 149.533 325.948C170.169 302.734 197.472 280.316 233.665 259.646ZM145.247 313.705C139.056 294.943 134.77 275.546 132.23 255.512C158.74 253.445 189.218 252.173 223.982 252.332C191.123 271.73 165.248 292.558 145.247 313.705ZM268.111 242.315C318.114 220.532 365.895 214.013 408.12 215.603C416.692 229.754 424.152 244.7 430.661 260.759C381.452 251.219 330.02 245.177 281.763 242.951C277.318 242.633 272.715 242.474 268.111 242.315ZM251.285 464.437C270.492 444.085 299.542 425.959 334.147 414.352C358.434 406.243 382.404 402.427 403.993 402.427C425.899 402.427 445.424 406.402 460.504 413.875C460.98 447.583 457.805 469.843 457.805 470.32L468.758 471.91C468.917 470.32 471.774 450.763 471.774 420.712C480.346 427.072 486.537 435.181 489.712 444.721C503.364 485.584 455.742 538.371 383.515 562.539C348.116 574.464 312.082 577.485 282.398 571.284C253.666 565.401 234.3 551.409 227.95 532.17C221.759 513.567 228.268 492.42 243.983 472.705C300.336 519.927 354.307 540.279 356.847 541.233L360.657 530.739C360.022 530.58 306.368 510.387 251.285 464.437ZM414.311 204.791C408.12 194.933 401.294 185.552 394.151 176.648C377.324 155.819 357.799 137.534 335.893 121.952C403.516 129.584 462.25 166.79 499.078 220.373C474.632 212.741 445.9 206.54 414.311 204.791ZM121.436 256.466C124.293 279.362 129.373 301.622 136.992 322.927C111.753 352.024 96.6725 381.439 88.1005 408.946C83.1796 390.184 80.481 370.627 80.481 350.275C80.481 317.68 87.3068 286.676 99.5298 258.692C106.356 257.897 113.658 257.102 121.436 256.466ZM141.437 334.852C158.422 377.623 185.09 416.896 220.648 451.558C225.569 456.487 230.649 461.098 235.57 465.55C216.521 489.24 210.013 514.044 217.315 535.668C222.553 551.25 234.459 563.97 251.761 572.556C178.741 553.317 119.848 498.94 94.2914 428.662C100.8 399.565 114.769 366.97 141.437 334.852ZM533.683 262.031C530.826 254.876 527.651 247.88 524.317 241.202C528.921 243.11 533.365 245.018 537.493 246.926C538.921 251.06 540.35 255.353 541.62 259.487C538.763 260.441 536.223 261.236 533.683 262.031ZM531.937 232.298C526.857 230.231 521.619 228.164 515.904 226.097C474.949 158.045 401.294 111.935 316.844 109.55C300.653 99.6925 283.35 91.1065 264.778 83.6336C277.16 81.7256 289.859 80.7716 302.717 80.7716C405.421 80.6126 493.839 143.258 531.937 232.298ZM123.182 157.568C120.801 173.309 119.531 188.732 119.055 203.837C108.578 217.511 99.5298 232.298 92.069 248.039C82.7034 249.152 74.1314 250.424 66.3532 251.537C78.0999 216.08 97.7836 183.962 123.182 157.568ZM53.654 330.241C53.654 307.186 56.8288 284.927 62.7022 263.78C70.0042 262.508 78.0999 261.395 86.8306 260.282C75.5601 288.107 69.3692 318.475 69.3692 350.434C69.3692 378.1 74.1314 404.812 82.7034 429.457C81.7509 433.909 80.9572 438.202 80.3223 442.495C63.1784 408.628 53.654 370.627 53.654 330.241ZM89.5292 459.19C89.8467 456.01 90.1641 452.671 90.4816 449.173C100.323 470.797 113.181 490.83 128.579 508.479C113.658 493.851 100.482 477.157 89.5292 459.19ZM656.547 408.31C653.055 448.219 584.003 464.914 521.301 471.751C547.811 430.888 563.208 382.234 563.208 330.082C563.208 323.722 562.891 317.362 562.574 311.161C596.703 325.948 623.053 342.961 638.927 360.928C651.944 376.351 657.817 392.251 656.547 408.31Z" fill="white" fill-opacity="0.15"/>
</svg>
