<svg width="17" height="15" viewBox="0 0 17 15" fill="none" xmlns="http://www.w3.org/2000/svg">
<path d="M8.33333 0C8.33333 0 3.17833 4.45 0.2975 6.86C0.128333 7.01333 0 7.23667 0 7.5C0 7.96083 0.3725 8.33333 0.833333 8.33333H2.5V14.1667C2.5 14.6275 2.8725 15 3.33333 15H5.83333C6.29417 15 6.66667 14.6267 6.66667 14.1667V10.8333H10V14.1667C10 14.6267 10.3725 15 10.8333 15H13.3333C13.7942 15 14.1667 14.6275 14.1667 14.1667V8.33333H15.8333C16.2942 8.33333 16.6667 7.96083 16.6667 7.5C16.6667 7.23667 16.5383 7.01333 16.3475 6.86C13.4867 4.45 8.33333 0 8.33333 0Z" fill="currentColor"/>
</svg>
