<svg width="43" height="41" viewBox="0 0 43 41" xmlns="http://www.w3.org/2000/svg">
<path d="M20.7754 0.245908C20.9445 -0.0819693 21.4158 -0.0819693 21.5848 0.245908L31.913 20.231L42.3026 40.334C42.4614 40.6363 42.2411 41 41.8979 41H21.1801H0.457268C0.114021 41 -0.106271 40.6363 0.0525445 40.334L10.4421 20.231L20.7754 0.245908Z" fill="inherit"/>
<path d="M21.1799 2.56159L30.6935 20.9688L40.2582 39.4683H21.1799H2.10156L11.6663 20.9688L21.1799 2.56159ZM21.1799 2.00317C21.1133 2.00317 21.0467 2.03904 21.0108 2.10564L11.3436 20.8049L1.65585 39.5553C1.58925 39.6834 1.68147 39.832 1.82491 39.832H21.1799H40.5349C40.6783 39.832 40.7706 39.6834 40.704 39.5553L31.0162 20.8049L21.349 2.10564C21.3131 2.03904 21.2465 2.00317 21.1799 2.00317Z" fill="currentColor"/>
<path d="M31.2215 29.3964C30.6119 28.6997 29.6385 28.1003 28.4499 27.6033C28.4089 27.255 28.3423 26.9168 28.2604 26.5838C29.3823 26.1791 30.7041 25.5182 30.9244 24.5807C30.9961 24.2887 30.8834 23.9506 30.5965 23.5663C29.0493 21.5222 22.4406 18.3613 14.5356 17.9976L14.5203 18.3562C19.0183 18.5611 22.625 19.6369 24.8535 20.5027C27.4458 21.5069 29.5411 22.7671 30.3096 23.7918C30.5248 24.0787 30.617 24.3246 30.576 24.5039C30.3865 25.2928 29.1006 25.8973 28.163 26.2406C27.1282 22.7723 23.9109 20.2363 20.1147 20.2363C16.339 20.2363 13.1422 22.7364 12.0868 26.1689C10.9649 26.3635 10.3911 26.5633 10.3398 26.5838L10.4577 26.922C10.4679 26.9168 10.9751 26.7427 11.9792 26.5582C11.8102 27.2242 11.718 27.9158 11.718 28.6331C11.718 30.1802 12.138 31.6301 12.8706 32.875C12.8706 32.8801 12.8706 32.8852 12.8706 32.8852H12.8809C14.3102 35.3084 16.9179 36.9581 19.9098 37.0298C20.0532 37.04 20.2018 37.04 20.3503 37.04C22.3688 37.04 24.2131 36.2665 25.5964 34.9959C26.0831 34.5758 26.5237 34.0994 26.9028 33.582C30.1047 33.2746 31.7851 32.4651 31.8926 31.1792C31.9387 30.5645 31.7133 29.9651 31.2215 29.3964ZM28.0657 27.4548C27.9991 27.4291 27.9376 27.4035 27.871 27.383C27.8198 27.1781 27.7583 26.9783 27.6917 26.7785C27.7634 26.758 27.8403 26.7324 27.9171 26.7068C27.9786 26.9527 28.0247 27.2037 28.0657 27.4548ZM28.1528 28.6382C28.1528 28.9456 28.1323 29.2478 28.1016 29.5501C28.1067 29.463 28.1067 29.3759 28.1067 29.2837C28.1067 28.7816 28.0606 28.2898 27.9684 27.8134C28.0196 27.8339 28.0708 27.8544 28.1169 27.8749C28.1374 28.1259 28.1528 28.382 28.1528 28.6382ZM14.177 25.1801C14.1822 25.4209 14.1975 25.6566 14.218 25.8973C14.049 25.9127 13.8901 25.9281 13.7313 25.9435C13.8645 25.6822 14.0131 25.426 14.177 25.1801ZM14.7457 22.6544C15.7191 21.7835 16.9025 21.1431 18.214 20.8255C18.8032 21.0253 19.3513 21.261 19.8688 21.5376C17.7632 21.6657 15.883 22.6339 14.5561 24.1094C14.592 23.6329 14.6586 23.1463 14.7457 22.6544ZM20.3401 21.8757C20.3862 21.8757 20.4272 21.8757 20.4733 21.8757C21.6106 22.5827 22.543 23.4793 23.2807 24.5756C21.7489 24.55 20.0122 24.8522 18.2089 25.7744C16.8052 25.7437 15.5961 25.7846 14.5715 25.8615C14.5356 25.4773 14.5254 25.0879 14.5356 24.6883C15.8881 22.9823 17.9886 21.8757 20.3401 21.8757ZM27.4561 27.2345C26.5903 26.9373 25.6425 26.6863 24.6588 26.4814C24.4539 25.9486 24.208 25.4465 23.9365 24.9701C25.0072 25.0572 25.9652 25.2979 26.7491 25.5746C27.0513 26.092 27.287 26.6504 27.4561 27.2345ZM27.7481 29.2837C27.7481 30.8206 27.2767 32.2551 26.4673 33.4385C26.6056 33.0133 26.6107 32.5983 26.4827 32.209C26.3341 31.7633 26.0165 31.3944 25.5554 31.1229C25.5298 30.2263 25.4222 29.1198 25.125 27.9363C25.0328 27.5777 24.9304 27.2242 24.8125 26.8861C25.8167 27.1064 26.7439 27.3728 27.5739 27.6699C27.6866 28.1874 27.7481 28.7253 27.7481 29.2837ZM17.881 26.3635C18.0193 26.2867 18.1525 26.2099 18.2857 26.1433C18.6495 26.1535 19.0286 26.1637 19.4231 26.1842C21.17 26.2713 22.8607 26.4865 24.3976 26.799C24.541 27.1884 24.664 27.5931 24.7716 28.0132C25.0431 29.0788 25.1507 30.0931 25.1865 30.9385C24.9662 30.8462 24.7203 30.7694 24.459 30.7182C23.4396 30.5081 22.21 30.6106 21.0112 31.0153C19.8688 31.3944 18.8698 32.0041 18.1833 32.7367C18.0245 32.5983 17.8708 32.4549 17.712 32.3012C16.5388 31.1536 15.6883 29.8831 15.1658 28.4999C15.8318 27.7519 16.713 27.0295 17.881 26.3635ZM15.0275 28.1054C14.8277 27.5009 14.6893 26.8759 14.6074 26.2303C15.4629 26.1637 16.4466 26.1228 17.5685 26.1279C16.508 26.7529 15.673 27.424 15.0275 28.1054ZM18.9927 25.8051C20.6065 25.1033 22.1485 24.8932 23.5113 24.9445C23.7879 25.4004 24.0287 25.882 24.2388 26.3994C22.6506 26.092 20.9907 25.8973 19.4333 25.8256C19.2899 25.8154 19.1413 25.8103 18.9927 25.8051ZM18.4497 32.9621C19.0696 32.3063 20.0071 31.7223 21.1239 31.3483C21.9078 31.087 22.6813 30.9641 23.3781 30.9641C24.0851 30.9641 24.7152 31.0921 25.2019 31.3329C25.2173 32.419 25.1148 33.1363 25.1148 33.1516L25.4683 33.2029C25.4734 33.1516 25.5656 32.5215 25.5656 31.5532C25.8423 31.7582 26.0421 32.0194 26.1445 32.3268C26.5851 33.6434 25.0482 35.3443 22.7172 36.123C21.5748 36.5072 20.4118 36.6046 19.4538 36.4048C18.5265 36.2152 17.9015 35.7644 17.6966 35.1445C17.4968 34.5451 17.7068 33.8637 18.214 33.2285C20.0327 34.75 21.7746 35.4058 21.8565 35.4365L21.9795 35.0984C21.959 35.0933 20.2274 34.4426 18.4497 32.9621ZM23.7111 24.5961C23.5113 24.2785 23.291 23.9762 23.0604 23.6893C22.5174 23.0182 21.8873 22.429 21.1803 21.927C23.3627 22.1729 25.2583 23.3717 26.4468 25.0981C25.6579 24.8522 24.7306 24.6524 23.7111 24.5961ZM14.259 26.2611C14.3512 26.9988 14.5152 27.716 14.7611 28.4025C13.9465 29.3401 13.4598 30.2878 13.1832 31.1741C13.0243 30.5696 12.9372 29.9395 12.9372 29.2837C12.9372 28.2335 13.1575 27.2345 13.552 26.3328C13.7723 26.3072 14.008 26.2816 14.259 26.2611ZM14.9045 28.7868C15.4527 30.1649 16.3134 31.4303 17.4609 32.5471C17.6197 32.7059 17.7837 32.8545 17.9425 32.9979C17.3277 33.7613 17.1177 34.5605 17.3533 35.2572C17.5224 35.7593 17.9066 36.1691 18.465 36.4458C16.1084 35.8259 14.2078 34.0738 13.383 31.8094C13.593 30.8719 14.0438 29.8216 14.9045 28.7868ZM27.5636 26.4404C27.4714 26.2099 27.369 25.9844 27.2614 25.7693C27.4099 25.8307 27.5534 25.8922 27.6866 25.9537C27.7327 26.0869 27.7788 26.2252 27.8198 26.3584C27.7276 26.3892 27.6456 26.4148 27.5636 26.4404ZM27.5073 25.4824C27.3433 25.4158 27.1743 25.3492 26.9899 25.2826C25.6681 23.0899 23.291 21.6042 20.5655 21.5274C20.043 21.2097 19.4845 20.9331 18.8851 20.6923C19.2847 20.6308 19.6946 20.6001 20.1096 20.6001C23.4242 20.595 26.2777 22.6135 27.5073 25.4824ZM14.3154 23.0745C14.2385 23.5817 14.1975 24.0787 14.1822 24.5653C13.844 25.0059 13.552 25.4824 13.3112 25.9896C13.009 26.0254 12.7323 26.0664 12.4813 26.1023C12.8604 24.9598 13.4957 23.925 14.3154 23.0745ZM12.0714 28.6382C12.0714 27.8953 12.1739 27.1781 12.3635 26.4967C12.5991 26.4558 12.8604 26.4199 13.1422 26.384C12.7784 27.2806 12.5786 28.2591 12.5786 29.2888C12.5786 30.1802 12.7323 31.0409 13.009 31.835C12.9782 31.9784 12.9526 32.1168 12.9321 32.2551C12.3788 31.1639 12.0714 29.9395 12.0714 28.6382ZM13.2293 32.793C13.2395 32.6905 13.2498 32.583 13.26 32.4703C13.5776 33.167 13.9926 33.8125 14.4895 34.3812C14.008 33.9098 13.5828 33.3719 13.2293 32.793ZM31.5289 31.1536C31.4162 32.4395 29.1877 32.9774 27.164 33.1977C28.0196 31.8811 28.5165 30.3134 28.5165 28.6331C28.5165 28.4281 28.5063 28.2232 28.496 28.0234C29.5975 28.4999 30.4479 29.048 30.9602 29.6269C31.3803 30.1239 31.5699 30.6362 31.5289 31.1536Z" fill="currentColor"/>
</svg>
