<svg width="22" height="28" viewBox="0 0 22 28" fill="none" xmlns="http://www.w3.org/2000/svg">
<path d="M19.8 27.28H2.2C0.98692 27.28 0 26.2931 0 25.08V2.2C0 0.98692 0.98692 0 2.2 0H11.1511C11.7388 0 12.2914 0.22902 12.7065 0.64438L21.3556 9.29346C21.7712 9.70904 22 10.2612 22 10.8489V25.08C22 26.2931 21.0131 27.28 19.8 27.28ZM2.2 0.88C1.47202 0.88 0.88 1.47202 0.88 2.2V25.08C0.88 25.808 1.47202 26.4 2.2 26.4H19.8C20.528 26.4 21.12 25.808 21.12 25.08V10.8489C21.12 10.5015 20.979 10.1614 20.7335 9.91562L12.0844 1.26654C11.8351 1.01728 11.5036 0.88 11.1511 0.88H2.2Z" fill="white"/>
<path d="M17.8661 17.2305C17.8507 17.1183 17.7605 16.9775 17.6637 16.8829C17.3865 16.6101 16.7771 16.4671 15.8487 16.4539C15.2195 16.4473 14.4627 16.5023 13.6663 16.6145C13.3099 16.4099 12.9425 16.1855 12.6543 15.9149C11.8777 15.1911 11.2309 14.1857 10.8261 13.0791C10.8525 12.9757 10.8745 12.8855 10.8965 12.7931C10.8965 12.7931 11.3321 10.3115 11.2177 9.47108C11.2023 9.35668 11.1913 9.32368 11.1605 9.23348L11.1231 9.13668C11.0043 8.86168 10.7711 8.57128 10.4059 8.58668L10.1903 8.58008H10.1859C9.77671 8.58008 9.44671 8.78908 9.35871 9.09928C9.09471 10.0761 9.36751 11.5391 9.86251 13.4311L9.73491 13.7391C9.38071 14.6059 8.93631 15.4771 8.54471 16.2449L8.49411 16.3439C8.08051 17.1513 7.70651 17.8377 7.36551 18.4185L7.01571 18.6033C6.98931 18.6165 6.38871 18.9355 6.24791 19.0191C5.05331 19.7341 4.26131 20.5437 4.12931 21.1861C4.08751 21.3929 4.11831 21.6547 4.33171 21.7757L4.67051 21.9473C4.81791 22.0199 4.97411 22.0573 5.13251 22.0573C5.98391 22.0573 6.97171 20.9969 8.33351 18.6209C9.90431 18.1105 11.6951 17.6837 13.2637 17.4505C14.4583 18.1215 15.9279 18.5901 16.8563 18.5901C17.0213 18.5901 17.1643 18.5747 17.2787 18.5439C17.4569 18.4955 17.6065 18.3943 17.6989 18.2579C17.8793 17.9873 17.9145 17.6133 17.8661 17.2305ZM4.94771 21.4127C5.10171 20.9881 5.71771 20.1477 6.62631 19.4041C6.68351 19.3579 6.82431 19.2259 6.95191 19.1027C6.00151 20.6185 5.36571 21.2213 4.94771 21.4127ZM10.3289 9.02008C10.6017 9.02008 10.7579 9.70868 10.7711 10.3555C10.7843 11.0023 10.6325 11.4555 10.4455 11.7921C10.2893 11.2949 10.2145 10.5117 10.2145 9.99908C10.2145 9.99908 10.2035 9.02008 10.3289 9.02008ZM8.72291 17.8509C8.91431 17.5099 9.11231 17.1491 9.31471 16.7685C9.80971 15.8335 10.1221 15.1031 10.3531 14.5025C10.8151 15.3429 11.3915 16.0579 12.0669 16.6299C12.1527 16.7003 12.2429 16.7729 12.3353 16.8455C10.9603 17.1161 9.77011 17.4483 8.72291 17.8509ZM17.3975 17.7739C17.3139 17.8245 17.0741 17.8553 16.9201 17.8553C16.4229 17.8553 15.8047 17.6287 14.9401 17.2569C15.2723 17.2327 15.5781 17.2195 15.8509 17.2195C16.3503 17.2195 16.4977 17.2173 16.9883 17.3427C17.4767 17.4681 17.4833 17.7211 17.3975 17.7739Z" fill="white"/>
</svg>
