<svg width="16" height="16" viewBox="0 0 16 16" fill="none" xmlns="http://www.w3.org/2000/svg">
<path d="M4.63439 10.3063C5.92147 11.9569 7.47083 13.2565 9.23922 14.1761C9.9125 14.5184 10.8129 14.9246 11.8161 14.9942C11.8783 14.9971 11.9378 15 12 15C12.6732 15 13.214 14.7505 13.6548 14.237C13.6575 14.2341 13.6629 14.2283 13.6656 14.2225C13.8224 14.0195 14.0009 13.8367 14.1875 13.6424C14.3145 13.5118 14.4443 13.3755 14.5687 13.2362C15.1447 12.5922 15.1447 11.7741 14.5633 11.1504L12.9382 9.40696C12.6624 9.09946 12.3325 8.93701 11.9864 8.93701C11.6403 8.93701 11.3077 9.09946 11.0238 9.40406L10.0558 10.4426C9.96658 10.3875 9.87465 10.3382 9.78812 10.2918C9.67996 10.2337 9.57992 10.1786 9.49069 10.1177C8.6092 9.5172 7.80883 8.73394 7.04361 7.72731C6.65694 7.20224 6.39736 6.76129 6.2162 6.31165C6.47037 6.06506 6.70832 5.80688 6.93815 5.5545C7.01927 5.46457 7.10309 5.37464 7.18692 5.28471C7.47894 4.9714 7.63577 4.60879 7.63577 4.24036C7.63577 3.87194 7.48165 3.50932 7.18692 3.19602L6.38114 2.33154C6.2865 2.23 6.19727 2.13137 6.10533 2.02984C5.92687 1.83257 5.7403 1.62951 5.55643 1.44675C5.27792 1.15375 4.95075 1 4.60465 1C4.26125 1 3.93137 1.15375 3.64204 1.44965L2.63076 2.5346C2.26302 2.92913 2.05482 3.40779 2.01156 3.96187C1.96018 4.6552 2.07916 5.39204 2.38741 6.28264C2.8606 7.66059 3.57444 8.93991 4.63439 10.3063ZM2.67132 4.02279C2.70377 3.63697 2.84167 3.31496 3.10125 3.03647L4.10712 1.95731C4.26395 1.79486 4.43701 1.71073 4.60465 1.71073C4.76958 1.71073 4.93723 1.79486 5.09135 1.96312C5.27252 2.14298 5.44287 2.33154 5.62673 2.5317C5.71867 2.63324 5.81331 2.73477 5.90795 2.8392L6.71373 3.70369C6.88137 3.88355 6.9679 4.06631 6.9679 4.24617C6.9679 4.42603 6.88137 4.60879 6.71373 4.78865C6.6299 4.87857 6.54608 4.97141 6.46226 5.06133C6.21079 5.33402 5.97555 5.59221 5.71597 5.83879C5.71056 5.84459 5.70785 5.84749 5.70245 5.85329C5.47802 6.09407 5.51317 6.32325 5.56725 6.49731C5.56995 6.50601 5.57266 6.51181 5.57536 6.52051C5.78356 7.05719 6.07289 7.56776 6.52445 8.17696C7.33563 9.25031 8.19008 10.0829 9.13106 10.724C9.24733 10.8052 9.37171 10.869 9.48798 10.9329C9.59614 10.9909 9.69619 11.046 9.78542 11.1069C9.79623 11.1127 9.80435 11.1185 9.81516 11.1243C9.90439 11.1736 9.99092 11.1969 10.0774 11.1969C10.2938 11.1969 10.4344 11.0489 10.4803 10.9996L11.4916 9.91463C11.6484 9.74637 11.8188 9.65644 11.9864 9.65644C12.1919 9.65644 12.3596 9.79279 12.465 9.91463L14.0955 11.661C14.42 12.0091 14.4173 12.3862 14.0874 12.7547C13.9738 12.8852 13.8549 13.0099 13.7278 13.1405C13.5385 13.3378 13.3411 13.5408 13.1627 13.77C12.8517 14.1297 12.4813 14.298 12.0027 14.298C11.9567 14.298 11.908 14.2951 11.8621 14.2922C10.9752 14.2312 10.1505 13.8599 9.53125 13.5437C7.84939 12.6705 6.37303 11.4318 5.14813 9.85951C4.13957 8.55698 3.46088 7.34438 3.01202 6.04476C2.73351 5.247 2.62806 4.60588 2.67132 4.02279Z" fill="#212121"/>
</svg>
