<svg width="25" height="28" viewBox="0 0 25 28" fill="none" xmlns="http://www.w3.org/2000/svg">
<path d="M20.5699 21.4921L17.1518 18.0773C17.1518 18.0773 16.578 17.3128 15.5301 17.6695L12.9354 18.5615C12.9354 18.5615 10.9145 16.1915 9.89161 14.484C8.719 12.8785 7.27195 10.1008 7.27195 10.1008L9.01839 7.93463C9.71697 7.04269 9.24293 6.2272 9.24293 6.2272L7.37175 1.74202C7.02246 0.977495 6.44863 1.00298 6.44863 1.00298C5.7251 0.901042 2.23222 3.44944 2.23222 3.44944C0.934858 4.23945 1.00971 5.18236 1.00971 5.18236C0.760213 10.7379 5.40076 17.0324 5.75005 17.5931C6.19913 18.2557 10.1661 24.8051 15.3305 26.5889C15.3305 26.5889 16.1539 27.0222 17.3514 26.0538C17.3514 26.0538 20.7445 23.3525 20.8942 22.6389C20.9192 22.6389 21.1437 22.1038 20.5699 21.4921Z" stroke="white" stroke-width="1.5" stroke-miterlimit="10" stroke-linecap="square" stroke-linejoin="round"/>
<path d="M23.7374 13.5916C23.7374 8.34185 20.469 3.88214 15.9033 2.2002" stroke="white" stroke-width="1.5" stroke-miterlimit="10" stroke-linecap="round" stroke-linejoin="round"/>
<path d="M14.0576 7.4751C16.4278 8.36704 18.1493 10.6351 18.2491 13.3364" stroke="white" stroke-width="1.5" stroke-miterlimit="10" stroke-linecap="round" stroke-linejoin="round"/>
</svg>
