<svg width="23" height="18" viewBox="0 0 23 18" fill="none" xmlns="http://www.w3.org/2000/svg">
<path d="M6.552 0C7.608 0 8.472 0.359999 9.144 1.08C9.864 1.8 10.224 2.688 10.224 3.744C10.224 4.368 10.128 4.944 9.936 5.472C9.744 6 9.408 6.696 8.928 7.56L3.456 17.928H0L4.536 7.416C3.912 7.128 3.408 6.696 3.024 6.12C2.688 5.496 2.52 4.824 2.52 4.104C2.52 2.952 2.904 1.992 3.672 1.224C4.488 0.408 5.448 0 6.552 0ZM18.792 0C19.848 0 20.712 0.359999 21.384 1.08C22.104 1.8 22.464 2.688 22.464 3.744C22.464 4.368 22.368 4.944 22.176 5.472C21.984 6 21.648 6.696 21.168 7.56L15.696 17.928H12.24L16.776 7.416C16.152 7.128 15.648 6.696 15.264 6.12C14.928 5.496 14.76 4.824 14.76 4.104C14.76 2.952 15.144 1.992 15.912 1.224C16.728 0.408 17.688 0 18.792 0Z" fill="#212121"/>
</svg>
