<svg width="23" height="18" viewBox="0 0 23 18" fill="none" xmlns="http://www.w3.org/2000/svg">
<path d="M5.688 10.512C6.312 10.8 6.792 11.256 7.128 11.88C7.512 12.456 7.704 13.104 7.704 13.824C7.704 14.976 7.296 15.96 6.48 16.776C5.712 17.544 4.776 17.928 3.672 17.928C2.616 17.928 1.728 17.592 1.008 16.92C0.335999 16.2 0 15.312 0 14.256C0 13.632 0.0960001 13.056 0.288 12.528C0.48 12 0.816 11.304 1.296 10.44L6.84 0H10.296L5.688 10.512ZM17.928 10.512C18.552 10.8 19.032 11.256 19.368 11.88C19.752 12.456 19.944 13.104 19.944 13.824C19.944 14.976 19.536 15.96 18.72 16.776C17.952 17.544 17.016 17.928 15.912 17.928C14.856 17.928 13.968 17.592 13.248 16.92C12.576 16.2 12.24 15.312 12.24 14.256C12.24 13.632 12.336 13.056 12.528 12.528C12.72 12 13.056 11.304 13.536 10.44L19.08 0H22.536L17.928 10.512Z" fill="#212121"/>
</svg>
