<svg width="31" height="27" viewBox="0 0 31 27" fill="none" xmlns="http://www.w3.org/2000/svg">
<path d="M5.08496 12.9672H15.72" stroke="currentColor" stroke-width="1.5" stroke-miterlimit="10"/>
<path d="M5.15234 16.2864H14.2776" stroke="currentColor" stroke-width="1.5" stroke-miterlimit="10"/>
<path d="M15.4973 20.8597L14.2983 22.0587" stroke="currentColor" stroke-width="1.5" stroke-miterlimit="10" stroke-linecap="round"/>
<path d="M16.6738 17.3629C19.2271 12.9335 22.9238 9.41442 27.5086 7.10536C27.9083 6.92774 28.5078 7.06096 28.8297 7.3829C28.8852 7.4384 28.9407 7.49391 28.9962 7.54941C29.3181 7.87135 29.4514 8.47082 29.2737 8.87046C26.9647 13.422 23.4234 17.152 19.0162 19.7053L16.6738 17.3629Z" stroke="currentColor" stroke-width="1.5" stroke-miterlimit="10" stroke-linejoin="round"/>
<path d="M15.5864 18.9504L15.1646 20.3048L16.0527 21.1929L18.939 19.7275" stroke="currentColor" stroke-width="1.5" stroke-miterlimit="10" stroke-linejoin="round"/>
<path d="M25.7433 7.98245L24.2891 6.32837" stroke="currentColor" stroke-width="1.5" stroke-miterlimit="10" stroke-linecap="round" stroke-linejoin="round"/>
<path d="M19.4492 10.1804C21.5474 8.02675 24.2672 6.35046 24.2672 6.35046" stroke="currentColor" stroke-width="1.5" stroke-miterlimit="10" stroke-linecap="round" stroke-linejoin="round"/>
<path d="M23.7461 11.6569L25.9441 13.8549" stroke="currentColor" stroke-width="1.5" stroke-miterlimit="10" stroke-linejoin="round"/>
<path d="M5.07422 21.8148C5.07422 21.8148 6.38417 20.2606 6.92813 20.083C7.47209 19.9054 7.44988 22.1256 7.44988 22.1256C7.44988 22.1256 8.81534 20.3605 9.70344 21.3596C10.747 22.5364 10.4805 22.4698 12.1457 22.2477" stroke="currentColor" stroke-width="1.5" stroke-miterlimit="10" stroke-linecap="round" stroke-linejoin="round"/>
<path d="M19.8055 22.1035V26H1V5.96226L5.96226 1H19.8055V6.57282" stroke="currentColor" stroke-width="1.5" stroke-miterlimit="10" stroke-linejoin="round"/>
<path d="M6.77247 3.39795V6.78383H3.37549" stroke="currentColor" stroke-width="1.5" stroke-miterlimit="10"/>
</svg>
