<svg width="55" height="55" viewBox="0 0 55 55" fill="none" xmlns="http://www.w3.org/2000/svg">
<path d="M39.8397 10.537H42.839C44.2234 10.537 45.3001 11.6137 45.3001 12.998V50.0669C45.3001 51.4512 44.2234 52.5279 42.839 52.5279H12.461C11.0767 52.5279 10 51.4512 10 50.0669V12.998C10 11.6137 11.0767 10.537 12.461 10.537H15.4604" stroke="white" stroke-width="2" stroke-miterlimit="10" stroke-linejoin="round"/>
<path d="M35.8405 7.99913H31.6876C31.6107 5.76885 29.8418 4 27.6116 4C25.3813 4 23.5355 5.76885 23.5355 7.99913H19.4595V13.3057H35.9174V7.99913H35.8405Z" stroke="white" stroke-width="2" stroke-miterlimit="10" stroke-linecap="round"/>
<path d="M25.7659 26.6105V30.302H15.4604V19.9966H22.0744" stroke="white" stroke-width="2" stroke-miterlimit="10" stroke-linecap="round" stroke-linejoin="round"/>
<path d="M18.7676 23.6111L21.4593 26.6873L27.458 18.9198" stroke="white" stroke-width="2" stroke-miterlimit="10" stroke-linecap="round" stroke-linejoin="round"/>
<path d="M30.9956 22.842H40.9934" stroke="white" stroke-width="2" stroke-miterlimit="10"/>
<path d="M30.9956 27.4564H37.4557" stroke="white" stroke-width="2" stroke-miterlimit="10"/>
<path d="M25.7659 43.3762V47.0677H15.4604V36.7622H22.0744" stroke="white" stroke-width="2" stroke-miterlimit="10" stroke-linecap="round" stroke-linejoin="round"/>
<path d="M18.7676 40.3767L21.4593 43.3761L27.458 35.6854" stroke="white" stroke-width="2" stroke-miterlimit="10" stroke-linecap="round" stroke-linejoin="round"/>
<path d="M30.9956 39.6078H40.9934" stroke="white" stroke-width="2" stroke-miterlimit="10"/>
<path d="M30.9956 44.222H37.4557" stroke="white" stroke-width="2" stroke-miterlimit="10"/>
</svg>
