<svg width="55" height="58" viewBox="0 0 55 58" fill="none" xmlns="http://www.w3.org/2000/svg">
<path d="M22.452 25.8101C19.928 28.5024 18.4136 32.1201 18.4136 35.9903C18.4136 44.4037 25.565 51.3028 34.315 51.3028C36.3342 51.3028 38.3534 50.9662 40.1202 50.2932V42.5528" stroke="white" stroke-width="2" stroke-miterlimit="10" stroke-linecap="round" stroke-linejoin="round"/>
<path d="M19.7596 19.7523C13.8702 24.3797 10 31.3629 10 39.2715C10 45.9181 12.6923 51.9758 17.1514 56.519H44.4109" stroke="white" stroke-width="2" stroke-miterlimit="10" stroke-linecap="round" stroke-linejoin="round"/>
<path d="M28.9176 9.34533L21.3413 12.8062L31.1994 34.3872L38.7757 30.9264L28.9176 9.34533Z" stroke="white" stroke-width="2" stroke-miterlimit="10"/>
<path d="M26.0697 6.54325L23.8822 2L19.0024 4.27163L21.1058 8.81488" stroke="white" stroke-width="2"/>
<path d="M28.8462 29.2596L36.4183 25.8101" stroke="white" stroke-width="2" stroke-miterlimit="10" stroke-linejoin="round"/>
<path d="M27.416 42.2162H45.0001" stroke="white" stroke-width="2" stroke-miterlimit="10" stroke-linecap="round" stroke-linejoin="round"/>
<path d="M32.2114 42.3845V50.9662" stroke="white" stroke-width="2" stroke-miterlimit="10"/>
</svg>
