<svg width="55" height="55" viewBox="0 0 55 55" fill="none" xmlns="http://www.w3.org/2000/svg">
<path d="M17.4146 14.6971H38.7307" stroke="white" stroke-width="2" stroke-miterlimit="10" stroke-linecap="round"/>
<path d="M20.0698 19.3039H36.0765" stroke="white" stroke-width="2" stroke-miterlimit="10" stroke-linecap="round"/>
<path d="M28.0336 23.8326C23.1926 23.8326 19.2104 27.8148 19.2104 32.6558C19.2104 37.4969 23.1926 41.479 28.0336 41.479C32.9527 41.479 36.8568 37.4969 36.8568 32.6558C36.8568 27.8148 32.9527 23.8326 28.0336 23.8326Z" stroke="white" stroke-width="2" stroke-miterlimit="10"/>
<path d="M28.034 27.9709C25.4573 27.9709 23.3491 30.0791 23.3491 32.6558C23.3491 35.2324 25.4573 37.3406 28.034 37.3406C30.6107 37.3406 32.7189 35.2324 32.7189 32.6558C32.7189 30.0791 30.6888 27.9709 28.034 27.9709Z" stroke="white" stroke-width="2" stroke-miterlimit="10"/>
<path d="M29.5176 40.6982L33.8901 49.9899L35.1394 45.0708L39.6681 47.1009L34.8271 36.9503" stroke="white" stroke-width="2" stroke-miterlimit="10" stroke-linejoin="round"/>
<path d="M26.6286 40.6982L22.256 49.9899L21.0067 45.0707L16.478 47.1009L19.9136 40.0735" stroke="white" stroke-width="2" stroke-miterlimit="10" stroke-linejoin="round"/>
<path d="M16.9464 37.8872H5V4H51.0679V37.8872H39.4338" stroke="white" stroke-width="2" stroke-miterlimit="10"/>
<path d="M9.2168 13.7602V8.06024H14.9167" stroke="white" stroke-width="2" stroke-miterlimit="10"/>
<path d="M41.229 8.06024H46.9289V13.7602" stroke="white" stroke-width="2" stroke-miterlimit="10"/>
<path d="M46.9289 28.1271V33.827H41.229" stroke="white" stroke-width="2" stroke-miterlimit="10"/>
<path d="M14.9157 33.827H9.21582V28.1271" stroke="white" stroke-width="2" stroke-miterlimit="10"/>
</svg>
