<svg width="57" height="55" viewBox="0 0 57 55" fill="none" xmlns="http://www.w3.org/2000/svg">
<path d="M7.12891 5.30396L8.71783 8.17915" stroke="white" stroke-width="2" stroke-miterlimit="10" stroke-linecap="round" stroke-linejoin="round"/>
<path d="M7.12891 41.6224L8.71783 38.7472" stroke="white" stroke-width="2" stroke-miterlimit="10" stroke-linecap="round" stroke-linejoin="round"/>
<path d="M1 15.8969H4.32918" stroke="white" stroke-width="2" stroke-miterlimit="10" stroke-linecap="round" stroke-linejoin="round"/>
<path d="M1 31.0294H4.32918" stroke="white" stroke-width="2" stroke-miterlimit="10" stroke-linecap="round" stroke-linejoin="round"/>
<path d="M8.79325 8.25476L4.40479 15.8967L8.79325 23.4631H17.5702L21.9586 15.8967L17.5702 8.25476H8.79325Z" stroke="white" stroke-width="2" stroke-miterlimit="10" stroke-linecap="round" stroke-linejoin="round"/>
<path d="M8.94482 15.3671L10.6851 12.3406" stroke="white" stroke-width="2" stroke-miterlimit="10" stroke-linecap="round" stroke-linejoin="round"/>
<path d="M10.6851 34.4343L8.94482 31.3322" stroke="white" stroke-width="2" stroke-miterlimit="10" stroke-linecap="round" stroke-linejoin="round"/>
<path d="M35.9563 10.4491V24.7494C35.9563 24.7494 26.3471 39.4281 24.4555 42.3789C22.6396 45.1785 24.2285 47.3727 28.0874 47.3727H51.6186C55.4774 47.3727 57.0663 45.1785 55.2504 42.3789C53.3588 39.4281 43.7496 24.7494 43.7496 24.7494V10.6004" stroke="white" stroke-width="2" stroke-miterlimit="10" stroke-linejoin="round"/>
<path d="M43.8253 10.6004L46.1709 7.19556H33.5352" stroke="white" stroke-width="2" stroke-miterlimit="10" stroke-linecap="round" stroke-linejoin="round"/>
<path d="M47.9113 40.8655C47.9113 41.1682 47.6843 41.3951 47.3817 41.3951C47.079 41.3951 46.8521 41.1682 46.8521 40.8655C46.8521 40.5628 47.079 40.3359 47.3817 40.3359C47.6843 40.2602 47.9113 40.5628 47.9113 40.8655Z" stroke="white" stroke-width="2" stroke-miterlimit="10"/>
<path d="M38.4533 39.0497C38.4533 39.3523 38.2263 39.5793 37.9237 39.5793C37.621 39.5793 37.394 39.3523 37.394 39.0497C37.394 38.747 37.621 38.52 37.9237 38.52C38.2263 38.52 38.4533 38.747 38.4533 39.0497Z" stroke="white" stroke-width="2" stroke-miterlimit="10"/>
<path d="M33.611 42.3032C33.611 42.6058 33.384 42.9085 33.0057 42.9085C32.703 42.9085 32.4004 42.6815 32.4004 42.3032C32.4004 42.0005 32.6274 41.6979 33.0057 41.6979C33.3083 41.7735 33.611 42.0005 33.611 42.3032Z" stroke="white" stroke-width="2" stroke-miterlimit="10"/>
<path d="M8.79325 23.4631L4.40479 31.0294L8.79325 38.6714H17.5702L21.9586 31.0294L17.5702 23.4631" stroke="white" stroke-width="2" stroke-miterlimit="10" stroke-linecap="round" stroke-linejoin="round"/>
<path d="M22.0342 31.0294H27.3306" stroke="white" stroke-width="2" stroke-miterlimit="10" stroke-linejoin="round"/>
<path d="M32.5514 18.8477L30.8111 15.8212H22.0342" stroke="white" stroke-width="2" stroke-miterlimit="10" stroke-linejoin="round"/>
<path d="M48.8193 32.9966H35.9565" stroke="white" stroke-width="2" stroke-miterlimit="10" stroke-linecap="round" stroke-linejoin="round"/>
<path d="M24.6069 19.453H28.1631" stroke="white" stroke-width="2" stroke-miterlimit="10" stroke-linecap="round" stroke-linejoin="round"/>
</svg>
