<svg width="50" height="50" viewBox="0 0 50 50" fill="none" xmlns="http://www.w3.org/2000/svg">
<path d="M28.4438 14.4808C28.1841 14.4808 27.9243 14.286 27.9243 13.9613C27.9243 13.7015 28.1191 13.4418 28.4438 13.4418C28.7036 13.4418 28.9633 13.6366 28.9633 13.9613C28.9633 14.286 28.7685 14.4808 28.4438 14.4808Z" stroke="#212121" stroke-width="2" stroke-miterlimit="10"/>
<path d="M18.3135 33.1826V5H38.6387V40.8452H25.2617" stroke="#212121" stroke-width="2" stroke-miterlimit="10"/>
<path d="M27.7291 37.0788H32.2747C32.2747 35.6502 33.4435 34.4814 34.8722 34.4814V11.3638C33.4435 11.3638 32.2747 10.195 32.2747 8.76636H24.6771C24.6771 10.195 23.5082 11.3638 22.0796 11.3638V29.2864" stroke="#212121" stroke-width="2" stroke-miterlimit="10"/>
<path d="M28.4436 26.1045C26.5604 26.1045 25.0669 24.6759 25.0669 22.9876C25.0669 21.2343 26.5604 19.8706 28.4436 19.8706C30.3268 19.8706 31.8203 21.2992 31.8203 22.9876C31.8853 24.6759 30.3268 26.1045 28.4436 26.1045Z" stroke="#212121" stroke-width="2" stroke-miterlimit="10"/>
<path d="M14.2876 37.7931L21.8203 29.676C23.119 28.3773 25.1321 28.0526 26.3009 29.0916C27.4698 30.1306 27.5997 32.2086 26.5607 33.7021L17.0799 47.7934" stroke="#212121" stroke-width="2" stroke-miterlimit="10" stroke-linejoin="round"/>
<path d="M18.0538 23.6368C18.0538 23.6368 8.24837 31.9488 8.05356 33.2475C7.85875 34.2865 8.24837 44.027 8.37824 47.7934" stroke="#212121" stroke-width="2" stroke-miterlimit="10"/>
</svg>
