<svg width="50" height="50" viewBox="0 0 50 50" fill="none" xmlns="http://www.w3.org/2000/svg">
<path d="M35.0346 15.173V7.76817C35.0346 6.24567 33.7889 5 32.2664 5H12.7509L5 11.7128V42.2318C5 43.7543 6.24567 45 7.76817 45H32.1972C33.7197 45 34.9654 43.7543 34.9654 42.2318V40.5017" stroke="#212121" stroke-width="2" stroke-miterlimit="10"/>
<path d="M15.2421 5.55371V14.0658H10.0518" stroke="#212121" stroke-width="2" stroke-miterlimit="10"/>
<path d="M37.2494 37.4568C42.5238 37.4568 46.7996 33.181 46.7996 27.9066C46.7996 22.6322 42.5238 18.3564 37.2494 18.3564C31.975 18.3564 27.6992 22.6322 27.6992 27.9066C27.6992 33.181 31.975 37.4568 37.2494 37.4568Z" stroke="#212121" stroke-width="2" stroke-miterlimit="10"/>
<path d="M32.8892 27.4914L36.7646 30.6748L41.8165 24.2388" stroke="#212121" stroke-width="2" stroke-miterlimit="10"/>
<path d="M11.782 24.7924H11.1592V25.4152H11.782V24.7924Z" fill="white" stroke="#212121" stroke-width="2" stroke-miterlimit="10"/>
<path d="M15.5879 25.0692H25.0689" stroke="#212121" stroke-width="2" stroke-miterlimit="10"/>
<path d="M11.782 30.3287H11.1592V30.9516H11.782V30.3287Z" fill="white" stroke="#212121" stroke-width="2" stroke-miterlimit="10"/>
<path d="M15.5879 30.6056H25.1381" stroke="#212121" stroke-width="2" stroke-miterlimit="10"/>
<path d="M11.782 35.865H11.1592V36.4878H11.782V35.865Z" fill="white" stroke="#212121" stroke-width="2" stroke-miterlimit="10"/>
<path d="M15.5879 36.2111H27.6986" stroke="#212121" stroke-width="2" stroke-miterlimit="10"/>
</svg>
