<svg width="50" height="50" viewBox="0 0 50 50" fill="none" xmlns="http://www.w3.org/2000/svg">
<path d="M30.9071 45.2465H7.20854C3.44142 45.2465 2.00307 42.9177 3.7154 40.2465C5.49621 37.4383 14.0578 24.4931 14.0578 24.4931C14.6743 23.5342 15.1537 21.8218 15.1537 20.726V9.08215" stroke="#212121" stroke-width="2" stroke-miterlimit="10" stroke-linecap="round" stroke-linejoin="round"/>
<path d="M12.7568 5.31519H25.2911L22.8938 8.60285V20.7261C22.8938 21.8905 23.3732 23.5343 23.9897 24.4932C23.9897 24.4932 26.9349 28.9453 29.7431 33.1918" stroke="#212121" stroke-width="2" stroke-miterlimit="10" stroke-linecap="round" stroke-linejoin="round"/>
<path d="M14.1948 30.7944H27.8934" stroke="#212121" stroke-width="2" stroke-miterlimit="10" stroke-linecap="round"/>
<path d="M36.1812 21.8904H43.7839" stroke="#212121" stroke-width="2" stroke-miterlimit="10"/>
<path d="M30.1538 11.0687H46.1812L43.8524 14.4249V40.3837C43.8524 43.1234 41.6606 45.3152 38.9209 45.3152H38.0305C35.2908 45.3152 33.099 43.1234 33.099 40.3837V14.7673" stroke="#212121" stroke-width="2" stroke-miterlimit="10" stroke-linecap="round" stroke-linejoin="round"/>
<path d="M39.6057 27.6439C39.6057 27.9179 39.4002 28.1918 39.0577 28.1918C38.7837 28.1918 38.5098 27.9864 38.5098 27.6439C38.5098 27.3699 38.7152 27.0959 39.0577 27.0959C39.4002 27.0959 39.6057 27.3699 39.6057 27.6439Z" stroke="#212121" stroke-width="2" stroke-miterlimit="10"/>
<path d="M20.3591 36.3424C20.3591 36.6163 20.1536 36.8903 19.8111 36.8903C19.5372 36.8903 19.2632 36.6848 19.2632 36.3424C19.2632 36.0684 19.4687 35.7944 19.8111 35.7944C20.1536 35.7944 20.3591 35.9999 20.3591 36.3424Z" stroke="#212121" stroke-width="2" stroke-miterlimit="10"/>
<path d="M24.5373 38.8768C24.5373 39.1508 24.3318 39.4247 23.9893 39.4247C23.7154 39.4247 23.4414 39.2193 23.4414 38.8768C23.4414 38.6028 23.6469 38.3289 23.9893 38.3289C24.3318 38.3289 24.5373 38.6028 24.5373 38.8768Z" stroke="#212121" stroke-width="2" stroke-miterlimit="10"/>
<path d="M37.9621 32.5754C37.9621 32.8494 37.7566 33.1234 37.4142 33.1234C37.1402 33.1234 36.8662 32.9179 36.8662 32.5754C36.8662 32.3014 37.0717 32.0275 37.4142 32.0275C37.7566 32.0275 37.9621 32.2329 37.9621 32.5754Z" stroke="#212121" stroke-width="2" stroke-miterlimit="10"/>
</svg>
