<svg width="50" height="50" viewBox="0 0 50 50" fill="none" xmlns="http://www.w3.org/2000/svg">
<path d="M8.85597 41.5154C3.43535 44.5793 1 40.7298 1 40.7298C4.84943 37.4303 4.45663 35.3092 4.53519 32.7953C4.69231 30.1243 4.37807 29.4958 3.59247 25.7249C0.685761 2.94259 26.3748 3.41395 26.3748 3.41395H27.1604C27.1604 3.41395 44.1293 3.57107 45.7005 18.3403L45.8576 19.5973C46.2504 22.504 46.329 23.0539 46.4075 25.6464C46.5646 28.8673 45.8576 30.2028 45.6219 32.7167C45.4648 35.2307 45.2291 37.3518 49 40.6513C49 40.6513 46.5646 44.5007 41.144 41.4369" stroke="#212121" stroke-width="2" stroke-miterlimit="10" stroke-linecap="round" stroke-linejoin="round"/>
<path d="M28.1812 39.3158C40.4365 39.3158 41.3006 29.2601 41.3006 29.2601C41.3006 29.2601 41.3792 27.139 40.3579 26.0392" stroke="#212121" stroke-width="2" stroke-miterlimit="10" stroke-linecap="round" stroke-linejoin="round"/>
<path d="M27.2394 39.3944C27.2394 40.1014 26.2967 40.7299 25.1968 40.7299C24.097 40.7299 23.1543 40.1014 23.1543 39.3944C23.1543 38.6873 24.097 38.0588 25.1968 38.0588C26.2967 38.0588 27.2394 38.6873 27.2394 39.3944Z" stroke="#212121" stroke-width="2" stroke-miterlimit="10"/>
<path d="M11.4488 22.9751C11.4488 22.9751 22.5257 25.3319 26.8465 14.255C27.475 12.6838 27.5535 12.5267 29.1247 14.0979C32.817 17.9473 38.8661 19.6756 38.8661 19.6756L39.2589 19.8328C39.2589 19.8328 40.5945 24.8606 39.8089 30.0455C39.8089 30.0455 37.0593 47.2501 25.1182 47.2501H24.8039C12.9414 47.2501 10.8203 30.0455 10.8203 30.0455" stroke="#212121" stroke-width="2" stroke-miterlimit="10" stroke-linecap="round" stroke-linejoin="round"/>
<path d="M19.8536 27.7675C19.8536 28.0818 19.618 28.396 19.2252 28.396C18.9109 28.396 18.5967 28.1603 18.5967 27.7675C18.5967 27.4533 18.8324 27.139 19.2252 27.139C19.5394 27.139 19.8536 27.4533 19.8536 27.7675Z" stroke="#212121" stroke-width="2" stroke-miterlimit="10"/>
<path d="M31.7955 27.7675C31.7955 28.0818 31.5599 28.396 31.1671 28.396C30.8528 28.396 30.5386 28.1603 30.5386 27.7675C30.5386 27.4533 30.7743 27.139 31.1671 27.139C31.4813 27.139 31.7955 27.4533 31.7955 27.7675Z" stroke="#212121" stroke-width="2" stroke-miterlimit="10"/>
</svg>
