<svg width="15" height="15" viewBox="0 0 15 15" fill="none" xmlns="http://www.w3.org/2000/svg">
<path d="M14.7559 1.43146C14.5833 1.17258 14.2382 1 13.893 1C13.7204 1 13.5478 1 13.3753 1.08629L0.949212 6.09123C0.172584 6.4364 0 6.86786 0 7.21302C0 7.4719 0.172584 7.90336 0.86292 8.16224L4.05572 9.19774C4.14201 9.19774 4.14201 9.19774 4.22831 9.19774C4.3146 9.19774 4.40089 9.19774 4.48718 9.11145L8.88807 6.17752L5.69527 9.19774C5.60898 9.28403 5.52269 9.45661 5.52269 9.54291L5.26381 12.9946C5.26381 13.1672 5.26381 13.2535 5.3501 13.3398C5.43639 13.426 5.60898 13.5123 5.69527 13.5123C6.21302 13.5123 6.4719 13.2535 6.73077 12.9946L8.02515 11.7002L10.9591 13.9438C11.218 14.1164 11.4768 14.2027 11.7357 14.2027C11.9946 14.2027 12.5986 14.1164 12.8575 13.0809L14.9285 2.72584C15.1011 2.0355 14.9285 1.60404 14.7559 1.43146ZM11.7357 13.2535C11.7357 13.2535 11.6494 13.2535 11.4768 13.1672L8.28403 10.751C8.19774 10.6647 8.11145 10.6647 8.02515 10.6647C7.93886 10.6647 7.76628 10.751 7.67999 10.8373L6.38561 12.1317L6.55819 9.88807L12.426 4.36539C12.7712 4.02022 12.6849 3.76134 12.6849 3.58876C12.5986 3.32988 12.3398 3.1573 12.0809 3.1573C11.9083 3.1573 11.6494 3.24359 11.4768 3.32988L4.14202 8.16224L1.1218 7.12673C1.1218 7.12673 1.1218 7.12673 1.0355 7.12673C1.1218 7.12673 1.20809 7.04044 1.29438 7.04044L13.8067 2.0355C13.893 2.0355 13.893 2.0355 13.9793 2.0355C14.0656 2.0355 14.0656 2.0355 14.0656 2.0355C14.1519 2.1218 14.1519 2.29438 14.0656 2.55326L11.9083 12.9946C11.822 13.1672 11.7357 13.2535 11.7357 13.2535Z" fill="currentColor"/>
</svg>
