<svg width="10" height="13" viewBox="0 0 10 13" fill="none" xmlns="http://www.w3.org/2000/svg">
<path d="M10 12.6693V10.8463C10 8.59049 8.54497 6.67342 6.54233 6.012C7.50529 5.46081 8.15873 4.4122 8.15873 3.21034C8.15873 1.44116 6.74074 0 5 0C3.25926 0 1.84127 1.44116 1.84127 3.21034C1.84127 4.4122 2.49471 5.46081 3.45767 6.012C1.45238 6.67342 0 8.59049 0 10.8463V12.6693C0 12.8521 0.145503 13 0.325397 13H9.67989C9.8545 12.9973 10 12.8521 10 12.6693ZM2.48677 3.21034C2.48677 1.80414 3.61376 0.658738 4.99735 0.658738C6.38095 0.658738 7.50794 1.80414 7.50794 3.21034C7.50794 4.61655 6.38095 5.76194 4.99735 5.76194C3.61376 5.76194 2.48677 4.61655 2.48677 3.21034ZM9.35185 12.3386H0.642857V10.8436C0.642857 8.40496 2.59524 6.41799 4.99735 6.41799C7.39947 6.41799 9.35185 8.40228 9.35185 10.8436V12.3386Z" fill="white"/>
</svg>
