<svg width="15" height="16" viewBox="0 0 15 16" fill="none" xmlns="http://www.w3.org/2000/svg">
<path d="M12.814 2.19037C12.1221 1.49394 11.2988 0.941733 10.392 0.565748C9.48508 0.189762 8.5126 -0.00252568 7.53086 2.50478e-05C3.41399 2.50478e-05 0.0637612 3.35006 0.062255 7.46769C0.0606114 8.77822 0.404531 10.066 1.05934 11.2013L0 15.0714L3.95922 14.0327C5.05427 14.6292 6.28136 14.9418 7.52835 14.9419H7.53136C11.6482 14.9419 14.998 11.5913 15 7.47371C15.003 6.49229 14.8113 5.52002 14.4361 4.61314C14.0609 3.70626 13.5096 2.88279 12.814 2.19037V2.19037ZM7.53086 13.6803H7.52835C6.41668 13.6805 5.32542 13.3817 4.3689 12.8153L4.14247 12.6807L1.79285 13.2972L2.41992 11.0065L2.27231 10.7715C1.76057 9.95676 1.44522 9.0342 1.35115 8.07667C1.25709 7.11915 1.38688 6.15286 1.73029 5.25409C2.0737 4.35532 2.62132 3.54867 3.32993 2.89779C4.03854 2.24692 4.88875 1.76965 5.81343 1.50366C6.73812 1.23766 7.71199 1.19022 8.65815 1.36507C9.60432 1.53992 10.4969 1.93229 11.2654 2.5112C12.034 3.09011 12.6574 3.83972 13.0866 4.70085C13.5157 5.56198 13.7388 6.51107 13.7383 7.47321C13.7373 10.896 10.9524 13.6803 7.53086 13.6803Z" fill="currentColor"/>
<path d="M10.9373 9.03399C10.7505 8.94061 9.83274 8.48929 9.66204 8.42703C9.49134 8.36478 9.36633 8.33366 9.24232 8.52041C9.11832 8.70716 8.76035 9.12736 8.6514 9.25187C8.54246 9.37637 8.43351 9.39193 8.24725 9.29855C8.06098 9.20518 7.45952 9.00838 6.7466 8.37231C6.19182 7.87731 5.81729 7.26785 5.70834 7.07959C5.59939 6.89133 5.69679 6.79193 5.79018 6.69855C5.87402 6.61471 5.97694 6.48067 6.07032 6.37173C6.14712 6.27743 6.21001 6.17261 6.25709 6.06048C6.28189 6.00901 6.29346 5.95216 6.29074 5.89509C6.28802 5.83803 6.27111 5.78254 6.24153 5.73366C6.19483 5.64028 5.82181 4.72157 5.66617 4.34806C5.51555 3.98409 5.36092 4.03379 5.24645 4.02777C5.13198 4.02174 5.01299 4.02124 4.88898 4.02124C4.79444 4.02374 4.70143 4.04577 4.61581 4.08595C4.53018 4.12612 4.4538 4.18357 4.39144 4.25468C4.22024 4.44144 3.73877 4.89276 3.73877 5.81097C3.73877 6.72918 4.40751 7.61827 4.50089 7.74126C4.59428 7.86426 5.81679 9.74937 7.68896 10.5586C8.03639 10.7084 8.39151 10.8396 8.75282 10.9517C9.13352 11.0674 9.53596 11.0927 9.92814 11.0255C10.2866 10.9718 11.0327 10.5737 11.1878 10.1384C11.3429 9.70319 11.3434 9.32868 11.2967 9.25086C11.2501 9.17305 11.1235 9.12485 10.9373 9.03399Z" fill="currentColor"/>
</svg>
